<svg xmlns="http://www.w3.org/2000/svg" viewBox="0 0 1209.83 427.26"><defs><style>.cls-1{fill:#fbfbfb;}</style></defs><g id="Capa_2" data-name="Capa 2"><g id="Capa_1-2" data-name="Capa 1"><g id="Capa_2-2" data-name="Capa 2"><g id="Capa_1-2-2" data-name="Capa 1-2"><g id="Capa_2-2-2" data-name="Capa 2-2"><g id="Capa_1-2-2-2" data-name="Capa 1-2-2"><path class="cls-1" d="M0,0H55.81q54,0,73.08,5t29,16.3A51.58,51.58,0,0,1,170.3,46.55q2.47,13.91,2.48,54.65V201.61q0,38.63-3.64,51.65t-12.66,20.37a52.71,52.71,0,0,1-22.33,10.28q-13.28,2.93-40,2.92H0ZM74.59,49.07V237.76q16.11,0,19.84-6.47t3.72-35.17V84.69q0-19.5-1.24-25a11.86,11.86,0,0,0-5.67-8.06Q86.82,49.08,74.59,49.07Z"/><path class="cls-1" d="M262.38,142.79H195.24V127q0-27.28,6.29-42.08t25.24-26.13q19-11.34,49.25-11.34,36.32,0,54.75,12.84t22.14,31.54q3.72,18.69,3.72,77v118H287V265.88q-6.56,12.6-16.92,18.9t-24.72,6.3a60.38,60.38,0,0,1-34.45-10.54Q195.24,270,195.24,234.39V215.08q0-26.4,8.32-36t41.28-22.32q35.25-13.81,37.74-18.6t2.48-19.49q0-18.42-2.75-24a9.43,9.43,0,0,0-9.12-5.58q-7.28,0-9,4.7t-1.77,24.36ZM285.06,175q-17.19,12.58-19.93,21.08t-2.75,24.45q0,18.25,2.39,23.56t9.48,5.32q6.74,0,8.77-4.16t2-21.88Z"/><path class="cls-1" d="M543.54,51.73V320.31H472V267.83q-10.46,15.27-19.22,19.26t-21.71,4q-18.78,0-31.09-8.86a42.82,42.82,0,0,1-16.56-22.94q-4.26-14.09-4.26-43.14V112.5q0-23.91,3.19-35.7t15.33-20.55q12.13-8.78,28.79-8.77a52,52,0,0,1,24.8,6q11.34,6,20.73,18.29l1.24-20.07Zm-71.57,64q0-15.58-2.39-21.08t-8.6-5.5q-6,0-8.15,4.79t-2.12,21.79v104.7q0,19,2.12,24t8.69,5q6.19,0,8.32-5.23T472,221.46Z"/><path class="cls-1" d="M733.11,51.73v235.1H660.3l1.24-19.53a49.89,49.89,0,0,1-18.34,17.84q-10.89,5.94-25.07,5.94-16.12,0-26.75-5.67a36.7,36.7,0,0,1-15.68-15.06,54.8,54.8,0,0,1-6.29-19.57q-1.24-10.18-1.24-40.49V51.73h71.57v160q0,27.47,1.69,32.6t9.12,5.14c5.32,0,8.47-1.77,9.48-5.32s1.51-14.94,1.51-34.19V51.73Z"/><path class="cls-1" d="M668.75,362.91H618.07v27.81q0,8.71,1.26,11.24t4.85,2.52q4.5,0,6-3.35t1.5-12.93v-17h37.11v9.5q0,11.91-1.51,18.31t-7,13.66a34.15,34.15,0,0,1-14,10.9q-8.47,3.63-21.27,3.63a61.59,61.59,0,0,1-21.89-3.58q-9.5-3.58-14.78-9.84A35.42,35.42,0,0,1,581,400.07q-2-7.51-2-21.85v-37.5q0-16.86,4.55-26.59a31.27,31.27,0,0,1,14.93-14.92A52.49,52.49,0,0,1,622.24,294q16.47,0,27.18,6.25t15,16.57q4.32,10.32,4.32,29ZM629.51,342v-9.4q0-10-1.07-12.88a4.21,4.21,0,0,0-4.36-2.91c-2.71,0-4.39.83-5,2.47s-1,6.09-1,13.32V342Z"/><path class="cls-1" d="M763.85,337.43H729.16v-7q0-8.91-1-11.28c-.67-1.58-2.36-2.37-5.09-2.38a5.79,5.79,0,0,0-4.94,2.18c-1.1,1.46-1.65,3.63-1.65,6.54a32.84,32.84,0,0,0,.82,8.67q.83,2.76,5,6.06t16.9,9.59q17.06,8.34,22.38,15.7t5.33,21.41q0,15.69-4.07,23.69t-13.61,12.3q-9.54,4.32-23,4.31-14.93,0-25.53-4.65T686.05,410q-4-8-4-24v-6.2h34.68v8.14q0,10.37,1.31,13.46c.87,2.07,2.6,3.1,5.18,3.11q4.17,0,5.82-2.09c1.1-1.39,1.65-4.32,1.64-8.77q0-9.19-2.13-11.53t-22.77-13.75q-17.24-9.69-21-17.59A43.52,43.52,0,0,1,681,332q0-15.4,4.07-22.72T698.89,298a59.47,59.47,0,0,1,22.62-4q12.79,0,21.75,3.25T757,305.84q4.79,5.34,5.81,9.89t1,14.24Z"/><path class="cls-1" d="M821,279.2v20.25h10.56V319.8H821v68.79q0,12.69,1.31,14.14t10.9,1.46v20.73H817.39q-13.38,0-19.09-1.12a20.31,20.31,0,0,1-10.08-5.13,17.11,17.11,0,0,1-5.42-9.2q-1.06-5.19-1.07-24.37V319.8H773.3V299.45h8.43V279.2Z"/><path class="cls-1" d="M932.16,296.35V424.92H892.34l.67-10.68A27.24,27.24,0,0,1,883,424a28.09,28.09,0,0,1-13.71,3.25q-8.82,0-14.63-3.1a20.21,20.21,0,0,1-8.58-8.23,30,30,0,0,1-3.44-10.71q-.67-5.56-.68-22.14V296.35H881.1v87.49q0,15,.92,17.83c.61,1.89,2.28,2.82,5,2.81q4.35,0,5.18-2.91t.82-18.7V296.35Z"/><path class="cls-1" d="M1037.63,268.06V424.92H998.48v-9.33a40.13,40.13,0,0,1-11.82,8.74,30.11,30.11,0,0,1-13,2.91,26.28,26.28,0,0,1-15.79-4.79q-6.69-4.8-8.58-11.1t-1.89-20.54V330.65q0-14.83,1.89-21t8.67-10.9a27.69,27.69,0,0,1,16.18-4.7,32,32,0,0,1,24.32,10.49V268.06Zm-39.15,60.65c0-4.71-.4-7.87-1.21-9.5s-2.4-2.42-4.79-2.42-3.9.73-4.7,2.18-1.21,4.7-1.21,9.74v63c0,5.23.38,8.67,1.16,10.31s2.26,2.48,4.46,2.48q3.78,0,5-2.77c.81-1.85,1.26-6.34,1.26-13.51Z"/><path class="cls-1" d="M1094.36,268.06V288.5h-40.31V268.06Zm0,28.29V424.92h-40.31V296.35Z"/><path class="cls-1" d="M1199.35,341.5V373q0,17.34-1.75,25.43a35.61,35.61,0,0,1-7.46,15.11,33.67,33.67,0,0,1-14.68,10.37,58.66,58.66,0,0,1-20.59,3.34q-13,0-22-2.85t-14-8.63a34,34,0,0,1-7.12-13.95q-2.13-8.19-2.13-24.56V344.31q0-17.93,3.87-28a32.25,32.25,0,0,1,14-16.18q10.07-6.11,25.77-6.11,13.17,0,22.62,3.93t14.58,10.22a36.31,36.31,0,0,1,7,13Q1199.35,327.85,1199.35,341.5Zm-39.15-9.69q0-9.88-1.06-12.45t-4.56-2.57q-3.48,0-4.65,2.57t-1.16,12.45v58q0,9.1,1.16,11.86a4.46,4.46,0,0,0,4.56,2.77c2.32,0,3.86-.84,4.6-2.52s1.11-5.3,1.11-10.86Z"/><rect class="cls-1" x="472.12" y="328.83" width="72" height="10"/><rect class="cls-1" x="472.12" y="347.83" width="72" height="10"/><path class="cls-1" d="M.12,304.83h408a53,53,0,0,1,53,53h-408A53,53,0,0,1,.12,304.83Z"/><polygon class="cls-1" points="758.8 286.83 777.12 286.83 777.12 274.83 825.12 274.83 825.12 286.83 832.5 286.83 832.5 51.73 758.8 51.73 758.8 286.83"/><rect class="cls-1" x="758.8" width="73.7" height="37.38"/><path class="cls-1" d="M1023.31,263.83V122.07q0-30.82-3.37-44t-15.06-21.88q-11.68-8.67-30.12-8.68-14.7,0-26,6.48t-19,19.43L931,51.73H858.19v235.1h71.57V127.91q0-26.56,2-32.68t9.57-6.12q7.26,0,8.86,5.32T951.73,124V286.83h42.39v-23Z"/><path class="cls-1" d="M1206.41,97.09a66.26,66.26,0,0,0-12.85-23.74q-9.39-11.52-26.66-18.69t-41.37-7.18q-28.69,0-47.12,11.16t-25.52,29.59q-7.08,18.42-7.08,51.2v60.24q0,29.94,3.89,44.91a65,65,0,0,0,8.34,19.25h41.08v25c9.35,2.09,17.16,2.25,29.42,2.25q21.27,0,37.65-6.11A61.58,61.58,0,0,0,1193,266a65.14,65.14,0,0,0,13.64-27.63q3.19-14.79,3.19-46.51V134.29Q1209.86,109.32,1206.41,97.09ZM1138.29,225q0,15.24-2,19.84t-8.42,4.61q-6.19,0-8.32-5t-2.13-21.7V116.57q0-18.06,2.13-22.76t8.5-4.7q6.38,0,8.33,4.7t2,22.76Z"/></g></g></g></g></g></g></svg>