<svg width="145" height="27" fill="none" xmlns="http://www.w3.org/2000/svg"><mask id="a" maskUnits="userSpaceOnUse" x="77" y="3" width="68" height="21" fill="#000"><path fill="#fff" d="M77 3h68v21H77z"/><path d="M78.902 4.608h7.541v3.48h-3.018v3.299h2.825v3.308h-2.825v3.825h3.32V22h-7.843V4.608ZM96.788 12.3h-3.846v-.774c0-.659-.039-1.074-.118-1.246-.071-.179-.258-.268-.558-.268-.244 0-.427.082-.548.247-.122.157-.183.397-.183.72 0 .436.029.759.086.966.065.2.247.423.548.666.308.244.934.598 1.88 1.064 1.26.616 2.087 1.196 2.481 1.74.394.544.591 1.336.591 2.374 0 1.16-.15 2.037-.451 2.632-.3.587-.806 1.042-1.515 1.364-.701.315-1.55.473-2.546.473-1.102 0-2.048-.172-2.836-.516-.78-.344-1.317-.81-1.61-1.396-.294-.587-.441-1.476-.441-2.664v-.688h3.845v.902c0 .767.047 1.264.14 1.494.1.229.294.343.58.343.308 0 .523-.075.645-.225.121-.158.182-.484.182-.978 0-.68-.079-1.106-.236-1.278-.165-.172-1.006-.68-2.525-1.525-1.274-.717-2.051-1.365-2.33-1.945-.28-.587-.42-1.282-.42-2.084 0-1.138.15-1.976.452-2.513.3-.545.809-.964 1.525-1.257.723-.294 1.561-.44 2.514-.44.945 0 1.747.121 2.406.365.666.236 1.174.551 1.525.945.358.394.573.759.645 1.096.079.336.118.863.118 1.579v.827Zm6.069-6.456v2.245h1.171v2.256h-1.171v7.627c0 .938.047 1.46.14 1.568.1.108.505.161 1.214.161V22h-1.751c-.988 0-1.694-.04-2.116-.118a2.315 2.315 0 0 1-1.117-.57c-.323-.3-.523-.64-.602-1.02-.079-.387-.118-1.29-.118-2.707v-7.24h-.935V8.089h.935V5.844h4.35Zm12.064 1.901V22h-4.415l.075-1.182c-.301.48-.673.842-1.117 1.085-.437.237-.942.355-1.515.355-.651 0-1.192-.115-1.622-.344-.43-.23-.748-.534-.956-.913-.2-.38-.326-.774-.376-1.182-.05-.415-.075-1.235-.075-2.46V7.745h4.34v9.7c0 1.11.032 1.77.096 1.977.072.208.258.311.559.311.322 0 .512-.107.569-.322.065-.215.097-.906.097-2.073V7.745h4.34Zm11.43-3.137V22h-4.34v-1.031c-.416.43-.852.752-1.311.966a3.35 3.35 0 0 1-1.439.323c-.673 0-1.257-.176-1.751-.527-.494-.358-.813-.77-.956-1.235-.136-.465-.204-1.224-.204-2.277v-6.671c0-1.096.068-1.873.204-2.331.143-.459.465-.86.967-1.203.501-.351 1.099-.527 1.793-.527.538 0 1.028.097 1.472.29.451.194.86.484 1.225.87V4.608h4.34Zm-4.34 6.725c0-.523-.047-.874-.14-1.053-.086-.179-.261-.268-.526-.268-.258 0-.434.082-.527.247-.086.157-.129.515-.129 1.074v6.982c0 .58.043.964.129 1.15.086.179.251.268.494.268.28 0 .466-.1.559-.3.093-.208.14-.71.14-1.504v-6.596Zm10.366-6.725v2.267h-4.469V4.608h4.469Zm0 3.137V22h-4.469V7.745h4.469Zm11.387 5.006v3.491c0 1.282-.065 2.224-.194 2.825a3.994 3.994 0 0 1-.827 1.676 3.789 3.789 0 0 1-1.633 1.15c-.659.243-1.418.365-2.277.365-.96 0-1.772-.104-2.438-.312-.666-.215-1.186-.533-1.558-.956a3.855 3.855 0 0 1-.784-1.547c-.158-.608-.237-1.518-.237-2.728v-3.652c0-1.325.144-2.36.43-3.105.287-.745.802-1.343 1.547-1.794.745-.451 1.697-.677 2.857-.677.974 0 1.809.147 2.503.44.702.287 1.243.663 1.622 1.129.38.465.638.945.774 1.44.143.493.215 1.245.215 2.255Zm-4.34-1.074c0-.73-.04-1.189-.118-1.375-.079-.194-.247-.29-.505-.29s-.43.096-.516.29c-.086.186-.129.644-.129 1.375v6.434c0 .674.043 1.114.129 1.322.086.2.254.3.505.3.258 0 .426-.093.505-.279.086-.186.129-.587.129-1.203v-6.574Z"/></mask><path d="M78.902 4.608v-1h-1v1h1Zm7.541 0h1v-1h-1v1Zm0 3.48v1h1v-1h-1Zm-3.018 0v-1h-1v1h1Zm0 3.299h-1v1h1v-1Zm2.825 0h1v-1h-1v1Zm0 3.308v1h1v-1h-1Zm-2.825 0v-1h-1v1h1Zm0 3.825h-1v1h1v-1Zm3.32 0h1v-1h-1v1Zm0 3.48v1h1v-1h-1Zm-7.843 0h-1v1h1v-1Zm0-16.392h7.541v-2h-7.54v2Zm6.541-1v3.48h2v-3.48h-2Zm1 2.48h-3.018v2h3.018v-2Zm-4.018 1v3.299h2V8.089h-2Zm1 4.299h2.825v-2h-2.825v2Zm1.825-1v3.308h2v-3.308h-2Zm1 2.308h-2.825v2h2.825v-2Zm-3.825 1v3.825h2v-3.825h-2Zm1 4.825h3.32v-2h-3.32v2Zm2.32-1V22h2v-3.48h-2Zm1 2.48h-7.843v2h7.842v-2Zm-6.843 1V4.608h-2V22h2Zm16.886-9.7v1h1v-1h-1Zm-3.846 0h-1v1h1v-1Zm-.118-2.02-.928.372.009.023.01.022.91-.417Zm-1.106-.021.791.611.007-.008.006-.009-.804-.594Zm-.097 1.686-.964.266.006.02.006.02.952-.306Zm.548.666-.63.778.01.007.62-.785Zm1.88 1.064-.442.897.003.001.439-.898Zm2.62 6.746.891.456.002-.005-.892-.451Zm-1.514 1.364.41.912.004-.002-.414-.91Zm-5.382-.043-.403.915.004.002.4-.917Zm-2.051-4.748v-1h-1v1h1Zm3.845 0h1v-1h-1v1Zm.14 2.396-.926.376.005.012.005.013.916-.401Zm1.225.118.777.629.007-.009.007-.009-.791-.611Zm-.054-2.256.737-.676-.007-.008-.008-.008-.722.692Zm-2.525-1.525-.49.871.004.002.486-.873Zm-2.33-1.945-.904.43.002.004.901-.434Zm.032-4.597.872.488.003-.005-.875-.483Zm1.525-1.257L89.204 7l-.003.001.38.926Zm4.92-.075-.347.938.013.004.334-.942Zm1.525.945-.746.665.006.008.74-.673Zm.645 1.096-.978.208.002.01.002.01.974-.228Zm.118 1.406h-3.846v2h3.846v-2Zm-2.846 1v-.774h-2v.774h2Zm0-.774c0-.345-.01-.648-.034-.9-.02-.217-.06-.511-.175-.762l-1.818.833c-.025-.056-.027-.081-.02-.045.006.03.015.082.022.163.016.164.025.398.025.711h2Zm-.19-1.617c-.3-.754-1.038-.897-1.486-.897v2c.063 0 .02.011-.068-.032a.639.639 0 0 1-.302-.328l1.857-.743Zm-1.486-.897c-.493 0-1.005.183-1.352.652l1.608 1.19a.427.427 0 0 1-.165.131c-.063.028-.101.027-.091.027v-2Zm-1.34.635c-.318.412-.39.915-.39 1.332h2a.77.77 0 0 1 .014-.176c.005-.019 0 .015-.04.067l-1.584-1.223Zm-.39 1.332c0 .454.026.889.121 1.232l1.928-.532c-.02-.071-.05-.281-.05-.7h-2Zm.133 1.272c.156.485.528.86.87 1.138l1.26-1.555a1.562 1.562 0 0 1-.22-.207c-.039-.047-.023-.043-.006.012l-1.904.612Zm.88 1.145c.402.318 1.121.714 2.058 1.176l.884-1.794c-.954-.47-1.489-.783-1.702-.951l-1.24 1.569Zm2.06 1.177c1.241.606 1.872 1.098 2.111 1.428l1.62-1.172c-.548-.758-1.572-1.427-2.852-2.053l-.878 1.797Zm2.111 1.428c.22.304.401.853.401 1.788h2c0-1.141-.212-2.175-.78-2.96L95.72 16Zm.401 1.788c0 1.104-.148 1.794-.343 2.18l1.784.903c.406-.802.56-1.866.56-3.083h-2Zm-.341 2.176c-.18.352-.496.663-1.038.91l.827 1.82c.876-.398 1.57-.995 1.991-1.818l-1.78-.912Zm-1.034.908c-.541.243-1.243.385-2.137.385v2c1.097 0 2.093-.173 2.956-.56l-.82-1.825Zm-2.137.385c-1.002 0-1.804-.157-2.436-.432l-.8 1.833c.945.412 2.033.599 3.236.599v-2Zm-2.432-.431c-.633-.278-.959-.605-1.12-.929l-1.79.895c.426.851 1.174 1.455 2.103 1.864l.806-1.83Zm-1.12-.929c-.189-.377-.335-1.076-.335-2.216h-2c0 1.237.147 2.314.546 3.11l1.788-.894Zm-.335-2.216v-.688h-2v.688h2Zm-1 .312h3.845v-2h-3.845v2Zm2.845-1v.902h2v-.902h-2Zm0 .902c0 .4.012.75.04 1.042.025.268.07.571.174.828l1.852-.753c.012.028-.014-.032-.035-.262a9.61 9.61 0 0 1-.03-.855h-2Zm.224 1.895c.124.283.33.54.626.717.288.17.596.225.87.225v-2c-.012 0 .055-.002.15.054a.463.463 0 0 1 .186.202l-1.832.802Zm1.496.942c.432 0 1.021-.1 1.422-.596l-1.555-1.258a.46.46 0 0 1 .195-.146c.029-.01.017 0-.062 0v2Zm1.436-.614c.202-.261.286-.562.329-.79.045-.245.062-.517.062-.799h-2c0 .213-.013.35-.028.432-.008.038-.013.05-.01.043a.437.437 0 0 1 .064-.109l1.583 1.223Zm.391-1.589c0-.37-.02-.715-.076-1.011-.048-.263-.149-.644-.423-.943l-1.474 1.352a.555.555 0 0 1-.09-.132c0-.002.01.023.02.086.025.13.043.339.043.648h2Zm-.514-1.97a2.62 2.62 0 0 0-.412-.328c-.146-.099-.33-.215-.547-.346a61.75 61.75 0 0 0-1.801-1.033l-.973 1.747c.755.42 1.333.752 1.74.998.203.123.355.219.46.29.13.088.13.1.089.056L93.6 16.56Zm-2.757-1.705c-.605-.34-1.062-.648-1.388-.92-.335-.279-.48-.478-.531-.587l-1.803.868c.227.471.611.886 1.053 1.255.451.377 1.02.751 1.69 1.127l.98-1.743Zm-1.918-1.502c-.202-.426-.322-.967-.322-1.655h-2c0 .917.16 1.765.516 2.514l1.806-.86Zm-.322-1.655c0-1.09.151-1.716.324-2.025l-1.745-.977c-.429.766-.579 1.815-.579 3.002h2Zm.327-2.03c.166-.3.471-.586 1.03-.815l-.76-1.85c-.873.358-1.585.91-2.02 1.698l1.75.967Zm1.026-.814c.58-.235 1.287-.367 2.138-.367v-2c-1.054 0-2.024.163-2.89.514l.752 1.853Zm2.138-.367c.865 0 1.543.113 2.06.304l.693-1.876c-.801-.296-1.728-.428-2.753-.428v2Zm2.072.308c.559.198.905.435 1.113.668l1.493-1.33c-.494-.555-1.165-.949-1.938-1.223l-.668 1.885Zm1.12.676c.298.328.386.537.406.63l1.956-.416c-.123-.58-.465-1.1-.883-1.56l-1.48 1.346Zm.41.65c.051.219.092.649.092 1.352h2c0-.73-.038-1.353-.144-1.807l-1.948.455Zm.092 1.352v.827h2v-.827h-2Zm7.069-5.63h1v-1h-1v1Zm0 2.246h-1v1h1v-1Zm1.171 0h1v-1h-1v1Zm0 2.256v1h1v-1h-1Zm-1.171 0v-1h-1v1h1Zm.14 9.195-.756.655.012.014.013.013.731-.682Zm1.214.161h1v-1h-1v1Zm0 2.299v1h1v-1h-1Zm-3.867-.118-.2.98.008.001.008.002.184-.983Zm-1.117-.57-.683.732.01.008.673-.74Zm-.602-1.02-.98.2v.003l.98-.203Zm-.118-9.947h1v-1h-1v1Zm-.935 0h-1v1h1v-1Zm0-2.256v-1h-1v1h1Zm.935 0v1h1v-1h-1Zm0-2.245v-1h-1v1h1Zm3.35 0v2.245h2V5.844h-2Zm1 3.245h1.171v-2h-1.171v2Zm.171-1v2.256h2V8.089h-2Zm1 1.256h-1.171v2h1.171v-2Zm-2.171 1v7.627h2v-7.627h-2Zm0 7.627c0 .48.012.879.039 1.184.014.15.033.303.064.442.018.084.078.363.281.597l1.512-1.31a.79.79 0 0 1 .144.235c.014.036.017.054.015.045a1.771 1.771 0 0 1-.024-.186 12.408 12.408 0 0 1-.031-1.007h-2Zm.409 2.25c.202.217.445.305.559.341.141.045.287.072.419.09.266.035.595.048.967.048v-2a5.82 5.82 0 0 1-.704-.031c-.07-.01-.088-.017-.074-.012a.797.797 0 0 1 .295.2l-1.462 1.364Zm.945-.52V22h2v-2.299h-2Zm1 1.298h-1.751v2h1.751v-2Zm-1.751 0c-.985 0-1.609-.04-1.933-.101l-.367 1.966c.522.097 1.308.135 2.3.135v-2Zm-1.917-.098a1.312 1.312 0 0 1-.643-.329l-1.347 1.479c.454.413.99.687 1.591.81l.399-1.96Zm-.634-.32c-.193-.18-.274-.343-.305-.493l-1.958.406c.126.61.446 1.127.898 1.549l1.365-1.463Zm-.304-.49c-.055-.267-.098-1.058-.098-2.507h-2c0 1.387.035 2.4.138 2.907l1.96-.4Zm-.098-2.507v-7.24h-2v7.24h2Zm-1-8.24h-.935v2h.935v-2Zm.065 1V8.089h-2v2.256h2Zm-1-1.256h.935v-2h-.935v2Zm1.935-1V5.844h-2v2.245h2Zm-1-1.245h4.35v-2h-4.35v2Zm16.414.901h1v-1h-1v1Zm0 14.255v1h1v-1h-1Zm-4.415 0-.998-.064L109.44 23h1.066v-1Zm.075-1.182.998.064-1.845-.595.847.531Zm-1.117 1.085.476.88.005-.003-.481-.877Zm-4.093-.902-.884.467.003.007.004.006.877-.48Zm-.376-1.182-.993.12.001.002.992-.122Zm-.075-12.074v-1h-1v1h1Zm4.34 0h1v-1h-1v1Zm.096 11.677-.955.296.005.015.005.015.945-.326Zm1.128-.01-.957-.288-.005.015-.004.015.966.257Zm.097-11.667v-1h-1v1h1Zm3.34 0V22h2V7.745h-2Zm1 13.255h-4.415v2h4.415v-2Zm-3.417 1.064.075-1.182-1.996-.127-.075 1.181 1.996.128Zm-1.77-1.777c-.221.353-.474.587-.751.74l.962 1.753a4.047 4.047 0 0 0 1.483-1.43l-1.694-1.063Zm-.746.737c-.27.146-.606.234-1.039.234v2c.714 0 1.387-.148 1.991-.475l-.952-1.76Zm-1.039.234c-.541 0-.907-.096-1.151-.226l-.941 1.764c.615.329 1.33.462 2.092.462v-2Zm-1.151-.226c-.28-.15-.447-.323-.55-.511l-1.754.96c.312.571.783 1.006 1.363 1.315l.941-1.764Zm-.543-.498a2.39 2.39 0 0 1-.267-.837l-1.985.244c.065.534.229 1.045.484 1.527l1.768-.934Zm-.267-.834c-.042-.347-.068-1.107-.068-2.34h-2c0 1.215.024 2.095.082 2.58l1.986-.24Zm-.068-2.34V7.744h-2v9.614h2Zm-1-8.615h4.34v-2h-4.34v2Zm3.34-1v9.7h2v-9.7h-2Zm0 9.7c0 .562.008 1.023.025 1.376.015.306.04.652.116.897l1.911-.593c.013.043.007.04-.004-.054a5.447 5.447 0 0 1-.025-.348c-.015-.306-.023-.73-.023-1.278h-2Zm.151 2.303c.113.329.337.605.652.78.29.163.597.205.852.205v-2c-.046 0 .017-.01.122.05a.582.582 0 0 1 .265.313l-1.891.652Zm1.504.985c.257 0 .577-.04.877-.21.333-.189.562-.493.659-.854l-1.933-.515a.626.626 0 0 1 .288-.37c.111-.064.174-.05.109-.05v2Zm1.527-1.035c.074-.245.099-.598.114-.92.017-.368.025-.85.025-1.44h-2c0 .577-.008 1.024-.023 1.347-.017.37-.041.47-.031.439l1.915.575Zm.139-2.36V7.745h-2v9.593h2Zm-1-8.593h4.34v-2h-4.34v2Zm15.77-4.137h1v-1h-1v1Zm0 17.392v1h1v-1h-1Zm-4.34 0h-1v1h1v-1Zm0-1.031h1v-2.474l-1.719 1.779.719.695Zm-4.501.762-.587.81.008.006.579-.816Zm-.956-1.235-.96.28.004.014.956-.294Zm0-11.28-.955-.297-.002.006-.002.007.959.285Zm.967-1.202.565.824.008-.005-.573-.82Zm3.265-.237-.399.917.005.002.394-.919Zm1.225.87-.727.687 1.727 1.829V8.647h-1Zm0-4.039v-1h-1v1h1Zm-.14 5.672-.901.433.006.014.008.015.887-.462Zm-1.053-.021-.87-.492-.004.006-.004.007.878.479Zm0 9.206-.908.419.004.007.003.007.901-.433Zm1.053-.032.907.42.006-.011-.913-.41Zm3.48-14.825V22h2V4.608h-2Zm1 16.392h-4.34v2h4.34v-2Zm-3.34 1v-1.031h-2V22h2Zm-1.719-1.726c-.346.357-.686.601-1.016.756l.849 1.811a5.487 5.487 0 0 0 1.605-1.177l-1.438-1.39Zm-1.016.756a2.353 2.353 0 0 1-1.015.228v2c.649 0 1.274-.14 1.864-.417l-.849-1.81Zm-1.015.228c-.49 0-.866-.124-1.172-.342l-1.158 1.63c.682.485 1.473.712 2.33.712v-2Zm-1.164-.336c-.364-.264-.523-.51-.588-.72l-1.911.588c.222.72.7 1.299 1.325 1.751l1.174-1.62Zm-.583-.707c-.094-.318-.164-.954-.164-1.996h-2c0 1.063.065 1.945.244 2.558l1.92-.562Zm-.164-1.996v-6.671h-2v6.67h2Zm0-6.671c0-1.091.071-1.74.162-2.047l-1.917-.569c-.181.61-.245 1.515-.245 2.616h2Zm.158-2.033c.06-.193.212-.425.578-.677l-1.131-1.65c-.636.437-1.13 1.007-1.356 1.73l1.909.597Zm.586-.682c.311-.218.702-.346 1.22-.346v-2c-.871 0-1.675.223-2.367.707l1.147 1.639Zm1.22-.346c.415 0 .768.074 1.073.207l.798-1.833a4.644 4.644 0 0 0-1.871-.374v2Zm1.078.21c.315.135.613.341.892.637l1.454-1.373a4.664 4.664 0 0 0-1.558-1.103l-.788 1.838Zm2.619-.05V4.608h-2v4.04h2Zm-1-3.039h4.34v-2h-4.34v2Zm1 5.725c0-.287-.013-.553-.044-.787a2.222 2.222 0 0 0-.209-.727l-1.774.923c-.021-.04-.024-.059-.019-.04.004.016.012.05.02.107.015.117.026.288.026.524h2Zm-.238-1.485c-.31-.645-.93-.836-1.428-.836v2c.026 0-.031.005-.124-.042a.568.568 0 0 1-.251-.257l1.803-.865Zm-1.428-.836c-.47 0-1.064.165-1.397.755l1.741.984a.56.56 0 0 1-.244.228c-.082.038-.129.033-.1.033v-2Zm-1.405.768c-.138.254-.187.543-.211.746-.028.234-.04.507-.04.807h2c0-.258.011-.444.026-.568a.94.94 0 0 1 .017-.108c.004-.017-.002.02-.036.08l-1.756-.957Zm-.251 1.553v6.982h2v-6.982h-2Zm0 6.982c0 .311.012.592.039.834.025.222.071.493.182.735l1.816-.838c.018.037.018.05.011.021a1.33 1.33 0 0 1-.022-.14 5.954 5.954 0 0 1-.026-.612h-2Zm.228 1.583c.128.267.333.496.612.647.266.145.543.188.783.188v-2l.012.001a.5.5 0 0 1 .16.053.566.566 0 0 1 .236.245l-1.803.866Zm1.395.835c.254 0 .546-.045.824-.194.292-.158.509-.399.642-.685l-1.814-.842a.522.522 0 0 1 .224-.234c.091-.05.15-.045.124-.045v2Zm1.472-.891c.119-.267.163-.589.188-.849.027-.293.039-.651.039-1.064h-2c0 .382-.012.672-.031.88-.01.103-.02.174-.029.22-.01.052-.013.04.008-.005l1.825.818Zm.227-1.913v-6.596h-2v6.596h2Zm9.366-13.32h1v-1h-1v1Zm0 2.266v1h1v-1h-1Zm-4.469 0h-1v1h1v-1Zm0-2.267v-1h-1v1h1Zm4.469 3.137h1v-1h-1v1Zm0 14.255v1h1v-1h-1Zm-4.469 0h-1v1h1v-1Zm0-14.255v-1h-1v1h1Zm3.469-3.137v2.267h2V4.608h-2Zm1 1.267h-4.469v2h4.469v-2Zm-3.469 1V4.608h-2v2.267h2Zm-1-1.267h4.469v-2h-4.469v2Zm3.469 2.137V22h2V7.745h-2Zm1 13.255h-4.469v2h4.469v-2Zm-3.469 1V7.745h-2V22h2Zm-1-13.255h4.469v-2h-4.469v2Zm15.662 10.322.978.212v-.002l-.978-.21Zm-.827 1.676.774.634.004-.005-.778-.629Zm-1.633 1.15.347.938.006-.003-.353-.935Zm-4.715.053-.307.952.009.003.298-.955Zm-1.558-.956-.762.648.006.007.006.006.75-.66Zm-.784-1.547-.968.25v.004l.968-.254Zm7.1-11.515-.389.92.011.006.378-.926Zm2.396 2.567-.964.266.003.013.961-.279Zm-4.243-.193-.927.377.006.012.921-.39Zm-1.021 0 .908.419.003-.007.003-.006-.914-.406Zm0 9.13-.924.383.005.011.919-.393Zm1.01.022-.908-.419-.007.015-.006.014.921.39Zm3.469-6.703v3.491h2v-3.491h-2Zm0 3.491c0 1.27-.066 2.123-.171 2.616l1.955.419c.152-.71.216-1.741.216-3.035h-2Zm-.171 2.613c-.092.427-.293.845-.628 1.26l1.556 1.257c.51-.631.861-1.33 1.027-2.093l-1.955-.424Zm-.623 1.254c-.304.37-.699.655-1.212.848l.705 1.871a4.792 4.792 0 0 0 2.054-1.451l-1.547-1.268Zm-1.206.846c-.526.194-1.164.303-1.931.303v2c.952 0 1.832-.135 2.624-.427l-.693-1.876Zm-1.931.303c-.894 0-1.6-.098-2.141-.266l-.595 1.909c.791.247 1.71.357 2.736.357v-2Zm-2.131-.263c-.537-.173-.887-.408-1.115-.666l-1.5 1.322c.517.587 1.205.99 2.001 1.247l.614-1.903Zm-1.103-.652a2.861 2.861 0 0 1-.579-1.153l-1.935.507c.192.731.518 1.386.99 1.94l1.524-1.294Zm-.578-1.15c-.125-.483-.205-1.29-.205-2.478h-2c0 1.232.078 2.244.269 2.979l1.936-.501Zm-.205-2.478v-3.652h-2v3.652h2Zm0-3.652c0-1.273.141-2.167.363-2.746l-1.866-.718c-.35.91-.497 2.086-.497 3.463h2Zm.363-2.746c.2-.519.559-.95 1.132-1.298l-1.036-1.71c-.916.555-1.589 1.32-1.962 2.29l1.866.718Zm1.132-1.298c.545-.33 1.303-.532 2.339-.532v-2c-1.283 0-2.43.25-3.375.822l1.036 1.71Zm2.339-.532c.878 0 1.573.133 2.114.362l.779-1.842c-.848-.359-1.822-.52-2.893-.52v2Zm2.125.367c.587.24.976.527 1.225.834l1.55-1.264c-.509-.625-1.202-1.089-2.019-1.422l-.756 1.852Zm1.225.834c.307.376.491.733.585 1.073l1.928-.531c-.179-.65-.51-1.251-.963-1.806L142 9.688Zm.588 1.085c.103.354.176.99.176 1.978h2c0-1.032-.071-1.9-.255-2.534l-1.921.556Zm-2.164.904c0-.38-.01-.708-.033-.977-.021-.235-.058-.536-.164-.788l-1.842.78c-.021-.05-.02-.066-.011-.02.007.04.016.104.024.199.016.189.026.455.026.806h2Zm-.192-1.753a1.428 1.428 0 0 0-.614-.707 1.625 1.625 0 0 0-.817-.205v2c.009 0-.07.002-.179-.06a.568.568 0 0 1-.242-.273l1.852-.755Zm-1.431-.912c-.25 0-.538.046-.813.2a1.456 1.456 0 0 0-.617.684l1.828.812a.555.555 0 0 1-.23.248c-.103.058-.177.056-.168.056v-2Zm-1.424.87c-.12.262-.162.573-.184.81-.026.272-.037.604-.037.985h2c0-.35.011-.613.028-.798.009-.093.018-.154.025-.19.009-.044.009-.022-.016.032l-1.816-.838Zm-.221 1.795v6.434h2v-6.434h-2Zm0 6.434c0 .354.011.668.037.933.024.242.067.526.168.771l1.848-.765c.016.038-.006-.003-.025-.2a7.949 7.949 0 0 1-.028-.739h-2Zm.21 1.715c.116.272.312.52.598.691.277.165.57.216.826.216v-2c.005 0 .089.002.198.066.117.07.186.169.216.24l-1.838.787Zm1.424.907c.243 0 .529-.043.804-.194.29-.161.5-.407.622-.695l-1.842-.78a.58.58 0 0 1 .252-.276c.106-.058.179-.055.164-.055v2Zm1.413-.86c.114-.247.159-.528.183-.753.027-.249.038-.542.038-.869h-2c0 .289-.01.504-.027.656a1.584 1.584 0 0 1-.022.153c-.008.032-.007.017.012-.025l1.816.838Zm.221-1.622v-6.574h-2v6.574h2Z" fill="#FBFBFB" mask="url(#a)"/><path d="M.902 4.608h3.384c2.184 0 3.66.1 4.426.301.773.2 1.36.53 1.762.988.4.459.651.97.752 1.537.1.558.15 1.661.15 3.308v6.091c0 1.561-.075 2.607-.226 3.137-.143.523-.397.934-.762 1.235-.365.294-.817.501-1.354.623-.537.115-1.346.172-2.428.172H.902V4.608Zm4.523 2.976v11.44c.652 0 1.053-.129 1.203-.386.15-.265.226-.978.226-2.138V9.743c0-.788-.026-1.292-.076-1.514a.7.7 0 0 0-.343-.484c-.18-.107-.516-.161-1.01-.161Zm11.386 5.683h-4.07v-.957c0-1.102.125-1.951.375-2.545.258-.602.77-1.132 1.536-1.59.767-.459 1.762-.688 2.987-.688 1.468 0 2.574.262 3.319.784.745.516 1.192 1.153 1.343 1.913.15.752.225 2.306.225 4.662V22h-4.221v-1.268c-.265.509-.609.892-1.032 1.15-.415.25-.913.376-1.493.376-.759 0-1.457-.211-2.095-.634-.63-.43-.945-1.364-.945-2.804v-1.17c0-1.068.168-1.794.505-2.181.337-.387 1.171-.838 2.503-1.354 1.425-.558 2.188-.934 2.288-1.128.1-.193.15-.587.15-1.181 0-.745-.057-1.228-.171-1.45a.56.56 0 0 0-.548-.344c-.294 0-.476.096-.548.29-.072.186-.108.677-.108 1.471v1.494Zm1.375 1.955c-.694.508-1.099.934-1.213 1.278-.108.344-.162.838-.162 1.482 0 .738.047 1.214.14 1.43.1.214.294.321.58.321.272 0 .448-.082.527-.247.086-.172.128-.616.128-1.332v-2.932ZM33.86 7.745V24.03h-4.34v-3.18c-.422.616-.812 1.003-1.17 1.16-.351.165-.788.248-1.31.248-.76 0-1.39-.18-1.892-.537a2.613 2.613 0 0 1-.999-1.386c-.171-.573-.257-1.447-.257-2.621V11.43c0-.967.064-1.687.193-2.16.129-.48.437-.895.924-1.246.494-.358 1.078-.537 1.75-.537.545 0 1.046.122 1.505.366.458.243.877.612 1.256 1.106l.076-1.214h4.264Zm-4.34 3.878c0-.63-.05-1.056-.15-1.278-.093-.222-.265-.333-.515-.333-.244 0-.409.096-.495.29-.086.193-.129.633-.129 1.321v6.349c0 .766.043 1.253.13 1.46.085.201.26.301.526.301.25 0 .419-.103.505-.311.086-.215.129-.677.129-1.386v-6.413Zm15.845-3.878V22H40.95l.075-1.182c-.3.48-.673.842-1.117 1.085-.437.237-.941.355-1.514.355-.652 0-1.193-.115-1.623-.344-.43-.23-.748-.534-.956-.913-.2-.38-.325-.774-.376-1.182-.05-.415-.075-1.235-.075-2.46V7.745h4.34v9.7c0 1.11.032 1.77.097 1.977.071.208.258.311.558.311.323 0 .512-.107.57-.322.064-.215.096-.906.096-2.073V7.745h4.34Zm6.027-3.137v2.267h-4.47V4.608h4.47Zm0 3.137V22h-4.47V7.745h4.47Zm5.983 0-.075 1.31c.315-.522.698-.912 1.15-1.17.458-.265.984-.398 1.578-.398.745 0 1.354.176 1.826.527.473.35.777.795.914 1.332.136.53.204 1.418.204 2.664V22h-4.34v-9.872c0-.981-.032-1.58-.097-1.794-.064-.215-.243-.322-.537-.322-.308 0-.501.125-.58.376-.079.243-.118.902-.118 1.976V22h-4.34V7.745h4.415Zm16.919 5.006v3.491c0 1.282-.065 2.224-.193 2.825a4 4 0 0 1-.828 1.676 3.791 3.791 0 0 1-1.632 1.15c-.66.243-1.418.365-2.278.365-.96 0-1.772-.104-2.438-.312-.666-.215-1.185-.533-1.558-.956a3.86 3.86 0 0 1-.784-1.547c-.157-.608-.236-1.518-.236-2.728v-3.652c0-1.325.143-2.36.43-3.105.286-.745.802-1.343 1.546-1.794.745-.451 1.697-.677 2.858-.677.974 0 1.808.147 2.503.44.701.287 1.242.663 1.622 1.129.38.465.637.945.773 1.44.143.493.215 1.245.215 2.255Zm-4.34-1.074c0-.73-.04-1.189-.118-1.375-.079-.194-.247-.29-.505-.29s-.43.096-.516.29c-.085.186-.128.644-.128 1.375v6.434c0 .674.042 1.114.128 1.322.086.2.255.3.505.3.258 0 .426-.093.505-.279.086-.186.13-.587.13-1.203v-6.574Z" fill="#FBFBFB"/></svg>