<svg width="145" height="27" viewBox="0 0 145 27" fill="none" xmlns="http://www.w3.org/2000/svg">
<mask id="path-1-outside-1_87_511" maskUnits="userSpaceOnUse" x="77" y="3" width="68" height="21" fill="black">
<rect fill="white" x="77" y="3" width="68" height="21"/>
<path d="M78.9023 4.6084H86.4434V8.08887H83.4248V11.3867H86.25V14.6953H83.4248V18.5195H86.7441V22H78.9023V4.6084ZM96.7881 12.2998H92.9424V11.5264C92.9424 10.8675 92.903 10.4521 92.8242 10.2803C92.7526 10.1012 92.5664 10.0117 92.2656 10.0117C92.0221 10.0117 91.8395 10.0941 91.7178 10.2588C91.596 10.4163 91.5352 10.6562 91.5352 10.9785C91.5352 11.4154 91.5638 11.7376 91.6211 11.9453C91.6855 12.1458 91.8682 12.3678 92.1689 12.6113C92.4769 12.8548 93.1035 13.2093 94.0488 13.6748C95.3092 14.2907 96.1364 14.8708 96.5303 15.415C96.9242 15.9593 97.1211 16.7507 97.1211 17.7891C97.1211 18.9492 96.9707 19.8265 96.6699 20.4209C96.3691 21.0081 95.8643 21.4629 95.1553 21.7852C94.4535 22.1003 93.6048 22.2578 92.6094 22.2578C91.5065 22.2578 90.5612 22.0859 89.7734 21.7422C88.9928 21.3984 88.4557 20.9329 88.1621 20.3457C87.8685 19.7585 87.7217 18.8704 87.7217 17.6816V16.9941H91.5674V17.8965C91.5674 18.6628 91.6139 19.1605 91.707 19.3896C91.8073 19.6188 92.0007 19.7334 92.2871 19.7334C92.5951 19.7334 92.8099 19.6582 92.9316 19.5078C93.0534 19.3503 93.1143 19.0244 93.1143 18.5303C93.1143 17.8499 93.0355 17.4238 92.8779 17.252C92.7132 17.0801 91.8717 16.5716 90.3535 15.7266C89.0788 15.0104 88.3018 14.3623 88.0225 13.7822C87.7432 13.195 87.6035 12.5003 87.6035 11.6982C87.6035 10.5596 87.7539 9.72168 88.0547 9.18457C88.3555 8.6403 88.8639 8.22135 89.5801 7.92773C90.3034 7.63411 91.1413 7.4873 92.0938 7.4873C93.0391 7.4873 93.8411 7.60905 94.5 7.85254C95.166 8.08887 95.6745 8.40397 96.0254 8.79785C96.3835 9.19173 96.5983 9.55697 96.6699 9.89355C96.7487 10.2301 96.7881 10.7565 96.7881 11.4727V12.2998ZM102.857 5.84375V8.08887H104.028V10.3447H102.857V17.9717C102.857 18.9098 102.904 19.4326 102.997 19.54C103.097 19.6475 103.502 19.7012 104.211 19.7012V22H102.46C101.472 22 100.766 21.9606 100.344 21.8818C99.9212 21.7959 99.5488 21.6061 99.2266 21.3125C98.9043 21.0117 98.7038 20.6715 98.625 20.292C98.5462 19.9053 98.5068 19.0029 98.5068 17.585V10.3447H97.5723V8.08887H98.5068V5.84375H102.857ZM114.921 7.74512V22H110.506L110.581 20.8184C110.28 21.2982 109.908 21.6598 109.464 21.9033C109.027 22.1396 108.522 22.2578 107.949 22.2578C107.298 22.2578 106.757 22.1432 106.327 21.9141C105.897 21.6849 105.579 21.3805 105.371 21.001C105.171 20.6214 105.045 20.2275 104.995 19.8193C104.945 19.404 104.92 18.584 104.92 17.3594V7.74512H109.26V17.4453C109.26 18.5553 109.292 19.2142 109.356 19.4219C109.428 19.6296 109.614 19.7334 109.915 19.7334C110.237 19.7334 110.427 19.626 110.484 19.4111C110.549 19.1963 110.581 18.5052 110.581 17.3379V7.74512H114.921ZM126.351 4.6084V22H122.011V20.9688C121.595 21.3984 121.159 21.7207 120.7 21.9355C120.242 22.1504 119.762 22.2578 119.261 22.2578C118.588 22.2578 118.004 22.0824 117.51 21.7314C117.016 21.3734 116.697 20.9616 116.554 20.4961C116.418 20.0306 116.35 19.2715 116.35 18.2188V11.5479C116.35 10.4521 116.418 9.67513 116.554 9.2168C116.697 8.75846 117.019 8.35742 117.521 8.01367C118.022 7.66276 118.62 7.4873 119.314 7.4873C119.852 7.4873 120.342 7.58398 120.786 7.77734C121.237 7.9707 121.646 8.26074 122.011 8.64746V4.6084H126.351ZM122.011 11.333C122.011 10.8102 121.964 10.4593 121.871 10.2803C121.785 10.1012 121.61 10.0117 121.345 10.0117C121.087 10.0117 120.911 10.0941 120.818 10.2588C120.732 10.4163 120.689 10.7744 120.689 11.333V18.3154C120.689 18.8955 120.732 19.2786 120.818 19.4648C120.904 19.6439 121.069 19.7334 121.312 19.7334C121.592 19.7334 121.778 19.6331 121.871 19.4326C121.964 19.2249 122.011 18.7236 122.011 17.9287V11.333ZM132.377 4.6084V6.875H127.908V4.6084H132.377ZM132.377 7.74512V22H127.908V7.74512H132.377ZM143.764 12.751V16.2422C143.764 17.5241 143.699 18.4658 143.57 19.0674C143.441 19.6618 143.166 20.2204 142.743 20.7432C142.321 21.2588 141.776 21.6419 141.11 21.8926C140.451 22.1361 139.692 22.2578 138.833 22.2578C137.873 22.2578 137.061 22.154 136.395 21.9463C135.729 21.7314 135.209 21.4128 134.837 20.9902C134.472 20.5605 134.21 20.0449 134.053 19.4434C133.895 18.8346 133.816 17.9251 133.816 16.7148V13.0625C133.816 11.7376 133.96 10.7028 134.246 9.95801C134.533 9.21322 135.048 8.61523 135.793 8.16406C136.538 7.71289 137.49 7.4873 138.65 7.4873C139.624 7.4873 140.459 7.63411 141.153 7.92773C141.855 8.21419 142.396 8.59017 142.775 9.05566C143.155 9.52116 143.413 10.001 143.549 10.4951C143.692 10.9893 143.764 11.7412 143.764 12.751ZM139.424 11.6768C139.424 10.9463 139.384 10.488 139.306 10.3018C139.227 10.1084 139.059 10.0117 138.801 10.0117C138.543 10.0117 138.371 10.1084 138.285 10.3018C138.199 10.488 138.156 10.9463 138.156 11.6768V18.1113C138.156 18.7845 138.199 19.2249 138.285 19.4326C138.371 19.6331 138.539 19.7334 138.79 19.7334C139.048 19.7334 139.216 19.6403 139.295 19.4541C139.381 19.2679 139.424 18.8669 139.424 18.251V11.6768Z"/>
</mask>
<path d="M78.9023 4.6084V3.6084H77.9023V4.6084H78.9023ZM86.4434 4.6084H87.4434V3.6084H86.4434V4.6084ZM86.4434 8.08887V9.08887H87.4434V8.08887H86.4434ZM83.4248 8.08887V7.08887H82.4248V8.08887H83.4248ZM83.4248 11.3867H82.4248V12.3867H83.4248V11.3867ZM86.25 11.3867H87.25V10.3867H86.25V11.3867ZM86.25 14.6953V15.6953H87.25V14.6953H86.25ZM83.4248 14.6953V13.6953H82.4248V14.6953H83.4248ZM83.4248 18.5195H82.4248V19.5195H83.4248V18.5195ZM86.7441 18.5195H87.7441V17.5195H86.7441V18.5195ZM86.7441 22V23H87.7441V22H86.7441ZM78.9023 22H77.9023V23H78.9023V22ZM78.9023 5.6084H86.4434V3.6084H78.9023V5.6084ZM85.4434 4.6084V8.08887H87.4434V4.6084H85.4434ZM86.4434 7.08887H83.4248V9.08887H86.4434V7.08887ZM82.4248 8.08887V11.3867H84.4248V8.08887H82.4248ZM83.4248 12.3867H86.25V10.3867H83.4248V12.3867ZM85.25 11.3867V14.6953H87.25V11.3867H85.25ZM86.25 13.6953H83.4248V15.6953H86.25V13.6953ZM82.4248 14.6953V18.5195H84.4248V14.6953H82.4248ZM83.4248 19.5195H86.7441V17.5195H83.4248V19.5195ZM85.7441 18.5195V22H87.7441V18.5195H85.7441ZM86.7441 21H78.9023V23H86.7441V21ZM79.9023 22V4.6084H77.9023V22H79.9023ZM96.7881 12.2998V13.2998H97.7881V12.2998H96.7881ZM92.9424 12.2998H91.9424V13.2998H92.9424V12.2998ZM92.8242 10.2803L91.8957 10.6517L91.9049 10.6745L91.9152 10.6969L92.8242 10.2803ZM91.7178 10.2588L92.5091 10.8702L92.5156 10.8618L92.5219 10.8532L91.7178 10.2588ZM91.6211 11.9453L90.6571 12.2112L90.6627 12.2314L90.6691 12.2513L91.6211 11.9453ZM92.1689 12.6113L91.5397 13.3886L91.5487 13.3957L92.1689 12.6113ZM94.0488 13.6748L93.6071 14.5719L93.6098 14.5733L94.0488 13.6748ZM96.6699 20.4209L97.56 20.8768L97.5622 20.8724L96.6699 20.4209ZM95.1553 21.7852L95.5649 22.6974L95.5691 22.6955L95.1553 21.7852ZM89.7734 21.7422L89.3704 22.6574L89.3735 22.6587L89.7734 21.7422ZM87.7217 16.9941V15.9941H86.7217V16.9941H87.7217ZM91.5674 16.9941H92.5674V15.9941H91.5674V16.9941ZM91.707 19.3896L90.7806 19.766L90.7856 19.7783L90.7909 19.7905L91.707 19.3896ZM92.9316 19.5078L93.7089 20.137L93.716 20.1282L93.7229 20.1193L92.9316 19.5078ZM92.8779 17.252L93.6151 16.5762L93.6076 16.5681L93.5999 16.56L92.8779 17.252ZM90.3535 15.7266L89.8637 16.5984L89.8672 16.6003L90.3535 15.7266ZM88.0225 13.7822L87.1194 14.2117L87.1215 14.216L88.0225 13.7822ZM88.0547 9.18457L88.9272 9.67318L88.9299 9.66826L88.0547 9.18457ZM89.5801 7.92773L89.2039 7.00116L89.2007 7.00248L89.5801 7.92773ZM94.5 7.85254L94.1533 8.79061L94.1656 8.79497L94.5 7.85254ZM96.0254 8.79785L95.2787 9.46309L95.2854 9.47052L96.0254 8.79785ZM96.6699 9.89355L95.6918 10.1017L95.6939 10.1116L95.6962 10.1214L96.6699 9.89355ZM96.7881 11.2998H92.9424V13.2998H96.7881V11.2998ZM93.9424 12.2998V11.5264H91.9424V12.2998H93.9424ZM93.9424 11.5264C93.9424 11.1812 93.9322 10.8779 93.9084 10.6263C93.8877 10.4087 93.8484 10.1148 93.7333 9.86362L91.9152 10.6969C91.8897 10.6414 91.8883 10.6159 91.8956 10.6521C91.9014 10.6812 91.9096 10.7335 91.9173 10.8151C91.9328 10.9789 91.9424 11.2127 91.9424 11.5264H93.9424ZM93.7527 9.90888C93.4512 9.15503 92.7138 9.01172 92.2656 9.01172V11.0117C92.3292 11.0117 92.2869 11.0231 92.1976 10.9801C92.1482 10.9564 92.0868 10.9169 92.0276 10.8553C91.9676 10.7928 91.9238 10.7219 91.8957 10.6517L93.7527 9.90888ZM92.2656 9.01172C91.7726 9.01172 91.2608 9.19464 90.9136 9.6644L92.5219 10.8532C92.4835 10.9052 92.4255 10.9543 92.3572 10.9851C92.2945 11.0133 92.2557 11.0117 92.2656 11.0117V9.01172ZM90.9265 9.64734C90.6084 10.059 90.5352 10.5615 90.5352 10.9785H92.5352C92.5352 10.8769 92.5451 10.8225 92.5501 10.8028C92.5548 10.7843 92.5496 10.8177 92.5091 10.8702L90.9265 9.64734ZM90.5352 10.9785C90.5352 11.433 90.5623 11.8675 90.6571 12.2112L92.5851 11.6794C92.5653 11.6078 92.5352 11.3978 92.5352 10.9785H90.5352ZM90.6691 12.2513C90.8248 12.7359 91.1965 13.1107 91.5397 13.3886L92.7981 11.8341C92.6834 11.7412 92.6154 11.6716 92.5787 11.6269C92.5402 11.5801 92.5555 11.5843 92.5731 11.6393L90.6691 12.2513ZM91.5487 13.3957C91.9513 13.7141 92.6701 14.1105 93.6071 14.5719L94.4906 12.7777C93.537 12.3081 93.0025 11.9955 92.7892 11.8269L91.5487 13.3957ZM93.6098 14.5733C94.8501 15.1794 95.4807 15.6705 95.7202 16.0013L97.3404 14.8288C96.792 14.0711 95.7683 13.402 94.4879 12.7763L93.6098 14.5733ZM95.7202 16.0013C95.9398 16.3048 96.1211 16.8537 96.1211 17.7891H98.1211C98.1211 16.6476 97.9085 15.6138 97.3404 14.8288L95.7202 16.0013ZM96.1211 17.7891C96.1211 18.8926 95.9731 19.5831 95.7777 19.9694L97.5622 20.8724C97.9683 20.0699 98.1211 19.0059 98.1211 17.7891H96.1211ZM95.7799 19.965C95.5998 20.3166 95.2835 20.6284 94.7415 20.8748L95.5691 22.6955C96.445 22.2974 97.1385 21.6996 97.56 20.8768L95.7799 19.965ZM94.7457 20.8729C94.2046 21.1158 93.5034 21.2578 92.6094 21.2578V23.2578C93.7062 23.2578 94.7023 23.0847 95.5649 22.6974L94.7457 20.8729ZM92.6094 21.2578C91.6067 21.2578 90.8047 21.1011 90.1734 20.8256L89.3735 22.6587C90.3177 23.0707 91.4063 23.2578 92.6094 23.2578V21.2578ZM90.1765 20.827C89.5444 20.5487 89.2181 20.2217 89.0565 19.8985L87.2677 20.7929C87.6933 21.6442 88.4412 22.2482 89.3704 22.6574L90.1765 20.827ZM89.0565 19.8985C88.868 19.5214 88.7217 18.8217 88.7217 17.6816H86.7217C86.7217 18.9192 86.869 19.9956 87.2677 20.7929L89.0565 19.8985ZM88.7217 17.6816V16.9941H86.7217V17.6816H88.7217ZM87.7217 17.9941H91.5674V15.9941H87.7217V17.9941ZM90.5674 16.9941V17.8965H92.5674V16.9941H90.5674ZM90.5674 17.8965C90.5674 18.2962 90.5794 18.6461 90.6066 18.9376C90.6317 19.2057 90.6763 19.5093 90.7806 19.766L92.6335 19.0133C92.6447 19.0408 92.6194 18.981 92.5979 18.7514C92.5787 18.5451 92.5674 18.263 92.5674 17.8965H90.5674ZM90.7909 19.7905C90.9151 20.0743 91.1203 20.3317 91.4174 20.5078C91.7054 20.6784 92.0129 20.7334 92.2871 20.7334V18.7334C92.2748 18.7334 92.3425 18.7311 92.437 18.7872C92.5408 18.8487 92.5993 18.9342 92.6232 18.9888L90.7909 19.7905ZM92.2871 20.7334C92.7187 20.7334 93.3081 20.6321 93.7089 20.137L92.1544 18.8786C92.2296 18.7857 92.3123 18.7459 92.3488 18.7331C92.3777 18.723 92.3656 18.7334 92.2871 18.7334V20.7334ZM93.7229 20.1193C93.9248 19.858 94.0091 19.5566 94.0516 19.3289C94.0974 19.0838 94.1143 18.8121 94.1143 18.5303H92.1143C92.1143 18.7426 92.1007 18.8809 92.0856 18.9616C92.0783 19.0005 92.0732 19.0122 92.0761 19.0047C92.0784 18.9984 92.0953 18.9547 92.1404 18.8964L93.7229 20.1193ZM94.1143 18.5303C94.1143 18.1594 94.0934 17.8155 94.0385 17.5186C93.9899 17.2559 93.8891 16.8751 93.6151 16.5762L92.1408 17.9277C92.1054 17.889 92.083 17.8553 92.0704 17.8336C92.0577 17.812 92.0521 17.7981 92.0513 17.7961C92.0506 17.7942 92.0601 17.8189 92.0718 17.8822C92.0957 18.0115 92.1143 18.2208 92.1143 18.5303H94.1143ZM93.5999 16.56C93.4761 16.4308 93.3092 16.3137 93.1876 16.2315C93.0419 16.133 92.8577 16.0171 92.6405 15.8858C92.2047 15.6225 91.6028 15.2774 90.8399 14.8528L89.8672 16.6003C90.6225 17.0207 91.2004 17.3524 91.6061 17.5976C91.8096 17.7206 91.9616 17.8168 92.0674 17.8883C92.1974 17.9762 92.1974 17.9871 92.1559 17.9439L93.5999 16.56ZM90.8433 14.8547C90.238 14.5146 89.7811 14.2073 89.4552 13.9354C89.1204 13.6561 88.9758 13.4572 88.9235 13.3484L87.1215 14.216C87.3484 14.6874 87.732 15.1025 88.1742 15.4713C88.6253 15.8476 89.1943 16.2223 89.8637 16.5984L90.8433 14.8547ZM88.9255 13.3527C88.7232 12.9273 88.6035 12.3857 88.6035 11.6982H86.6035C86.6035 12.615 86.7632 13.4627 87.1194 14.2117L88.9255 13.3527ZM88.6035 11.6982C88.6035 10.6079 88.7545 9.98162 88.9272 9.67317L87.1822 8.69597C86.7534 9.46173 86.6035 10.5113 86.6035 11.6982H88.6035ZM88.9299 9.66826C89.0957 9.3682 89.4012 9.08187 89.9594 8.85299L89.2007 7.00248C88.3267 7.36084 87.6152 7.9124 87.1794 8.70088L88.9299 9.66826ZM89.9562 8.8543C90.5369 8.61858 91.2426 8.4873 92.0938 8.4873V6.4873C91.0399 6.4873 90.0699 6.64965 89.2039 7.00117L89.9562 8.8543ZM92.0938 8.4873C92.9591 8.4873 93.6365 8.59952 94.1533 8.79053L94.8467 6.91454C94.0458 6.61858 93.119 6.4873 92.0938 6.4873V8.4873ZM94.1656 8.79497C94.7248 8.9934 95.0713 9.23025 95.2787 9.46306L96.7721 8.13265C96.2776 7.57769 95.6072 7.18433 94.8344 6.91011L94.1656 8.79497ZM95.2854 9.47052C95.584 9.79896 95.6719 10.0082 95.6918 10.1017L97.648 9.68545C97.5247 9.10574 97.1829 8.5845 96.7653 8.12518L95.2854 9.47052ZM95.6962 10.1214C95.7474 10.3399 95.7881 10.7698 95.7881 11.4727H97.7881C97.7881 10.7432 97.75 10.1204 97.6436 9.66567L95.6962 10.1214ZM95.7881 11.4727V12.2998H97.7881V11.4727H95.7881ZM102.857 5.84375H103.857V4.84375H102.857V5.84375ZM102.857 8.08887H101.857V9.08887H102.857V8.08887ZM104.028 8.08887H105.028V7.08887H104.028V8.08887ZM104.028 10.3447V11.3447H105.028V10.3447H104.028ZM102.857 10.3447V9.34473H101.857V10.3447H102.857ZM102.997 19.54L102.241 20.195L102.253 20.2089L102.266 20.2224L102.997 19.54ZM104.211 19.7012H105.211V18.7012H104.211V19.7012ZM104.211 22V23H105.211V22H104.211ZM100.344 21.8818L100.144 22.8618L100.152 22.8634L100.16 22.8649L100.344 21.8818ZM99.2266 21.3125L98.5442 22.0436L98.5531 22.0517L99.2266 21.3125ZM98.625 20.292L97.6451 20.4916L97.6459 20.4952L98.625 20.292ZM98.5068 10.3447H99.5068V9.34473H98.5068V10.3447ZM97.5723 10.3447H96.5723V11.3447H97.5723V10.3447ZM97.5723 8.08887V7.08887H96.5723V8.08887H97.5723ZM98.5068 8.08887V9.08887H99.5068V8.08887H98.5068ZM98.5068 5.84375V4.84375H97.5068V5.84375H98.5068ZM101.857 5.84375V8.08887H103.857V5.84375H101.857ZM102.857 9.08887H104.028V7.08887H102.857V9.08887ZM103.028 8.08887V10.3447H105.028V8.08887H103.028ZM104.028 9.34473H102.857V11.3447H104.028V9.34473ZM101.857 10.3447V17.9717H103.857V10.3447H101.857ZM101.857 17.9717C101.857 18.4512 101.869 18.8509 101.896 19.1561C101.91 19.3067 101.929 19.4593 101.96 19.5979C101.978 19.682 102.038 19.9605 102.241 20.195L103.753 18.8851C103.848 18.9952 103.888 19.0952 103.897 19.1205C103.911 19.1558 103.914 19.1745 103.912 19.1652C103.908 19.1463 103.898 19.0894 103.888 18.9787C103.869 18.7611 103.857 18.4303 103.857 17.9717H101.857ZM102.266 20.2224C102.468 20.4388 102.711 20.5267 102.825 20.5632C102.966 20.6081 103.112 20.6347 103.244 20.6522C103.51 20.6875 103.839 20.7012 104.211 20.7012V18.7012C103.873 18.7012 103.646 18.6879 103.507 18.6696C103.437 18.6602 103.419 18.6532 103.433 18.6579C103.442 18.6606 103.474 18.6713 103.519 18.6953C103.562 18.7181 103.644 18.7673 103.728 18.8577L102.266 20.2224ZM103.211 19.7012V22H105.211V19.7012H103.211ZM104.211 21H102.46V23H104.211V21ZM102.46 21C101.475 21 100.851 20.9591 100.527 20.8988L100.16 22.8649C100.682 22.9621 101.468 23 102.46 23V21ZM100.543 20.9019C100.299 20.8524 100.09 20.7468 99.9001 20.5733L98.5531 22.0517C99.0072 22.4655 99.543 22.7394 100.144 22.8618L100.543 20.9019ZM99.9089 20.5814C99.7162 20.4016 99.6353 20.2389 99.6041 20.0888L97.6459 20.4952C97.7723 21.1042 98.0924 21.6218 98.5442 22.0436L99.9089 20.5814ZM99.6049 20.0924C99.5504 19.8249 99.5068 19.0335 99.5068 17.585H97.5068C97.5068 18.9723 97.5421 19.9856 97.6451 20.4916L99.6049 20.0924ZM99.5068 17.585V10.3447H97.5068V17.585H99.5068ZM98.5068 9.34473H97.5723V11.3447H98.5068V9.34473ZM98.5723 10.3447V8.08887H96.5723V10.3447H98.5723ZM97.5723 9.08887H98.5068V7.08887H97.5723V9.08887ZM99.5068 8.08887V5.84375H97.5068V8.08887H99.5068ZM98.5068 6.84375H102.857V4.84375H98.5068V6.84375ZM114.921 7.74512H115.921V6.74512H114.921V7.74512ZM114.921 22V23H115.921V22H114.921ZM110.506 22L109.508 21.9365L109.44 23H110.506V22ZM110.581 20.8184L111.579 20.8819L109.734 20.2872L110.581 20.8184ZM109.464 21.9033L109.94 22.7829L109.945 22.7801L109.464 21.9033ZM105.371 21.001L104.487 21.4681L104.49 21.4746L104.494 21.481L105.371 21.001ZM104.995 19.8193L104.002 19.9392L104.003 19.9412L104.995 19.8193ZM104.92 7.74512V6.74512H103.92V7.74512H104.92ZM109.26 7.74512H110.26V6.74512H109.26V7.74512ZM109.356 19.4219L108.401 19.7183L108.406 19.7331L108.411 19.7479L109.356 19.4219ZM110.484 19.4111L109.527 19.1238L109.522 19.1386L109.518 19.1535L110.484 19.4111ZM110.581 7.74512V6.74512H109.581V7.74512H110.581ZM113.921 7.74512V22H115.921V7.74512H113.921ZM114.921 21H110.506V23H114.921V21ZM111.504 22.0635L111.579 20.8819L109.583 20.7549L109.508 21.9365L111.504 22.0635ZM109.734 20.2872C109.513 20.6399 109.26 20.8744 108.983 21.0265L109.945 22.7801C110.555 22.4452 111.048 21.9565 111.428 21.3495L109.734 20.2872ZM108.988 21.0238C108.718 21.1697 108.382 21.2578 107.949 21.2578V23.2578C108.663 23.2578 109.336 23.1096 109.94 22.7829L108.988 21.0238ZM107.949 21.2578C107.408 21.2578 107.042 21.1619 106.798 21.0317L105.857 22.7964C106.472 23.1245 107.187 23.2578 107.949 23.2578V21.2578ZM106.798 21.0317C106.518 20.8823 106.351 20.7088 106.248 20.521L104.494 21.481C104.806 22.0523 105.277 22.4875 105.857 22.7964L106.798 21.0317ZM106.255 20.5339C106.109 20.2571 106.022 19.9797 105.988 19.6974L104.003 19.9412C104.068 20.4754 104.232 20.9858 104.487 21.4681L106.255 20.5339ZM105.988 19.6995C105.946 19.3534 105.92 18.593 105.92 17.3594H103.92C103.92 18.575 103.944 19.4545 104.002 19.9392L105.988 19.6995ZM105.92 17.3594V7.74512H103.92V17.3594H105.92ZM104.92 8.74512H109.26V6.74512H104.92V8.74512ZM108.26 7.74512V17.4453H110.26V7.74512H108.26ZM108.26 17.4453C108.26 18.0073 108.268 18.4679 108.285 18.8208C108.3 19.1272 108.325 19.4729 108.401 19.7183L110.312 19.1255C110.325 19.1679 110.319 19.1655 110.308 19.0706C110.299 18.9905 110.29 18.8764 110.283 18.7231C110.268 18.4172 110.26 17.9934 110.26 17.4453H108.26ZM108.411 19.7479C108.524 20.0766 108.748 20.3532 109.063 20.5289C109.353 20.691 109.66 20.7334 109.915 20.7334V18.7334C109.869 18.7334 109.932 18.7239 110.037 18.7822C110.093 18.8132 110.151 18.8589 110.202 18.9206C110.253 18.9819 110.284 19.0441 110.302 19.0959L108.411 19.7479ZM109.915 20.7334C110.172 20.7334 110.492 20.693 110.792 20.5231C111.125 20.3342 111.354 20.03 111.451 19.6688L109.518 19.1535C109.534 19.0922 109.566 19.0174 109.623 18.9437C109.68 18.8697 109.746 18.8169 109.806 18.7826C109.917 18.7201 109.98 18.7334 109.915 18.7334V20.7334ZM111.442 19.6985C111.516 19.4527 111.541 19.0999 111.556 18.7783C111.573 18.4103 111.581 17.9281 111.581 17.3379H109.581C109.581 17.915 109.573 18.362 109.558 18.6851C109.541 19.0546 109.517 19.1547 109.527 19.1238L111.442 19.6985ZM111.581 17.3379V7.74512H109.581V17.3379H111.581ZM110.581 8.74512H114.921V6.74512H110.581V8.74512ZM126.351 4.6084H127.351V3.6084H126.351V4.6084ZM126.351 22V23H127.351V22H126.351ZM122.011 22H121.011V23H122.011V22ZM122.011 20.9688H123.011V18.4955L121.292 20.2737L122.011 20.9688ZM117.51 21.7314L116.923 22.5412L116.931 22.5468L117.51 21.7314ZM116.554 20.4961L115.594 20.7767L115.598 20.7902L116.554 20.4961ZM116.554 9.2168L115.599 8.91852L115.597 8.92535L115.595 8.9322L116.554 9.2168ZM117.521 8.01367L118.086 8.83844L118.094 8.8329L117.521 8.01367ZM120.786 7.77734L120.387 8.69419L120.392 8.69649L120.786 7.77734ZM122.011 8.64746L121.284 9.33408L123.011 11.1627V8.64746H122.011ZM122.011 4.6084V3.6084H121.011V4.6084H122.011ZM121.871 10.2803L120.97 10.713L120.976 10.7274L120.984 10.7416L121.871 10.2803ZM120.818 10.2588L119.948 9.76673L119.944 9.77331L119.94 9.77994L120.818 10.2588ZM120.818 19.4648L119.91 19.8839L119.914 19.8908L119.917 19.8976L120.818 19.4648ZM121.871 19.4326L122.778 19.8538L122.784 19.8417L121.871 19.4326ZM125.351 4.6084V22H127.351V4.6084H125.351ZM126.351 21H122.011V23H126.351V21ZM123.011 22V20.9688H121.011V22H123.011ZM121.292 20.2737C120.946 20.6314 120.606 20.8753 120.276 21.0301L121.125 22.841C121.711 22.5661 122.245 22.1655 122.73 21.6638L121.292 20.2737ZM120.276 21.0301C119.949 21.1833 119.614 21.2578 119.261 21.2578V23.2578C119.91 23.2578 120.535 23.1175 121.125 22.841L120.276 21.0301ZM119.261 21.2578C118.771 21.2578 118.395 21.1337 118.089 20.9161L116.931 22.5468C117.613 23.031 118.404 23.2578 119.261 23.2578V21.2578ZM118.097 20.9217C117.733 20.6583 117.574 20.4126 117.509 20.202L115.598 20.7902C115.82 21.5106 116.298 22.0885 116.923 22.5412L118.097 20.9217ZM117.514 20.2155C117.42 19.8968 117.35 19.2607 117.35 18.2188H115.35C115.35 19.2822 115.415 20.1644 115.594 20.7767L117.514 20.2155ZM117.35 18.2188V11.5479H115.35V18.2188H117.35ZM117.35 11.5479C117.35 10.4568 117.421 9.80824 117.512 9.5014L115.595 8.9322C115.414 9.54202 115.35 10.4475 115.35 11.5479H117.35ZM117.508 9.51507C117.568 9.32236 117.72 9.08957 118.086 8.8384L116.955 7.18894C116.319 7.62528 115.825 8.19457 115.599 8.91852L117.508 9.51507ZM118.094 8.8329C118.405 8.61515 118.796 8.4873 119.314 8.4873V6.4873C118.443 6.4873 117.639 6.71038 116.947 7.19444L118.094 8.8329ZM119.314 8.4873C119.729 8.4873 120.082 8.56138 120.387 8.69418L121.185 6.86051C120.602 6.60659 119.974 6.4873 119.314 6.4873V8.4873ZM120.392 8.69649C120.707 8.83157 121.005 9.03843 121.284 9.33408L122.738 7.96084C122.287 7.48305 121.767 7.10984 121.18 6.8582L120.392 8.69649ZM123.011 8.64746V4.6084H121.011V8.64746H123.011ZM122.011 5.6084H126.351V3.6084H122.011V5.6084ZM123.011 11.333C123.011 11.0463 122.998 10.7805 122.967 10.5462C122.938 10.3289 122.884 10.0613 122.758 9.81892L120.984 10.7416C120.963 10.7021 120.96 10.6833 120.965 10.7016C120.969 10.7176 120.977 10.7518 120.985 10.8092C121 10.9259 121.011 11.097 121.011 11.333H123.011ZM122.773 9.84754C122.463 9.20345 121.843 9.01172 121.345 9.01172V11.0117C121.371 11.0117 121.314 11.0171 121.221 10.9696C121.111 10.9139 121.021 10.8193 120.97 10.713L122.773 9.84754ZM121.345 9.01172C120.875 9.01172 120.281 9.17746 119.948 9.76673L121.689 10.7508C121.631 10.8538 121.54 10.934 121.445 10.9787C121.363 11.017 121.316 11.0117 121.345 11.0117V9.01172ZM119.94 9.77994C119.802 10.0341 119.753 10.3225 119.729 10.5264C119.701 10.7602 119.689 11.0329 119.689 11.333H121.689C121.689 11.0745 121.7 10.8889 121.715 10.7647C121.722 10.7031 121.729 10.6695 121.732 10.6571C121.736 10.6396 121.73 10.6761 121.696 10.7376L119.94 9.77994ZM119.689 11.333V18.3154H121.689V11.333H119.689ZM119.689 18.3154C119.689 18.6262 119.701 18.9073 119.728 19.1493C119.753 19.371 119.799 19.6422 119.91 19.8839L121.726 19.0458C121.744 19.0832 121.744 19.0965 121.737 19.0674C121.731 19.0417 121.723 18.9963 121.715 18.9264C121.7 18.7853 121.689 18.5848 121.689 18.3154H119.689ZM119.917 19.8976C120.045 20.1647 120.25 20.3936 120.529 20.5449C120.795 20.6896 121.072 20.7334 121.312 20.7334V18.7334C121.313 18.7334 121.317 18.7334 121.324 18.7342C121.332 18.7349 121.344 18.7365 121.359 18.7398C121.389 18.7465 121.433 18.7603 121.484 18.7876C121.597 18.8494 121.678 18.9441 121.72 19.0321L119.917 19.8976ZM121.312 20.7334C121.566 20.7334 121.858 20.6884 122.136 20.5387C122.428 20.3813 122.645 20.1403 122.778 19.8537L120.964 19.0115C121.004 18.9254 121.081 18.8348 121.188 18.7777C121.279 18.7283 121.338 18.7334 121.312 18.7334V20.7334ZM122.784 19.8417C122.903 19.575 122.947 19.2534 122.972 18.9933C122.999 18.6997 123.011 18.3416 123.011 17.9287H121.011C121.011 18.3107 120.999 18.6008 120.98 18.8084C120.97 18.912 120.96 18.9833 120.951 19.0285C120.941 19.0808 120.938 19.0688 120.959 19.0236L122.784 19.8417ZM123.011 17.9287V11.333H121.011V17.9287H123.011ZM132.377 4.6084H133.377V3.6084H132.377V4.6084ZM132.377 6.875V7.875H133.377V6.875H132.377ZM127.908 6.875H126.908V7.875H127.908V6.875ZM127.908 4.6084V3.6084H126.908V4.6084H127.908ZM132.377 7.74512H133.377V6.74512H132.377V7.74512ZM132.377 22V23H133.377V22H132.377ZM127.908 22H126.908V23H127.908V22ZM127.908 7.74512V6.74512H126.908V7.74512H127.908ZM131.377 4.6084V6.875H133.377V4.6084H131.377ZM132.377 5.875H127.908V7.875H132.377V5.875ZM128.908 6.875V4.6084H126.908V6.875H128.908ZM127.908 5.6084H132.377V3.6084H127.908V5.6084ZM131.377 7.74512V22H133.377V7.74512H131.377ZM132.377 21H127.908V23H132.377V21ZM128.908 22V7.74512H126.908V22H128.908ZM127.908 8.74512H132.377V6.74512H127.908V8.74512ZM143.57 19.0674L144.548 19.2793L144.548 19.2769L143.57 19.0674ZM142.743 20.7432L143.517 21.377L143.521 21.3717L142.743 20.7432ZM141.11 21.8926L141.457 22.8306L141.463 22.8285L141.11 21.8926ZM136.395 21.9463L136.088 22.898L136.097 22.901L136.395 21.9463ZM134.837 20.9902L134.075 21.6379L134.081 21.6447L134.087 21.6514L134.837 20.9902ZM134.053 19.4434L133.085 19.6939L133.085 19.6967L134.053 19.4434ZM141.153 7.92773L140.764 8.8489L140.775 8.85358L141.153 7.92773ZM143.549 10.4951L142.585 10.7606L142.588 10.7735L143.549 10.4951ZM139.306 10.3018L138.379 10.6791L138.385 10.6914L139.306 10.3018ZM138.285 10.3018L139.193 10.7208L139.196 10.7144L139.199 10.7079L138.285 10.3018ZM138.285 19.4326L137.361 19.815L137.366 19.8265L138.285 19.4326ZM139.295 19.4541L138.387 19.035L138.38 19.0496L138.374 19.0645L139.295 19.4541ZM142.764 12.751V16.2422H144.764V12.751H142.764ZM142.764 16.2422C142.764 17.5123 142.698 18.3654 142.593 18.8579L144.548 19.2769C144.7 18.5663 144.764 17.5359 144.764 16.2422H142.764ZM142.593 18.8554C142.501 19.2818 142.3 19.7002 141.965 20.1146L143.521 21.3717C144.031 20.7405 144.382 20.0418 144.548 19.2793L142.593 18.8554ZM141.97 20.1093C141.666 20.4798 141.271 20.7636 140.758 20.9567L141.463 22.8285C142.282 22.5203 142.975 22.0378 143.517 21.377L141.97 20.1093ZM140.764 20.9546C140.238 21.149 139.6 21.2578 138.833 21.2578V23.2578C139.785 23.2578 140.665 23.1231 141.457 22.8306L140.764 20.9546ZM138.833 21.2578C137.939 21.2578 137.233 21.1604 136.692 20.9916L136.097 22.901C136.888 23.1476 137.807 23.2578 138.833 23.2578V21.2578ZM136.702 20.9946C136.165 20.8217 135.815 20.5875 135.587 20.329L134.087 21.6514C134.604 22.238 135.292 22.6412 136.088 22.898L136.702 20.9946ZM135.599 20.3426C135.34 20.0386 135.144 19.6615 135.02 19.19L133.085 19.6967C133.277 20.4284 133.603 21.0825 134.075 21.6379L135.599 20.3426ZM135.021 19.1928C134.896 18.71 134.816 17.9032 134.816 16.7148H132.816C132.816 17.9471 132.894 18.9593 133.085 19.6939L135.021 19.1928ZM134.816 16.7148V13.0625H132.816V16.7148H134.816ZM134.816 13.0625C134.816 11.7902 134.957 10.8962 135.179 10.317L133.313 9.59903C132.963 10.5094 132.816 11.6851 132.816 13.0625H134.816ZM135.179 10.317C135.379 9.79828 135.738 9.36682 136.311 9.01937L135.275 7.30875C134.359 7.86365 133.686 8.62815 133.313 9.59903L135.179 10.317ZM136.311 9.01937C136.856 8.68933 137.614 8.4873 138.65 8.4873V6.4873C137.367 6.4873 136.22 6.73645 135.275 7.30875L136.311 9.01937ZM138.65 8.4873C139.528 8.4873 140.223 8.62006 140.764 8.84883L141.543 7.00664C140.695 6.64816 139.721 6.4873 138.65 6.4873V8.4873ZM140.775 8.85358C141.362 9.09307 141.751 9.38141 142 9.6876L143.55 8.42373C143.041 7.79893 142.348 7.33532 141.531 7.00189L140.775 8.85358ZM142 9.6876C142.307 10.0637 142.491 10.4215 142.585 10.7606L144.513 10.2296C144.334 9.5805 144.003 8.97861 143.55 8.42373L142 9.6876ZM142.588 10.7735C142.691 11.1272 142.764 11.7633 142.764 12.751H144.764C144.764 11.7192 144.693 10.8513 144.509 10.2167L142.588 10.7735ZM140.424 11.6768C140.424 11.2974 140.414 10.9687 140.391 10.6995C140.37 10.4647 140.333 10.1637 140.227 9.91212L138.385 10.6914C138.364 10.6423 138.365 10.6257 138.374 10.6728C138.381 10.7123 138.39 10.7764 138.398 10.8708C138.414 11.06 138.424 11.3256 138.424 11.6768H140.424ZM140.232 9.92446C140.115 9.63807 139.911 9.38513 139.618 9.21712C139.341 9.05769 139.049 9.01172 138.801 9.01172V11.0117C138.81 11.0117 138.731 11.0141 138.622 10.9513C138.498 10.88 138.417 10.7721 138.38 10.6791L140.232 9.92446ZM138.801 9.01172C138.551 9.01172 138.263 9.05812 137.988 9.21265C137.701 9.37441 137.495 9.6175 137.371 9.89562L139.199 10.7079C139.161 10.7927 139.084 10.8907 138.969 10.9558C138.866 11.0137 138.792 11.0117 138.801 11.0117V9.01172ZM137.377 9.8827C137.257 10.1437 137.215 10.455 137.193 10.6918C137.167 10.9645 137.156 11.2961 137.156 11.6768H139.156C139.156 11.3269 139.167 11.0641 139.184 10.8785C139.193 10.7859 139.202 10.7247 139.209 10.6885C139.218 10.6448 139.218 10.6667 139.193 10.7208L137.377 9.8827ZM137.156 11.6768V18.1113H139.156V11.6768H137.156ZM137.156 18.1113C137.156 18.4655 137.167 18.7792 137.193 19.0436C137.217 19.2863 137.26 19.5696 137.361 19.815L139.209 19.0503C139.225 19.088 139.203 19.0472 139.184 18.8494C139.167 18.6735 139.156 18.4303 139.156 18.1113H137.156ZM137.366 19.8265C137.482 20.0979 137.678 20.3468 137.964 20.5173C138.241 20.6821 138.534 20.7334 138.79 20.7334V18.7334C138.795 18.7334 138.879 18.7346 138.988 18.7991C139.105 18.8693 139.174 18.9679 139.204 19.0387L137.366 19.8265ZM138.79 20.7334C139.033 20.7334 139.319 20.6903 139.594 20.5386C139.884 20.3779 140.094 20.1316 140.216 19.8437L138.374 19.0645C138.417 18.9628 138.503 18.8561 138.626 18.7885C138.732 18.7299 138.805 18.7334 138.79 18.7334V20.7334ZM140.203 19.8732C140.317 19.6264 140.362 19.3454 140.386 19.1202C140.413 18.8711 140.424 18.5781 140.424 18.251H138.424C138.424 18.5398 138.414 18.7552 138.397 18.9071C138.389 18.9825 138.381 19.0316 138.375 19.0598C138.367 19.0921 138.368 19.0766 138.387 19.035L140.203 19.8732ZM140.424 18.251V11.6768H138.424V18.251H140.424Z" fill="#FBFBFB" mask="url(#path-1-outside-1_87_511)"/>
<path d="M0.902344 4.6084H4.28613C6.47038 4.6084 7.94564 4.70866 8.71191 4.90918C9.48535 5.1097 10.0726 5.43913 10.4736 5.89746C10.8747 6.35579 11.1253 6.86784 11.2256 7.43359C11.3258 7.99219 11.376 9.09505 11.376 10.7422V16.833C11.376 18.3942 11.3008 19.4398 11.1504 19.9697C11.0072 20.4925 10.7529 20.9043 10.3877 21.2051C10.0225 21.4987 9.57129 21.7064 9.03418 21.8281C8.49707 21.9427 7.68783 22 6.60645 22H0.902344V4.6084ZM5.4248 7.58398V19.0244C6.0765 19.0244 6.47754 18.8955 6.62793 18.6377C6.77832 18.3727 6.85352 17.6602 6.85352 16.5V9.74316C6.85352 8.9554 6.82845 8.45052 6.77832 8.22852C6.72819 8.00651 6.61361 7.84538 6.43457 7.74512C6.25553 7.6377 5.91895 7.58398 5.4248 7.58398ZM16.8115 13.2666H12.7402V12.3105C12.7402 11.2077 12.8656 10.359 13.1162 9.76465C13.374 9.16309 13.8861 8.63314 14.6523 8.1748C15.4186 7.71647 16.4141 7.4873 17.6387 7.4873C19.1068 7.4873 20.2132 7.7487 20.958 8.27148C21.7028 8.78711 22.1504 9.42448 22.3008 10.1836C22.4512 10.9355 22.5264 12.4896 22.5264 14.8457V22H18.3047V20.7324C18.0397 21.2409 17.696 21.624 17.2734 21.8818C16.8581 22.1325 16.3604 22.2578 15.7803 22.2578C15.0212 22.2578 14.3229 22.0465 13.6855 21.624C13.0553 21.1943 12.7402 20.2598 12.7402 18.8203V17.6494C12.7402 16.5824 12.9085 15.8555 13.2451 15.4688C13.5817 15.082 14.416 14.6309 15.748 14.1152C17.1732 13.5566 17.9359 13.1807 18.0361 12.9873C18.1364 12.7939 18.1865 12.4001 18.1865 11.8057C18.1865 11.0609 18.1292 10.5775 18.0146 10.3555C17.9072 10.1263 17.7246 10.0117 17.4668 10.0117C17.1732 10.0117 16.9906 10.1084 16.9189 10.3018C16.8473 10.488 16.8115 10.9785 16.8115 11.7734V13.2666ZM18.1865 15.2217C17.4919 15.7301 17.0872 16.1562 16.9727 16.5C16.8652 16.8438 16.8115 17.3379 16.8115 17.9824C16.8115 18.7201 16.8581 19.1963 16.9512 19.4111C17.0514 19.626 17.2448 19.7334 17.5312 19.7334C17.8034 19.7334 17.9788 19.651 18.0576 19.4863C18.1436 19.3145 18.1865 18.8704 18.1865 18.1543V15.2217ZM33.8594 7.74512V24.0303H29.5195V20.8506C29.097 21.4665 28.7067 21.8532 28.3486 22.0107C27.9977 22.1755 27.5609 22.2578 27.0381 22.2578C26.279 22.2578 25.6488 22.0788 25.1475 21.7207C24.6533 21.3626 24.3203 20.9007 24.1484 20.335C23.9766 19.762 23.8906 18.8883 23.8906 17.7139V11.4297C23.8906 10.4629 23.9551 9.74316 24.084 9.27051C24.2129 8.79069 24.5208 8.37533 25.0078 8.02441C25.502 7.66634 26.0856 7.4873 26.7588 7.4873C27.3031 7.4873 27.8044 7.60905 28.2627 7.85254C28.721 8.09603 29.14 8.46484 29.5195 8.95898L29.5947 7.74512H33.8594ZM29.5195 11.623C29.5195 10.9928 29.4694 10.5667 29.3691 10.3447C29.276 10.1227 29.1042 10.0117 28.8535 10.0117C28.61 10.0117 28.4453 10.1084 28.3594 10.3018C28.2734 10.4951 28.2305 10.9355 28.2305 11.623V17.9717C28.2305 18.738 28.2734 19.2249 28.3594 19.4326C28.4453 19.6331 28.6208 19.7334 28.8857 19.7334C29.1364 19.7334 29.3047 19.6296 29.3906 19.4219C29.4766 19.207 29.5195 18.7451 29.5195 18.0361V11.623ZM45.3643 7.74512V22H40.9492L41.0244 20.8184C40.7236 21.2982 40.3512 21.6598 39.9072 21.9033C39.4704 22.1396 38.9655 22.2578 38.3926 22.2578C37.7409 22.2578 37.2002 22.1432 36.7705 21.9141C36.3408 21.6849 36.0221 21.3805 35.8145 21.001C35.6139 20.6214 35.4886 20.2275 35.4385 19.8193C35.3883 19.404 35.3633 18.584 35.3633 17.3594V7.74512H39.7031V17.4453C39.7031 18.5553 39.7354 19.2142 39.7998 19.4219C39.8714 19.6296 40.0576 19.7334 40.3584 19.7334C40.6807 19.7334 40.8704 19.626 40.9277 19.4111C40.9922 19.1963 41.0244 18.5052 41.0244 17.3379V7.74512H45.3643ZM51.3906 4.6084V6.875H46.9219V4.6084H51.3906ZM51.3906 7.74512V22H46.9219V7.74512H51.3906ZM57.374 7.74512L57.2988 9.05566C57.6139 8.53288 57.9971 8.14258 58.4482 7.88477C58.9066 7.61979 59.4329 7.4873 60.0273 7.4873C60.7721 7.4873 61.3809 7.66276 61.8535 8.01367C62.3262 8.36458 62.6305 8.80859 62.7666 9.3457C62.9027 9.87565 62.9707 10.7637 62.9707 12.0098V22H58.6309V12.1279C58.6309 11.1468 58.5986 10.5488 58.5342 10.334C58.4697 10.1191 58.2907 10.0117 57.9971 10.0117C57.6891 10.0117 57.4958 10.137 57.417 10.3877C57.3382 10.6312 57.2988 11.29 57.2988 12.3643V22H52.959V7.74512H57.374ZM74.293 12.751V16.2422C74.293 17.5241 74.2285 18.4658 74.0996 19.0674C73.9707 19.6618 73.695 20.2204 73.2725 20.7432C72.8499 21.2588 72.3057 21.6419 71.6396 21.8926C70.9808 22.1361 70.2217 22.2578 69.3623 22.2578C68.4027 22.2578 67.5898 22.154 66.9238 21.9463C66.2578 21.7314 65.7386 21.4128 65.3662 20.9902C65.001 20.5605 64.7396 20.0449 64.582 19.4434C64.4245 18.8346 64.3457 17.9251 64.3457 16.7148V13.0625C64.3457 11.7376 64.4889 10.7028 64.7754 9.95801C65.0618 9.21322 65.5775 8.61523 66.3223 8.16406C67.0671 7.71289 68.0195 7.4873 69.1797 7.4873C70.1536 7.4873 70.988 7.63411 71.6826 7.92773C72.3844 8.21419 72.9251 8.59017 73.3047 9.05566C73.6842 9.52116 73.9421 10.001 74.0781 10.4951C74.2214 10.9893 74.293 11.7412 74.293 12.751ZM69.9531 11.6768C69.9531 10.9463 69.9137 10.488 69.835 10.3018C69.7562 10.1084 69.5879 10.0117 69.3301 10.0117C69.0723 10.0117 68.9004 10.1084 68.8145 10.3018C68.7285 10.488 68.6855 10.9463 68.6855 11.6768V18.1113C68.6855 18.7845 68.7285 19.2249 68.8145 19.4326C68.9004 19.6331 69.0687 19.7334 69.3193 19.7334C69.5771 19.7334 69.7454 19.6403 69.8242 19.4541C69.9102 19.2679 69.9531 18.8669 69.9531 18.251V11.6768Z" fill="#FBFBFB"/>
</svg>
