<?xml version="1.0" encoding="UTF-8"?>
<svg xmlns="http://www.w3.org/2000/svg" viewBox="0 0 1114.54 1141.5">
  <defs>
    <style>
      .cls-1 {
        fill: #735f4f;
      }

      .cls-1, .cls-2, .cls-3, .cls-4, .cls-5, .cls-6, .cls-7, .cls-8, .cls-9, .cls-10, .cls-11, .cls-12, .cls-13, .cls-14 {
        stroke-width: 0px;
      }

      .cls-2, .cls-3 {
        fill: #e3533f;
      }

      .cls-2, .cls-15 {
        mix-blend-mode: multiply;
        opacity: .9;
      }

      .cls-4 {
        fill: #5d4a44;
      }

      .cls-16 {
        isolation: isolate;
      }

      .cls-5 {
        fill: #edd8ac;
      }

      .cls-6 {
        fill: #e5d3b3;
      }

      .cls-7 {
        fill: #f4f4f4;
      }

      .cls-8 {
        fill: #bab8bd;
      }

      .cls-9 {
        fill: #f2ac4c;
      }

      .cls-10 {
        fill: #4c3d39;
      }

      .cls-11 {
        fill: #efcea8;
      }

      .cls-12 {
        fill: #ddb354;
      }

      .cls-13 {
        fill: #3d9994;
      }

      .cls-14 {
        fill: #848c8c;
      }
    </style>
  </defs>
  <g class="cls-16">
    <g id="Capa_2" data-name="Capa 2">
      <g id="Layer_1" data-name="Layer 1">
        <g class="cls-15">
          <path class="cls-4" d="M949.99,215.47c-53.05,0-96.04-40.47-96.04-90.4,0-49.91,43.01-90.39,96.04-90.38,53.05,0,96.05,40.48,96.05,90.39,0,49.92-43,90.39-96.05,90.39Z"/>
          <g>
            <rect class="cls-3" x="913.28" y="164.15" width="11.55" height="11.08"/>
            <polygon class="cls-3" points="924.83 104.67 913.29 104.67 913.29 115.75 924.82 115.75 924.83 104.67"/>
            <polygon class="cls-3" points="1021.58 100.88 1033.11 100.89 1033.12 89.8 1021.56 89.79 1021.58 100.88"/>
            <rect class="cls-3" x="944.22" y="193.89" width="11.55" height="11.09"/>
            <polygon class="cls-3" points="909.35 115.74 909.36 104.67 897.81 104.66 897.81 115.75 909.35 115.74"/>
            <rect class="cls-3" x="913.29" y="89.79" width="11.53" height="11.1"/>
            <path class="cls-3" d="M878.41,86.01v-11.1s-8.32.01-8.32.01c-1.13,1.58-2.19,3.22-3.22,4.88v6.2h11.54Z"/>
            <polygon class="cls-3" points="893.89 134.41 882.34 134.41 882.35 145.51 893.88 145.49 893.89 134.41"/>
            <path class="cls-3" d="M878.41,175.24v-11.09s-11.52,0-11.52,0v6.21c1.01,1.65,2.08,3.3,3.21,4.87h8.32Z"/>
            <polygon class="cls-3" points="944.22 149.28 944.22 160.37 955.77 160.37 955.77 149.27 944.22 149.28"/>
            <rect class="cls-3" x="928.76" y="149.28" width="11.53" height="11.09"/>
            <rect class="cls-3" x="959.7" y="149.27" width="11.53" height="11.1"/>
            <rect class="cls-3" x="882.35" y="104.67" width="11.54" height="11.08"/>
            <polygon class="cls-3" points="924.83 119.53 913.29 119.54 913.29 130.62 924.82 130.62 924.83 119.53"/>
            <polygon class="cls-3" points="975.15 149.27 975.16 160.37 986.7 160.37 986.71 149.28 975.15 149.27"/>
            <rect class="cls-3" x="913.29" y="149.28" width="11.54" height="11.1" transform="translate(-.16 .95) rotate(-.06)"/>
            <polygon class="cls-3" points="924.82 134.4 913.29 134.41 913.29 145.5 924.82 145.51 924.82 134.4"/>
            <path class="cls-3" d="M1027.06,71.14c-1.72-2.18-3.57-4.28-5.5-6.32v6.31s5.5,0,5.5,0Z"/>
            <polygon class="cls-3" points="893.88 119.53 882.35 119.53 882.35 130.63 893.88 130.62 893.88 119.53"/>
            <rect class="cls-3" x="928.76" y="193.89" width="11.54" height="11.09"/>
            <rect class="cls-3" x="975.16" y="119.54" width="11.55" height="11.08"/>
            <rect class="cls-3" x="1021.57" y="134.41" width="11.54" height="11.09"/>
            <rect class="cls-3" x="975.16" y="193.89" width="11.54" height="11.09"/>
            <rect class="cls-3" x="1021.57" y="119.54" width="11.54" height="11.08"/>
            <rect class="cls-3" x="975.16" y="134.4" width="11.54" height="11.1"/>
            <rect class="cls-3" x="975.16" y="104.67" width="11.53" height="11.09"/>
            <path class="cls-3" d="M1002.17,193.88h-11.53s0,11.1,0,11.1h4.23c2.51-1.25,4.93-2.59,7.3-4.04v-7.07Z"/>
            <path class="cls-3" d="M887.77,193.89c1.97,1.59,4.01,3.09,6.12,4.52v-4.52s-6.12,0-6.12,0Z"/>
            <rect class="cls-3" x="897.82" y="134.39" width="11.54" height="11.1" transform="translate(-.16 1.04) rotate(-.07)"/>
            <rect class="cls-3" x="1021.57" y="149.28" width="11.54" height="11.09"/>
            <path class="cls-3" d="M909.35,193.89h-11.53v7.05c2.36,1.46,4.79,2.8,7.29,4.04h4.24v-11.09Z"/>
            <polygon class="cls-3" points="1021.57 115.76 1033.11 115.75 1033.11 104.67 1021.57 104.66 1021.57 115.76"/>
            <rect class="cls-3" x="897.81" y="164.15" width="11.55" height="11.08"/>
            <rect class="cls-3" x="928.76" y="89.8" width="11.54" height="11.08"/>
            <polygon class="cls-3" points="955.76 100.88 955.76 89.79 944.22 89.79 944.22 100.88 955.76 100.88"/>
            <rect class="cls-3" x="975.16" y="89.79" width="11.54" height="11.08"/>
            <rect class="cls-3" x="897.82" y="149.27" width="11.54" height="11.1"/>
            <polygon class="cls-3" points="913.29 193.89 913.27 204.97 924.82 204.98 924.83 193.89 913.29 193.89"/>
            <polygon class="cls-3" points="971.23 100.88 971.23 89.79 959.7 89.79 959.7 100.89 971.23 100.88"/>
            <polygon class="cls-3" points="986.7 86.01 986.69 74.91 975.16 74.93 975.16 86.01 986.7 86.01"/>
            <polygon class="cls-3" points="878.42 134.41 866.89 134.41 866.88 145.49 878.42 145.5 878.42 134.41"/>
            <polygon class="cls-3" points="955.77 86.01 955.77 74.92 944.22 74.92 944.22 86.01 955.77 86.01"/>
            <rect class="cls-3" x="866.89" y="149.27" width="11.53" height="11.1"/>
            <polygon class="cls-3" points="971.23 86 971.22 74.92 959.69 74.92 959.7 86 971.23 86"/>
            <path class="cls-3" d="M1021.57,164.16v11.08h8.31c1.13-1.58,2.19-3.23,3.22-4.88v-6.21h-11.53Z"/>
            <rect class="cls-3" x="866.88" y="89.79" width="11.54" height="11.09"/>
            <rect class="cls-3" x="866.88" y="104.66" width="11.54" height="11.08"/>
            <rect class="cls-3" x="975.15" y="45.17" width="11.55" height="11.1"/>
            <path class="cls-3" d="M990.63,56.27h11.54s0-7.06,0-7.06c-2.36-1.44-4.79-2.79-7.28-4.02h-4.26s0,11.09,0,11.09Z"/>
            <polygon class="cls-3" points="878.43 119.54 866.88 119.52 866.88 130.62 878.42 130.62 878.43 119.54"/>
            <polygon class="cls-3" points="1002.18 86.01 1002.18 74.92 990.63 74.92 990.63 86.01 1002.18 86.01"/>
            <rect class="cls-3" x="990.63" y="104.66" width="11.55" height="11.09"/>
            <polygon class="cls-3" points="990.62 100.88 1002.16 100.87 1002.16 89.79 990.64 89.8 990.62 100.88"/>
            <path class="cls-3" d="M872.92,179.02c1.73,2.19,3.56,4.28,5.49,6.31v-6.31s-5.49,0-5.49,0Z"/>
            <polygon class="cls-3" points="990.63 134.4 990.62 145.49 1002.18 145.51 1002.17 134.4 990.63 134.4"/>
            <polygon class="cls-3" points="944.22 164.15 944.22 175.24 955.77 175.24 955.76 164.15 944.22 164.15"/>
            <rect class="cls-3" x="959.69" y="164.15" width="11.54" height="11.08"/>
            <polygon class="cls-3" points="975.16 164.16 975.15 175.24 986.7 175.24 986.69 164.16 975.16 164.16"/>
            <rect class="cls-3" x="990.63" y="149.27" width="11.54" height="11.1"/>
            <path class="cls-3" d="M1021.57,74.92v11.09h11.53v-6.21c-1.02-1.66-2.09-3.29-3.22-4.89h-8.31Z"/>
            <polygon class="cls-3" points="955.76 56.27 955.76 45.17 944.22 45.17 944.23 56.28 955.76 56.27"/>
            <polygon class="cls-3" points="990.64 164.16 990.63 175.24 1002.16 175.23 1002.17 164.15 990.64 164.16"/>
            <rect class="cls-3" x="928.76" y="45.17" width="11.54" height="11.1"/>
            <path class="cls-3" d="M897.81,56.27h11.55s-.01-11.1-.01-11.1l-4.24.02c-2.51,1.23-4.93,2.58-7.29,4.02v7.06Z"/>
            <polygon class="cls-3" points="909.36 74.92 897.82 74.92 897.81 86 909.37 86.01 909.36 74.92"/>
            <rect class="cls-3" x="959.69" y="193.89" width="11.53" height="11.09"/>
            <path class="cls-3" d="M1012.23,56.27c-1.97-1.58-4.03-3.11-6.13-4.53v4.54h6.13Z"/>
            <polygon class="cls-3" points="909.35 89.79 897.81 89.79 897.81 100.88 909.37 100.89 909.35 89.79"/>
            <polygon class="cls-3" points="990.63 130.63 1002.17 130.62 1002.17 119.54 990.63 119.53 990.63 130.63"/>
            <rect class="cls-3" x="928.76" y="164.15" width="11.53" height="11.08"/>
            <polygon class="cls-3" points="924.82 86 924.83 74.92 913.29 74.91 913.29 86.01 924.82 86"/>
            <polygon class="cls-3" points="1006.1 145.51 1017.64 145.49 1017.64 134.39 1006.1 134.41 1006.1 145.51"/>
            <path class="cls-3" d="M878.42,64.84c-1.93,2.02-3.77,4.11-5.5,6.3h5.5s0-6.3,0-6.3Z"/>
            <rect class="cls-3" x="897.81" y="119.53" width="11.54" height="11.09"/>
            <polygon class="cls-3" points="1006.1 130.63 1017.64 130.62 1017.64 119.54 1006.09 119.54 1006.1 130.63"/>
            <path class="cls-3" d="M1006.09,198.41c2.11-1.44,4.16-2.95,6.14-4.52h-6.13s-.01,4.52-.01,4.52Z"/>
            <rect class="cls-3" x="928.76" y="74.92" width="11.53" height="11.08"/>
            <rect class="cls-3" x="1006.1" y="104.67" width="11.55" height="11.09"/>
            <polygon class="cls-3" points="924.82 56.27 924.82 45.17 913.28 45.17 913.29 56.27 924.82 56.27"/>
            <path class="cls-3" d="M893.89,51.75c-2.11,1.42-4.16,2.93-6.13,4.51h6.13v-4.51Z"/>
            <polygon class="cls-3" points="971.23 56.27 971.23 45.18 959.69 45.17 959.69 56.27 971.23 56.27"/>
            <polygon class="cls-3" points="1006.1 86 1017.64 86.01 1017.64 74.92 1006.11 74.92 1006.1 86"/>
            <polygon class="cls-3" points="913.28 179.02 913.29 190.11 924.83 190.11 924.83 179.03 913.28 179.02"/>
            <rect class="cls-3" x="1006.1" y="89.8" width="11.54" height="11.08"/>
            <rect class="cls-3" x="928.76" y="179.02" width="11.53" height="11.1"/>
            <path class="cls-3" d="M862.95,89.79h-1.41c-1.62,3.58-2.97,7.28-4.08,11.09h5.49v-11.09Z"/>
            <path class="cls-3" d="M882.35,179.02v10.2c.33.31.66.58.99.88h10.56s0-11.09,0-11.09h-11.55Z"/>
            <path class="cls-3" d="M862.94,119.54h-8.79c-.11,1.83-.2,3.67-.2,5.53,0,1.87.09,3.72.2,5.55h8.79s0-11.08,0-11.08Z"/>
            <polygon class="cls-3" points="897.82 179.02 897.82 190.11 909.35 190.1 909.36 179.02 897.82 179.02"/>
            <path class="cls-3" d="M862.95,104.66h-6.51c-.89,3.62-1.57,7.31-1.99,11.09h8.49s0-11.09,0-11.09Z"/>
            <path class="cls-3" d="M862.95,134.41h-8.5c.42,3.77,1.1,7.47,1.98,11.09h6.52s0-11.09,0-11.09Z"/>
            <rect class="cls-3" x="1006.1" y="149.28" width="11.54" height="11.1"/>
            <path class="cls-3" d="M955.77,41.4v-6.53c-1.92-.1-3.84-.17-5.78-.18-1.93,0-3.86.07-5.77.18v6.53h11.55Z"/>
            <path class="cls-3" d="M940.29,41.4v-6.24c-3.92.36-7.76.99-11.53,1.79v4.45s11.53,0,11.53,0Z"/>
            <path class="cls-3" d="M986.29,41.4c-3.6-1.39-7.32-2.57-11.14-3.54v3.54s11.14,0,11.14,0Z"/>
            <path class="cls-3" d="M971.23,41.39v-4.44c-3.76-.81-7.61-1.43-11.54-1.79v6.24h11.54Z"/>
            <polygon class="cls-3" points="944.23 190.11 955.76 190.1 955.76 179.02 944.22 179.02 944.23 190.11"/>
            <polygon class="cls-3" points="955.76 60.05 944.22 60.05 944.23 71.15 955.76 71.14 955.76 60.05"/>
            <rect class="cls-3" x="944.22" y="119.53" width="11.54" height="11.1"/>
            <polygon class="cls-3" points="959.7 130.63 971.23 130.62 971.24 119.54 959.69 119.53 959.7 130.63"/>
            <path class="cls-3" d="M924.82,37.85c-3.79.98-7.51,2.17-11.12,3.55h11.13v-3.55Z"/>
            <path class="cls-3" d="M944.22,208.76v6.53c1.91.11,3.84.18,5.77.18,1.93-.01,3.86-.08,5.77-.19v-6.52h-11.54Z"/>
            <path class="cls-3" d="M928.76,208.75v4.47c3.77.79,7.62,1.42,11.54,1.78v-6.24s-11.54-.01-11.54-.01Z"/>
            <path class="cls-3" d="M893.89,60.05h-10.56c-.32.29-.66.6-.98.88v10.21h11.55v-11.09Z"/>
            <polygon class="cls-3" points="909.36 71.14 909.35 60.05 897.82 60.05 897.81 71.13 909.36 71.14"/>
            <polygon class="cls-3" points="893.88 100.87 893.89 89.79 882.34 89.8 882.35 100.89 893.88 100.87"/>
            <polygon class="cls-3" points="893.89 74.92 882.34 74.92 882.35 86.01 893.89 86 893.89 74.92"/>
            <path class="cls-3" d="M862.95,149.28h-5.49c1.12,3.8,2.49,7.52,4.1,11.09h1.4s0-11.09,0-11.09Z"/>
            <path class="cls-3" d="M913.7,208.76c3.61,1.38,7.32,2.58,11.12,3.54v-3.54h-11.12Z"/>
            <path class="cls-3" d="M959.7,208.76v6.23c3.93-.35,7.76-.99,11.54-1.78v-4.45s-11.54,0-11.54,0Z"/>
            <path class="cls-3" d="M975.16,212.31c3.81-.98,7.53-2.16,11.13-3.56h-11.14s0,3.56,0,3.56Z"/>
            <path class="cls-3" d="M1017.64,71.13v-10.2c-.32-.31-.65-.59-.98-.89h-10.55s0,11.08,0,11.08h11.54Z"/>
            <polygon class="cls-3" points="893.89 149.28 882.34 149.28 882.34 160.37 893.9 160.37 893.89 149.28"/>
            <polygon class="cls-3" points="1002.17 71.13 1002.17 60.05 990.63 60.05 990.63 71.14 1002.17 71.13"/>
            <polygon class="cls-3" points="893.89 164.15 882.35 164.16 882.35 175.24 893.9 175.24 893.89 164.15"/>
            <polygon class="cls-3" points="971.23 71.14 971.23 60.05 959.69 60.05 959.71 71.15 971.23 71.14"/>
            <rect class="cls-3" x="975.16" y="60.05" width="11.54" height="11.09"/>
            <polygon class="cls-3" points="940.3 71.15 940.29 60.05 928.76 60.05 928.76 71.14 940.3 71.15"/>
            <polygon class="cls-3" points="924.82 71.14 924.82 60.05 913.29 60.05 913.28 71.14 924.82 71.14"/>
            <polygon class="cls-3" points="1006.09 175.23 1017.64 175.24 1017.64 164.15 1006.1 164.15 1006.09 175.23"/>
            <rect class="cls-3" x="990.63" y="179.02" width="11.55" height="11.09"/>
            <path class="cls-3" d="M1037.04,100.89h5.49c-1.12-3.81-2.48-7.51-4.09-11.09h-1.41s0,11.09,0,11.09Z"/>
            <path class="cls-3" d="M1037.04,115.75h8.49c-.41-3.78-1.09-7.48-1.98-11.09h-6.51v11.09Z"/>
            <polygon class="cls-3" points="928.76 134.4 928.76 145.49 940.29 145.51 940.3 134.41 928.76 134.4"/>
            <rect class="cls-3" x="975.16" y="179.02" width="11.53" height="11.09"/>
            <rect class="cls-3" x="928.76" y="104.66" width="11.53" height="11.09"/>
            <polygon class="cls-3" points="940.29 119.52 928.76 119.54 928.76 130.62 940.28 130.61 940.29 119.52"/>
            <rect class="cls-3" x="959.69" y="134.4" width="11.54" height="11.1"/>
            <polygon class="cls-3" points="944.22 134.41 944.23 145.51 955.76 145.5 955.76 134.41 944.22 134.41"/>
            <path class="cls-3" d="M1017.64,179.02h-11.54v11.1s10.57-.01,10.57-.01c.32-.3.65-.58.98-.88v-10.2Z"/>
            <path class="cls-3" d="M1021.57,185.32c1.92-2.02,3.76-4.13,5.48-6.32h-5.48s0,6.32,0,6.32Z"/>
            <path class="cls-3" d="M1037.03,160.37h1.4c1.61-3.58,2.96-7.29,4.09-11.1h-5.49v11.1Z"/>
            <path class="cls-3" d="M1037.03,130.62h8.8c.13-1.83.21-3.68.21-5.55,0-1.87-.08-3.71-.2-5.54h-8.8v11.09Z"/>
            <path class="cls-3" d="M1037.04,145.51h6.51c.89-3.63,1.58-7.34,1.99-11.1l-8.5-.02v11.12Z"/>
            <polygon class="cls-3" points="959.7 179.02 959.69 190.1 971.23 190.11 971.23 179.02 959.7 179.02"/>
            <rect class="cls-3" x="944.22" y="104.66" width="11.55" height="11.09"/>
            <polygon class="cls-3" points="971.23 115.76 971.23 104.66 959.7 104.66 959.69 115.75 971.23 115.76"/>
          </g>
          <path class="cls-3" d="M943.96,217.39c-.66,0-1.19-.51-1.19-1.16V33.93c0-.64.53-1.17,1.18-1.17h12.09c.65.02,1.17.52,1.18,1.16v182.32c0,.64-.54,1.14-1.19,1.15h-12.07Z"/>
          <polygon class="cls-4" points="861.93 177.28 874.84 182.84 874.85 125.08 874.84 67.32 861.93 72.86 861.93 177.28"/>
          <polygon class="cls-4" points="479.31 160.94 854.12 177.29 854.12 125.07 854.12 72.86 479.32 89.2 479.31 160.94"/>
          <polygon class="cls-3" points="783.48 174.21 854.12 177.29 854.12 125.07 854.12 72.86 783.47 75.94 783.48 174.21"/>
          <polygon class="cls-4" points="850.68 178.08 850.67 72.07 861.87 72.07 861.87 178.09 850.68 178.08"/>
        </g>
        <g class="cls-15">
          <path class="cls-13" d="M8.68,648.45s13.17-90.67,47.9-121.89c34.71-31.24,107.52-24.19,154.24,0,46.7,24.18,82.87,51.38,164.54,14.1,81.65-37.28,121.94,19.14,121.94,19.14,0,0,13.09,29.21-27.2,32.23-40.29,3.03-64.02,7.05-62.73,25.19,1.28,18.13,6.81,27.19,16.63,31.22v51.39s-55.64,2.02-62.19,8.06c-6.55,6.05-40.8,43.32,36.76,60.44,77.57,17.13-11.42,45.33-11.42,45.33,0,0-68.84,10.08-92.68,0-23.85-10.07-71.4-34.24-111.1-12.09-39.7,22.17-70.91,43.99-87.37,47.69-16.46,3.68-67.49-1.01-83.29-28.21C-3.06,793.86.3,715.29.3,715.29l8.38-66.84Z"/>
          <g>
            <path class="cls-6" d="M224.79,740.93c0-4.99-4.04-9.03-9.03-9.03s-9.04,4.04-9.04,9.03,4.04,9.02,9.04,9.02,9.03-4.04,9.03-9.02Z"/>
            <path class="cls-6" d="M175.93,779.66c5.73,0,10.36-4.64,10.36-10.37s-4.64-10.35-10.36-10.35-10.36,4.65-10.36,10.35,4.65,10.37,10.36,10.37Z"/>
            <path class="cls-6" d="M117.29,789.39c0-8.01-6.5-14.49-14.5-14.49s-14.49,6.48-14.49,14.49,6.47,14.49,14.49,14.49,14.5-6.49,14.5-14.49Z"/>
          </g>
          <path class="cls-4" d="M1025.15,710.8c10.19-3.89,23.43-8.69,32.53.48,9.09,9.15,44.66,24.28,54.26-2.7,9.6-26.98-10.57-36.78-10.57-36.78l-18.86-6.17,1.59-6.83c5.69.03,10.52-2.84,11.56-7.31,1.27-5.49-3.58-11.3-10.83-12.98-7.26-1.69-14.18,1.38-15.46,6.86-1.04,4.48,2.02,9.19,7.14,11.67l-1.44,6.16-13.31-4.36s-7.08-1.74-17.74-4.35l1.54-6.61c5.69.03,10.51-2.84,11.55-7.32,1.29-5.47-3.55-11.29-10.81-12.99-7.25-1.69-14.17,1.39-15.45,6.86-1.04,4.49,2.01,9.19,7.13,11.68l-1.52,6.53c-9.17-2.24-19.97-4.86-30.88-7.5l1.46-6.25c5.69.03,10.51-2.84,11.55-7.32,1.27-5.48-3.57-11.29-10.83-12.99-7.24-1.68-14.17,1.39-15.44,6.86-1.05,4.49,2.01,9.19,7.13,11.68l-1.44,6.2c-11.09-2.67-21.93-5.25-30.92-7.34l1.41-6.06c5.69.03,10.52-2.84,11.55-7.32,1.28-5.49-3.57-11.3-10.82-13-7.26-1.68-14.18,1.39-15.46,6.88-1.04,4.48,2.01,9.17,7.13,11.67l-1.42,6.08c-7.54-1.72-12.86-2.87-14.45-3.05-8.25-.97-14.56,5.34-14.56,5.34l-11.66,27.67v32.53s12.63,2.43,18.45,4.54c5.83,2.11,13.59,11,18.45,22.6,4.85,11.6,59.23-9.17,69.43-13.05Z"/>
          <path class="cls-6" d="M155.03,725.57v-23.59h4.24c1.08,0,1.96-.97,1.96-2.14v-6.44c0-1.18-.88-2.14-1.96-2.14h-4.24v-32.18h4.24c1.08,0,1.96-.96,1.96-2.14v-6.44c0-1.19-.88-2.15-1.96-2.15h-4.24v-23.59c0-1.19-.89-2.15-1.98-2.15h-15.06c-1.08,0-1.96.96-1.96,2.15v23.59h-4.26c-1.08,0-1.95.96-1.95,2.15v6.44c0,1.18.87,2.14,1.95,2.14h4.26v32.18h-4.26c-1.08,0-1.95.96-1.95,2.14v6.44c0,1.18.87,2.14,1.95,2.14h4.26v23.59c0,1.19.88,2.15,1.96,2.15h15.06c1.09,0,1.98-.96,1.98-2.15Z"/>
          <path class="cls-6" d="M63.22,714.33c-.85,0-1.55-.84-1.55-1.89v-74.55c0-1.04.7-1.89,1.55-1.89h42.44c.86,0,1.54.85,1.54,1.89v74.55c0,1.04-.68,1.89-1.54,1.89h-42.44Z"/>
          <rect class="cls-7" x="918.45" y="651.49" width="4.87" height="47.34"/>
          <path class="cls-6" d="M271.95,707.68c-3.5,0-6.33-2.83-6.33-6.33v-52.38c0-3.5,2.83-6.33,6.33-6.33h11.9c3.49,0,6.32,2.83,6.32,6.33v52.38c0,3.5-2.83,6.33-6.32,6.33h-11.9Z"/>
          <path class="cls-6" d="M226.82,707.68c-3.5,0-6.33-2.83-6.33-6.33v-52.38c0-3.5,2.82-6.33,6.33-6.33h11.91c3.49,0,6.33,2.83,6.33,6.33v52.38c0,3.5-2.84,6.33-6.33,6.33h-11.91Z"/>
          <polygon class="cls-4" points="918.41 652.27 335.92 645.99 335.92 675.16 335.92 704.33 918.41 698.05 918.41 652.27"/>
          <path class="cls-8" d="M884.52,699.5c-.44,0-.79-.4-.79-.93v-46.82c0-.51.35-.91.79-.91h0c.44,0,.8.4.8.91v46.82c0,.52-.36.93-.8.93h0Z"/>
          <path class="cls-8" d="M840.47,699.71c-.44,0-.79-.43-.79-.93v-47.21c0-.52.36-.94.79-.94h0c.44,0,.79.43.79.94v47.21c0,.51-.35.93-.79.93h0Z"/>
          <path class="cls-8" d="M758.39,699.77c-.42,0-.75-.41-.75-.93v-47.35c0-.52.32-.94.75-.94h0c.41,0,.74.42.74.94v47.35c0,.52-.33.93-.74.93h0Z"/>
          <path class="cls-8" d="M716.75,700.23c-.42,0-.75-.42-.75-.96v-48.22c0-.53.33-.95.75-.95h0c.41,0,.76.42.76.95v48.22c0,.54-.35.96-.76.96h0Z"/>
          <path class="cls-8" d="M800.7,699.49c-.44,0-.8-.42-.8-.93v-46.78c0-.52.37-.94.8-.94h0c.43,0,.78.42.78.94v46.78c0,.51-.35.93-.78.93h0Z"/>
          <path class="cls-8" d="M664.27,700.8c-.43,0-.79-.44-.79-.98v-49.3c0-.54.36-.98.79-.98h0c.45,0,.8.44.8.98v49.3c0,.54-.35.98-.8.98h0Z"/>
          <path class="cls-8" d="M620.22,701.28c-.44,0-.79-.46-.79-1.01v-50.22c0-.54.36-.99.79-.99h0c.45,0,.81.45.81.99v50.22c0,.55-.36,1.01-.81,1.01h0Z"/>
          <path class="cls-8" d="M576.17,701.93c-.44,0-.8-.46-.8-1.02v-51.48c0-.55.36-1.01.8-1.01h0c.43,0,.8.46.8,1.01v51.48c0,.56-.36,1.02-.8,1.02h0Z"/>
          <path class="cls-8" d="M542.01,702.1c-.43,0-.79-.45-.79-1.02v-51.82c0-.57.36-1.04.79-1.04h0c.44,0,.8.47.8,1.04v51.82c0,.58-.36,1.02-.8,1.02h0Z"/>
          <path class="cls-8" d="M507.87,702.29c-.44,0-.8-.46-.8-1.03v-52.2c0-.57.36-1.04.8-1.04h0c.43,0,.79.47.79,1.04v52.2c0,.57-.36,1.03-.79,1.03h0Z"/>
          <path class="cls-8" d="M478.18,702.8c-.44,0-.79-.47-.79-1.05v-53.17c0-.58.35-1.06.79-1.06h0c.44,0,.79.48.79,1.06v53.17c0,.58-.35,1.05-.79,1.05h0Z"/>
          <path class="cls-8" d="M457.21,702.8c-.43,0-.79-.47-.79-1.05v-53.17c0-.58.36-1.06.79-1.06h0c.45,0,.8.48.8,1.06v53.17c0,.58-.35,1.05-.8,1.05h0Z"/>
          <path class="cls-8" d="M435.28,703.04c-.43,0-.79-.48-.79-1.07v-53.62c0-.58.36-1.06.79-1.06h0c.43,0,.8.48.8,1.06v53.62c0,.58-.37,1.07-.8,1.07h0Z"/>
          <path class="cls-8" d="M415.14,703.48c-.43,0-.8-.48-.8-1.07v-54.48c0-.59.36-1.08.8-1.08h0c.43,0,.79.5.79,1.08v54.48c0,.59-.36,1.07-.79,1.07h0Z"/>
          <path class="cls-8" d="M393.2,704.33c-.44,0-.79-.5-.79-1.12v-56.09c0-.62.35-1.11.79-1.11h0c.44,0,.79.49.79,1.11v56.09c0,.62-.35,1.12-.79,1.12h0Z"/>
          <path class="cls-8" d="M377.88,704.33c-.42,0-.79-.5-.79-1.12v-56.09c0-.62.36-1.11.79-1.11h0c.44,0,.8.49.8,1.11v56.09c0,.62-.36,1.12-.8,1.12h0Z"/>
          <path class="cls-8" d="M363.73,704.33c-.45,0-.8-.5-.8-1.12v-56.09c0-.62.36-1.11.8-1.11h0c.42,0,.77.49.77,1.11v56.09c0,.62-.35,1.12-.77,1.12h0Z"/>
          <g>
            <rect class="cls-7" x="61.85" y="652.56" width="856.56" height="2.91"/>
            <rect class="cls-7" x="61.67" y="694.87" width="856.56" height="2.91"/>
            <rect class="cls-7" x="61.85" y="680.76" width="856.56" height="2.91"/>
            <rect class="cls-7" x="61.85" y="666.66" width="856.56" height="2.91"/>
          </g>
        </g>
        <g class="cls-15">
          <rect class="cls-14" x="959.35" y="550.34" width="49.28" height="1.31"/>
          <rect class="cls-7" x="971.4" y="129.2" width="25.16" height="2.48"/>
          <path class="cls-4" d="M1009.71,104.81c1.6,0,2.91-2.04,2.91-4.57s-1.3-4.57-2.91-4.57c-.97,0-1.82.76-2.35,1.9h-3.21c-.87-2.58-1.73-5.53-2.48-8.82h1.36c.43,1.15,1.12,1.9,1.91,1.9,1.31,0,2.37-2.05,2.37-4.58s-1.06-4.57-2.37-4.57c-.79,0-1.48.75-1.91,1.9h-2.44c-.48-2.75-.86-5.69-1.13-8.81h1.27c.38,1.14.99,1.9,1.68,1.9,1.15,0,2.08-2.05,2.08-4.57s-.93-4.57-2.08-4.57c-.69,0-1.3.75-1.68,1.9h-1.59c-.16-4.61-.04-9.55.48-14.81,0,0-7.12,3.69-15.64,3.69s-15.64-3.69-15.64-3.69c.52,5.25.64,10.2.48,14.81h-1.59c-.38-1.15-.99-1.9-1.68-1.9-1.16,0-2.09,2.04-2.09,4.57s.93,4.57,2.09,4.57c.69,0,1.3-.75,1.68-1.9h1.27c-.27,3.12-.65,6.06-1.13,8.81h-2.44c-.43-1.14-1.12-1.9-1.91-1.9-1.31,0-2.37,2.05-2.37,4.57s1.06,4.58,2.37,4.58c.79,0,1.48-.76,1.91-1.9h1.36c-.76,3.29-1.61,6.24-2.48,8.82h-3.21c-.53-1.15-1.38-1.9-2.35-1.9-1.61,0-2.91,2.05-2.91,4.57s1.3,4.57,2.91,4.57c.97,0,1.82-.75,2.35-1.9h1.21c-2.03,4.9-3.71,7.52-3.71,7.52,11.38,6.26,13.37,18.77,13.37,18.77h25.02s2-12.51,13.37-18.77c0,0-1.68-2.63-3.71-7.52h1.21c.53,1.14,1.38,1.9,2.35,1.9Z"/>
          <path class="cls-3" d="M907.49,406.21s21.52,30.39-6.33,75.34c-27.86,44.96-30.71,67.43-25.02,98.14,5.71,30.71,50.35,51.29,61.42,53.19,11.08,1.89,61.1,9.5,99.08-4.12,38-13.61,53.82-41.47,56.36-60.15,2.53-18.68,3.17-43.05-18.04-75.66-21.21-32.6-34.5-42.42-15.51-78.83,19-36.41-5.07-40.2-5.07-40.2,0,0-6.96-1.59-11.71,3.48-4.74,5.06-9.8,19.63-56.67,19.63s-56.98-28.49-56.98-28.49c0,0-5.38-11.4-6.33-24.06-.95-12.67-19.63-9.19-25.33,10.13-5.7,19.31,10.13,51.61,10.13,51.61Z"/>
          <g>
            <path class="cls-6" d="M1060.61,534.7c0-4.22-3.43-7.65-7.65-7.65s-7.64,3.43-7.64,7.65,3.42,7.65,7.64,7.65,7.65-3.43,7.65-7.65Z"/>
            <path class="cls-6" d="M1059.17,556.76c-4.22,0-7.65,3.42-7.65,7.65s3.43,7.65,7.65,7.65,7.64-3.42,7.64-7.65-3.43-7.65-7.64-7.65Z"/>
            <path class="cls-6" d="M1044.32,591.13c1.93-3.41,1.48-7.81-1.43-10.71-3.49-3.49-9.15-3.49-12.64,0-3.5,3.48-3.5,9.15,0,12.65,2.9,2.9,7.29,3.35,10.7,1.43.07.69.35,1.37.88,1.9,1.22,1.21,3.19,1.21,4.4,0,1.21-1.21,1.21-3.18,0-4.39-.53-.53-1.21-.82-1.9-.88Z"/>
          </g>
          <path class="cls-6" d="M1012.66,452.87c0,.73-.59,1.32-1.33,1.32h-54.72c-.73,0-1.31-.59-1.31-1.32v-28.02c0-.73.59-1.31,1.31-1.31h54.72c.73,0,1.33.59,1.33,1.31v28.02Z"/>
          <g>
            <path class="cls-3" d="M961.32,428.06c0,1.09-.89,1.98-1.97,1.98s-1.99-.89-1.99-1.98.89-1.98,1.99-1.98,1.97.88,1.97,1.98Z"/>
            <path class="cls-3" d="M961.32,449.65c0,1.1-.89,1.98-1.97,1.98s-1.99-.88-1.99-1.98.89-1.98,1.99-1.98,1.97.88,1.97,1.98Z"/>
            <path class="cls-3" d="M1010.6,449.65c0,1.1-.89,1.98-1.97,1.98s-1.99-.88-1.99-1.98.89-1.98,1.99-1.98,1.97.88,1.97,1.98Z"/>
            <path class="cls-3" d="M1010.6,428.06c0,1.09-.89,1.98-1.97,1.98s-1.99-.89-1.99-1.98.89-1.98,1.99-1.98,1.97.88,1.97,1.98Z"/>
          </g>
          <path class="cls-3" d="M1005.74,445.31c0,.67-.63,1.21-1.41,1.21h-40.67c-.79,0-1.42-.54-1.42-1.21v-12.9c0-.67.63-1.22,1.42-1.22h40.67c.78,0,1.41.55,1.41,1.22v12.9Z"/>
          <g>
            <g>
              <path class="cls-6" d="M967.55,435.48c0,1.13-.92,2.06-2.06,2.06s-2.07-.93-2.07-2.06.92-2.07,2.07-2.07,2.06.92,2.06,2.07Z"/>
              <path class="cls-6" d="M1004.54,435.48c0,1.13-.92,2.06-2.07,2.06s-2.06-.93-2.06-2.06.92-2.07,2.06-2.07,2.07.92,2.07,2.07Z"/>
              <path class="cls-6" d="M997.14,435.48c0,1.13-.93,2.06-2.06,2.06s-2.06-.93-2.06-2.06.92-2.07,2.06-2.07,2.06.92,2.06,2.07Z"/>
              <path class="cls-6" d="M989.75,435.48c0,1.13-.93,2.06-2.07,2.06s-2.07-.93-2.07-2.06.93-2.07,2.07-2.07,2.07.92,2.07,2.07Z"/>
              <path class="cls-6" d="M982.35,435.48c0,1.13-.93,2.06-2.06,2.06s-2.06-.93-2.06-2.06.91-2.07,2.06-2.07,2.06.92,2.06,2.07Z"/>
              <path class="cls-6" d="M974.95,435.48c0,1.13-.92,2.06-2.07,2.06s-2.06-.93-2.06-2.06.93-2.07,2.06-2.07,2.07.92,2.07,2.07Z"/>
            </g>
            <g>
              <path class="cls-6" d="M967.55,442.24c0,1.14-.92,2.07-2.06,2.07s-2.07-.93-2.07-2.07.92-2.06,2.07-2.06,2.06.92,2.06,2.06Z"/>
              <path class="cls-6" d="M1004.54,442.24c0,1.14-.92,2.07-2.07,2.07s-2.06-.93-2.06-2.07.92-2.06,2.06-2.06,2.07.92,2.07,2.06Z"/>
              <path class="cls-6" d="M997.14,442.24c0,1.14-.93,2.07-2.06,2.07s-2.06-.93-2.06-2.07.92-2.06,2.06-2.06,2.06.92,2.06,2.06Z"/>
              <path class="cls-6" d="M989.75,442.24c0,1.14-.93,2.07-2.07,2.07s-2.07-.93-2.07-2.07.93-2.06,2.07-2.06,2.07.92,2.07,2.06Z"/>
              <path class="cls-6" d="M982.35,442.24c0,1.14-.93,2.07-2.06,2.07s-2.06-.93-2.06-2.07.91-2.06,2.06-2.06,2.06.92,2.06,2.06Z"/>
              <path class="cls-6" d="M974.95,442.24c0,1.14-.92,2.07-2.07,2.07s-2.06-.93-2.06-2.07.93-2.06,2.06-2.06,2.07.92,2.07,2.06Z"/>
            </g>
          </g>
          <path class="cls-6" d="M1012.66,528.51c0,.73-.59,1.32-1.33,1.32h-54.72c-.73,0-1.31-.59-1.31-1.32v-28.02c0-.72.59-1.31,1.31-1.31h54.72c.73,0,1.33.59,1.33,1.31v28.02Z"/>
          <g>
            <path class="cls-3" d="M961.32,503.71c0,1.09-.89,1.98-1.97,1.98s-1.99-.89-1.99-1.98.89-1.98,1.99-1.98,1.97.88,1.97,1.98Z"/>
            <path class="cls-3" d="M961.32,525.29c0,1.09-.89,1.97-1.97,1.97s-1.99-.88-1.99-1.97.89-1.98,1.99-1.98,1.97.89,1.97,1.98Z"/>
            <path class="cls-3" d="M1010.6,525.29c0,1.09-.89,1.97-1.97,1.97s-1.99-.88-1.99-1.97.89-1.98,1.99-1.98,1.97.89,1.97,1.98Z"/>
            <path class="cls-3" d="M1010.6,503.71c0,1.09-.89,1.98-1.97,1.98s-1.99-.89-1.99-1.98.89-1.98,1.99-1.98,1.97.88,1.97,1.98Z"/>
          </g>
          <path class="cls-3" d="M1005.74,520.95c0,.67-.63,1.22-1.41,1.22h-40.67c-.79,0-1.42-.55-1.42-1.22v-12.89c0-.67.63-1.22,1.42-1.22h40.67c.78,0,1.41.55,1.41,1.22v12.89Z"/>
          <g>
            <g>
              <path class="cls-6" d="M967.55,511.12c0,1.14-.92,2.06-2.06,2.06s-2.07-.92-2.07-2.06.92-2.06,2.07-2.06,2.06.93,2.06,2.06Z"/>
              <path class="cls-6" d="M1004.54,511.12c0,1.14-.92,2.06-2.07,2.06s-2.06-.92-2.06-2.06.92-2.06,2.06-2.06,2.07.93,2.07,2.06Z"/>
              <path class="cls-6" d="M997.14,511.12c0,1.14-.93,2.06-2.06,2.06s-2.06-.92-2.06-2.06.92-2.06,2.06-2.06,2.06.93,2.06,2.06Z"/>
              <path class="cls-6" d="M989.75,511.12c0,1.14-.93,2.06-2.07,2.06s-2.07-.92-2.07-2.06.93-2.06,2.07-2.06,2.07.93,2.07,2.06Z"/>
              <path class="cls-6" d="M982.35,511.12c0,1.14-.93,2.06-2.06,2.06s-2.06-.92-2.06-2.06.91-2.06,2.06-2.06,2.06.93,2.06,2.06Z"/>
              <path class="cls-6" d="M974.95,511.12c0,1.14-.92,2.06-2.07,2.06s-2.06-.92-2.06-2.06.93-2.06,2.06-2.06,2.07.93,2.07,2.06Z"/>
            </g>
            <g>
              <path class="cls-6" d="M967.55,517.88c0,1.14-.92,2.07-2.06,2.07s-2.07-.92-2.07-2.07.92-2.06,2.07-2.06,2.06.92,2.06,2.06Z"/>
              <path class="cls-6" d="M1004.54,517.88c0,1.14-.92,2.07-2.07,2.07s-2.06-.92-2.06-2.07.92-2.06,2.06-2.06,2.07.92,2.07,2.06Z"/>
              <path class="cls-6" d="M997.14,517.88c0,1.14-.93,2.07-2.06,2.07s-2.06-.92-2.06-2.07.92-2.06,2.06-2.06,2.06.92,2.06,2.06Z"/>
              <path class="cls-6" d="M989.75,517.88c0,1.14-.93,2.07-2.07,2.07s-2.07-.92-2.07-2.07.93-2.06,2.07-2.06,2.07.92,2.07,2.06Z"/>
              <path class="cls-6" d="M982.35,517.88c0,1.14-.93,2.07-2.06,2.07s-2.06-.92-2.06-2.07.91-2.06,2.06-2.06,2.06.92,2.06,2.06Z"/>
              <path class="cls-6" d="M974.95,517.88c0,1.14-.92,2.07-2.07,2.07s-2.06-.92-2.06-2.07.93-2.06,2.06-2.06,2.07.92,2.07,2.06Z"/>
            </g>
          </g>
          <path class="cls-6" d="M949.05,540.18h69.88c.73,0,1.32.59,1.32,1.32v15.16c0,.73-.59,1.32-1.32,1.32h-69.88c-.73,0-1.32-.59-1.32-1.32v-15.16c0-.73.59-1.32,1.32-1.32Z"/>
          <g>
            <path class="cls-3" d="M965.53,549.08c0,2.66-2.16,4.83-4.83,4.83s-4.84-2.16-4.84-4.83,2.17-4.83,4.84-4.83,4.83,2.15,4.83,4.83Z"/>
            <path class="cls-3" d="M1012.1,549.08c0,2.66-2.17,4.83-4.83,4.83s-4.83-2.16-4.83-4.83,2.17-4.83,4.83-4.83,4.83,2.15,4.83,4.83Z"/>
          </g>
          <polygon class="cls-4" points="971.68 131.68 968.31 428.06 983.98 428.06 999.66 428.06 996.28 131.68 971.68 131.68"/>
          <path class="cls-7" d="M997.06,148.92c0,.23-.23.4-.5.4h-25.16c-.27,0-.49-.18-.49-.4h0c0-.22.22-.4.49-.4h25.16c.27,0,.5.18.5.4h0Z"/>
          <path class="cls-7" d="M997.18,171.34c0,.22-.23.4-.5.4h-25.38c-.28,0-.51-.18-.51-.4h0c0-.23.23-.41.51-.41h25.38c.27,0,.5.18.5.41h0Z"/>
          <path class="cls-7" d="M997.2,213.1c0,.21-.22.38-.5.38h-25.45c-.28,0-.51-.18-.51-.38h0c0-.21.23-.39.51-.39h25.45c.28,0,.5.17.5.39h0Z"/>
          <path class="cls-7" d="M997.45,234.29c0,.21-.22.39-.51.39h-25.92c-.28,0-.51-.18-.51-.39h0c0-.21.23-.38.51-.38h25.92c.28,0,.51.18.51.38h0Z"/>
          <path class="cls-7" d="M997.06,191.58c0,.22-.22.4-.5.4h-25.14c-.29,0-.51-.18-.51-.4h0c0-.22.22-.41.51-.41h25.14c.28,0,.5.18.5.41h0Z"/>
          <path class="cls-7" d="M997.76,260.99c0,.22-.24.4-.52.4h-26.5c-.29,0-.53-.18-.53-.4h0c0-.22.24-.4.53-.4h26.5c.28,0,.52.18.52.4h0Z"/>
          <path class="cls-7" d="M998.01,283.41c0,.22-.25.4-.53.4h-27c-.3,0-.53-.18-.53-.4h0c0-.23.23-.41.53-.41h27c.28,0,.53.18.53.41h0Z"/>
          <path class="cls-7" d="M998.37,305.82c0,.22-.24.41-.55.41h-27.67c-.3,0-.55-.19-.55-.41h0c0-.22.25-.4.55-.4h27.67c.31,0,.55.18.55.4h0Z"/>
          <path class="cls-7" d="M998.46,323.2c0,.22-.24.41-.54.41h-27.86c-.3,0-.55-.19-.55-.41h0c0-.23.25-.41.55-.41h27.86c.3,0,.54.18.54.41h0Z"/>
          <path class="cls-7" d="M998.56,340.58c0,.23-.25.4-.55.4h-28.05c-.31,0-.55-.18-.55-.4h0c0-.21.25-.4.55-.4h28.05c.31,0,.55.19.55.4h0Z"/>
          <path class="cls-7" d="M998.84,355.69c0,.22-.25.41-.56.41h-28.58c-.31,0-.56-.19-.56-.41h0c0-.22.25-.4.56-.4h28.58c.32,0,.56.18.56.4h0Z"/>
          <path class="cls-7" d="M998.84,366.35c0,.22-.25.4-.56.4h-28.58c-.31,0-.56-.18-.56-.4h0c0-.23.25-.4.56-.4h28.58c.31,0,.56.18.56.4h0Z"/>
          <path class="cls-7" d="M998.96,377.51c0,.23-.26.41-.57.41h-28.82c-.32,0-.57-.18-.57-.41h0c0-.22.25-.4.57-.4h28.82c.31,0,.57.18.57.4h0Z"/>
          <path class="cls-7" d="M999.2,387.77c0,.21-.26.4-.59.4h-29.27c-.33,0-.58-.18-.58-.4h0c0-.23.26-.41.58-.41h29.27c.33,0,.59.18.59.41h0Z"/>
          <path class="cls-7" d="M999.65,398.92c0,.23-.27.41-.59.41h-30.15c-.33,0-.6-.18-.6-.41h0c0-.22.27-.4.6-.4h30.15c.33,0,.59.18.59.4h0Z"/>
          <path class="cls-7" d="M999.65,406.72c0,.22-.27.4-.59.4h-30.15c-.33,0-.6-.18-.6-.4h0c0-.22.27-.41.6-.41h30.15c.33,0,.59.18.59.41h0Z"/>
          <path class="cls-7" d="M999.65,413.93c0,.22-.27.4-.59.4h-30.15c-.33,0-.6-.18-.6-.4h0c0-.23.27-.41.6-.41h30.15c.33,0,.59.18.59.41h0Z"/>
          <g>
            <rect class="cls-7" x="986.1" y="131.68" width=".27" height="426.22"/>
            <rect class="cls-7" x="990.62" y="131.68" width=".28" height="426.22"/>
            <rect class="cls-7" x="995.13" y="131.68" width=".26" height="426.22"/>
            <rect class="cls-7" x="972.58" y="131.68" width=".25" height="426.22"/>
            <rect class="cls-7" x="977.08" y="131.68" width=".26" height="426.22"/>
            <rect class="cls-7" x="981.59" y="131.68" width=".27" height="426.22"/>
          </g>
        </g>
        <g class="cls-15">
          <path class="cls-4" d="M524.32,1079.62h104.36c5.49,0,9.94,4.45,9.94,9.94v42c0,5.49-4.45,9.94-9.94,9.94h-104.36c-5.49,0-9.94-4.45-9.94-9.94v-42c0-5.48,4.45-9.94,9.94-9.94Z"/>
          <path class="cls-9" d="M693.04,892.34h-87.05c-7.75,0-14.04-6.13-14.04-13.69s6.29-13.69,14.04-13.69h87.05c.42,0,.8.12,1.21.16v-17.95c-.4.03-.8.09-1.21.09h-87.05c-7.75,0-14.04-6.13-14.04-13.69s6.29-13.69,14.04-13.69h87.05c.42,0,.8.12,1.21.16v-17.95c-.4.03-.8.09-1.21.09h-87.05c-7.75,0-14.04-6.13-14.04-13.69s6.29-13.69,14.04-13.69h87.05c.42,0,.8.12,1.21.16v-17.95c-.4.03-.8.09-1.21.09h-87.05c-7.75,0-14.04-6.13-14.04-13.69s6.29-13.69,14.04-13.69h87.05c.25,0,.47.08.72.09-4.95-49.92-47.05-88.92-98.27-88.92h-37.95c-51.22,0-93.33,39-98.27,88.92.24-.01.47-.09.72-.09h87.05c7.75,0,14.04,6.13,14.04,13.69s-6.29,13.69-14.04,13.69h-87.05c-.41,0-.81-.06-1.21-.09v17.95c.41-.04.79-.16,1.21-.16h87.05c7.75,0,14.04,6.13,14.04,13.69s-6.29,13.69-14.04,13.69h-87.05c-.41,0-.81-.06-1.21-.09v17.95c.41-.04.79-.16,1.21-.16h87.05c7.75,0,14.04,6.13,14.04,13.69s-6.29,13.69-14.04,13.69h-87.05c-.41,0-.81-.06-1.21-.09v17.95c.41-.04.79-.16,1.21-.16h87.05c7.75,0,14.04,6.13,14.04,13.69s-6.29,13.69-14.04,13.69h-87.05c-.24,0-.47-.04-.71-.05,4.96,49.9,47.06,88.88,98.27,88.88h37.95c51.21,0,93.31-38.97,98.27-88.88-.24.01-.47.05-.71.05Z"/>
          <path class="cls-4" d="M595.02,987.98h-37.04c-5.33,0-10.54-.52-15.64-1.35v107.31h68.32v-107.31c-5.1.83-10.3,1.35-15.64,1.35Z"/>
        </g>
        <g class="cls-15">
          <rect class="cls-4" x="162.02" y="569.76" width="77.83" height="34.54" rx="6.82" ry="6.82"/>
          <rect class="cls-9" x="10.08" y="40.16" width="381.7" height="544.42" rx="6.94" ry="6.94"/>
          <g>
            <rect class="cls-4" x="27.29" y="245.53" width="347.28" height="321.19" rx="1.28" ry="1.28"/>
            <g>
              <rect class="cls-4" x="27.29" y="58.03" width="347.28" height="170.29" rx="5.58" ry="5.58"/>
              <g>
                <g>
                  <path class="cls-9" d="M71.07,189.63c0,4.3-3.48,7.78-7.78,7.78s-7.78-3.48-7.78-7.78,3.48-7.78,7.78-7.78,7.78,3.48,7.78,7.78Z"/>
                  <path class="cls-9" d="M263.26,189.63c0,4.3-3.48,7.78-7.78,7.78s-7.78-3.48-7.78-7.78,3.48-7.78,7.78-7.78,7.78,3.48,7.78,7.78Z"/>
                  <rect class="cls-9" x="66.96" y="187.43" width="184.85" height="4.4"/>
                </g>
                <rect class="cls-9" x="277.97" y="174.07" width="68.38" height="31.73" rx="1.34" ry="1.34"/>
              </g>
              <g>
                <g>
                  <circle class="cls-9" cx="80.88" cy="115.17" r="34.62"/>
                  <rect class="cls-4" x="60.61" y="87.31" width="7.87" height="23.06" transform="translate(-50.98 74.59) rotate(-45)"/>
                </g>
                <g>
                  <circle class="cls-9" cx="160.91" cy="115.17" r="34.62" transform="translate(12.31 245.83) rotate(-76.92)"/>
                  <rect class="cls-4" x="156.98" y="80.55" width="7.87" height="23.06"/>
                </g>
                <g>
                  <circle class="cls-9" cx="240.95" cy="115.17" r="34.62" transform="translate(81.77 329.6) rotate(-78.96)"/>
                  <rect class="cls-4" x="260.11" y="103.64" width="7.87" height="23.06" transform="translate(379.21 -148.88) rotate(90)"/>
                </g>
                <g>
                  <circle class="cls-9" cx="320.99" cy="115.17" r="34.62" transform="translate(12.58 260.7) rotate(-45)"/>
                  <rect class="cls-4" x="317.05" y="126.73" width="7.87" height="23.06" transform="translate(641.98 276.52) rotate(180)"/>
                </g>
              </g>
            </g>
          </g>
        </g>
        <g class="cls-15">
          <path class="cls-13" d="M1095.94,1121.7c0,10.94-9.2,19.8-20.53,19.8h-374.14c-11.34,0-20.53-8.86-20.53-19.8v-524.55c0-10.94,9.19-19.81,20.53-19.81h374.14c11.33,0,20.53,8.87,20.53,19.81v524.55Z"/>
          <path class="cls-4" d="M1037.88,714.98c0,3.41-3.02,6.18-6.73,6.18h-285.62c-3.71,0-6.73-2.76-6.73-6.18v-64.35c0-3.4,3.02-6.17,6.73-6.17h285.62c3.72,0,6.73,2.77,6.73,6.17v64.35Z"/>
          <path class="cls-11" d="M800.47,682.8c0,11.88-9.63,21.51-21.51,21.51s-21.51-9.63-21.51-21.51,9.64-21.5,21.51-21.5,21.51,9.62,21.51,21.5Z"/>
          <path class="cls-13" d="M796.51,682.8c0,9.69-7.85,17.55-17.56,17.55s-17.54-7.86-17.54-17.55,7.86-17.54,17.54-17.54,17.56,7.85,17.56,17.54Z"/>
          <path class="cls-11" d="M874.92,682.8c0,11.88-9.64,21.51-21.52,21.51s-21.51-9.63-21.51-21.51,9.63-21.5,21.51-21.5,21.52,9.62,21.52,21.5Z"/>
          <path class="cls-13" d="M870.94,682.8c0,9.69-7.84,17.55-17.54,17.55s-17.54-7.86-17.54-17.55,7.86-17.54,17.54-17.54,17.54,7.85,17.54,17.54Z"/>
          <path class="cls-11" d="M949.37,682.8c0,11.88-9.64,21.51-21.51,21.51s-21.5-9.63-21.5-21.51,9.62-21.5,21.5-21.5,21.51,9.62,21.51,21.5Z"/>
          <path class="cls-13" d="M945.39,682.8c0,9.69-7.85,17.55-17.53,17.55s-17.55-7.86-17.55-17.55,7.86-17.54,17.55-17.54,17.53,7.85,17.53,17.54Z"/>
          <g>
            <path class="cls-13" d="M1019.23,708.42c0,1.06-.73,1.91-1.63,1.91h-31.94c-.91,0-1.64-.86-1.64-1.91v-51.24c0-1.05.73-1.9,1.64-1.9h31.94c.9,0,1.63.85,1.63,1.9v51.24Z"/>
            <path class="cls-13" d="M1015.93,704.76c0,.91-.6,1.64-1.34,1.64h-25.93c-.74,0-1.33-.73-1.33-1.64v-43.9c0-.89.59-1.63,1.33-1.63h25.93c.74,0,1.34.74,1.34,1.63v43.9Z"/>
          </g>
          <g>
            <path class="cls-11" d="M1008.75,694.5c0,3.93-3.19,7.12-7.12,7.12s-7.12-3.18-7.12-7.12,3.18-7.13,7.12-7.13,7.12,3.19,7.12,7.13Z"/>
            <rect class="cls-5" x="999.45" y="664" width="4.36" height="14.91"/>
          </g>
          <path class="cls-4" d="M1054.96,915.88c0,92.01-74.58,166.61-166.61,166.61s-166.61-74.6-166.61-166.61,74.59-166.62,166.61-166.62,166.61,74.6,166.61,166.62Z"/>
          <path class="cls-6" d="M1040.6,915.88c0,84.08-68.17,152.26-152.26,152.26s-152.26-68.18-152.26-152.26,68.17-152.27,152.26-152.27,152.26,68.18,152.26,152.27Z"/>
          <g>
            <path class="cls-4" d="M947.97,767.38h-119.26c-4.39,1.75-8.69,3.72-12.88,5.86h145.03c-4.2-2.14-8.5-4.11-12.89-5.86Z"/>
            <path class="cls-4" d="M793.41,787.09h189.88c-2.76-2.03-5.58-3.99-8.48-5.86h-172.92c-2.88,1.86-5.72,3.82-8.48,5.86Z"/>
            <path class="cls-4" d="M777.04,800.96h222.61c-2.07-2.01-4.21-3.97-6.38-5.86h-209.87c-2.18,1.88-4.29,3.85-6.36,5.86Z"/>
            <path class="cls-4" d="M764.31,814.82h248.07c-1.62-2-3.3-3.94-5.02-5.86h-238.03c-1.73,1.91-3.4,3.86-5.02,5.86Z"/>
            <path class="cls-4" d="M754.18,828.69h268.32c-1.29-1.98-2.62-3.93-4-5.86h-260.32c-1.38,1.93-2.71,3.88-4,5.86Z"/>
            <path class="cls-4" d="M746.1,842.55h284.48c-1.03-1.98-2.08-3.93-3.18-5.86h-278.1c-1.12,1.93-2.16,3.88-3.2,5.86Z"/>
            <path class="cls-4" d="M739.77,856.42h297.14c-.79-1.97-1.61-3.93-2.48-5.85h-292.18c-.87,1.93-1.69,3.89-2.49,5.85Z"/>
            <path class="cls-4" d="M734.95,870.28h306.78c-.59-1.97-1.2-3.92-1.86-5.85h-303.08c-.65,1.93-1.28,3.89-1.85,5.85Z"/>
            <path class="cls-4" d="M731.51,884.15h313.67c-.4-1.97-.83-3.92-1.3-5.86h-311.08c-.46,1.94-.9,3.89-1.29,5.86Z"/>
            <path class="cls-4" d="M729.35,898h317.99c-.21-1.96-.47-3.9-.76-5.84h-316.47c-.29,1.94-.53,3.89-.75,5.84Z"/>
            <path class="cls-4" d="M728.4,911.87h319.89c-.05-1.96-.14-3.91-.24-5.86h-319.38c-.11,1.95-.2,3.9-.27,5.86Z"/>
            <path class="cls-4" d="M728.66,925.74h319.38c.1-1.95.2-3.9.24-5.85h-319.89c.06,1.95.15,3.91.27,5.85Z"/>
            <path class="cls-4" d="M730.1,939.61h316.47c.3-1.94.55-3.9.76-5.87h-317.99c.22,1.97.46,3.93.75,5.87Z"/>
            <path class="cls-4" d="M732.8,953.47h311.08c.47-1.95.9-3.89,1.3-5.86h-313.67c.39,1.97.83,3.92,1.29,5.86Z"/>
            <path class="cls-4" d="M736.8,967.34h303.08c.66-1.94,1.27-3.89,1.86-5.86h-306.78c.57,1.97,1.2,3.92,1.85,5.86Z"/>
            <path class="cls-4" d="M742.26,981.2h292.18c.86-1.94,1.69-3.89,2.48-5.86h-297.14c.79,1.98,1.62,3.92,2.49,5.86Z"/>
            <path class="cls-4" d="M749.3,995.05h278.1c1.1-1.93,2.15-3.88,3.18-5.85h-284.48c1.03,1.97,2.08,3.93,3.2,5.85Z"/>
            <path class="cls-4" d="M758.18,1008.92h260.32c1.38-1.92,2.71-3.87,4-5.85h-268.32c1.29,1.98,2.62,3.93,4,5.85Z"/>
            <path class="cls-4" d="M769.33,1022.8h238.03c1.72-1.92,3.4-3.88,5.02-5.87h-248.07c1.62,1.99,3.28,3.95,5.02,5.87Z"/>
            <path class="cls-4" d="M783.41,1036.65h209.87c2.17-1.9,4.3-3.85,6.38-5.85h-222.61c2.07,2,4.19,3.95,6.36,5.85Z"/>
            <path class="cls-4" d="M801.88,1050.52h172.92c2.9-1.86,5.72-3.81,8.48-5.87h-189.88c2.76,2.06,5.59,4.01,8.48,5.87Z"/>
            <path class="cls-4" d="M828.71,1064.37h119.26c4.4-1.76,8.7-3.72,12.89-5.84h-145.03c4.19,2.13,8.49,4.08,12.88,5.84Z"/>
          </g>
        </g>
        <g class="cls-15">
          <rect class="cls-4" x="7.49" y="772.23" width="473.12" height="360.83"/>
          <rect class="cls-10" x="19.66" y="781.51" width="448.78" height="342.27"/>
          <rect class="cls-4" x="27.45" y="787.44" width="433.2" height="330.39"/>
          <g>
            <path class="cls-13" d="M51.34,852.57h17.29c.51,0,.92.41.92.92v12.75c0,.51-.41.92-.92.92h-17.29c-.51,0-.92-.41-.92-.92v-12.75c0-.51.41-.92.92-.92Z"/>
            <path class="cls-13" d="M84.8,852.57h17.29c.51,0,.92.41.92.92v12.75c0,.51-.41.92-.92.92h-17.29c-.51,0-.92-.41-.92-.92v-12.75c0-.51.41-.92.92-.92Z"/>
            <path class="cls-13" d="M118.27,852.57h17.28c.51,0,.92.41.92.92v12.75c0,.51-.41.92-.92.92h-17.29c-.51,0-.92-.41-.92-.92v-12.74c0-.51.41-.92.92-.92Z"/>
            <path class="cls-13" d="M151.74,852.57h17.29c.51,0,.92.41.92.92v12.75c0,.51-.41.92-.92.92h-17.29c-.51,0-.92-.41-.92-.92v-12.75c0-.51.41-.92.92-.92Z"/>
            <path class="cls-13" d="M185.2,852.57h17.29c.51,0,.92.41.92.92v12.75c0,.51-.41.92-.92.92h-17.29c-.51,0-.92-.41-.92-.92v-12.75c0-.51.41-.92.92-.92Z"/>
            <path class="cls-13" d="M218.67,852.57h17.29c.51,0,.92.41.92.92v12.75c0,.51-.41.92-.92.92h-17.29c-.51,0-.92-.41-.92-.92v-12.75c0-.51.41-.92.92-.92Z"/>
            <path class="cls-13" d="M252.14,852.57h17.29c.51,0,.92.41.92.92v12.75c0,.51-.41.92-.92.92h-17.29c-.51,0-.92-.41-.92-.92v-12.75c0-.51.41-.92.92-.92Z"/>
            <path class="cls-13" d="M285.61,852.57h17.29c.51,0,.92.41.92.92v12.75c0,.51-.41.92-.92.92h-17.29c-.51,0-.92-.41-.92-.92v-12.75c0-.51.41-.92.92-.92Z"/>
            <path class="cls-13" d="M319.07,852.57h17.28c.51,0,.92.41.92.92v12.75c0,.51-.41.92-.92.92h-17.29c-.51,0-.92-.41-.92-.92v-12.75c0-.51.41-.92.92-.92Z"/>
            <path class="cls-13" d="M352.54,852.57h17.29c.51,0,.92.41.92.92v12.75c0,.51-.41.92-.92.92h-17.29c-.51,0-.92-.41-.92-.92v-12.75c0-.51.41-.92.92-.92Z"/>
            <path class="cls-13" d="M386.01,852.57h17.29c.51,0,.92.41.92.92v12.75c0,.51-.41.92-.92.92h-17.29c-.51,0-.92-.41-.92-.92v-12.75c0-.51.41-.92.92-.92Z"/>
            <path class="cls-13" d="M419.47,852.57h17.29c.51,0,.92.41.92.92v12.75c0,.51-.41.92-.92.92h-17.29c-.51,0-.92-.41-.92-.92v-12.75c0-.51.41-.92.92-.92Z"/>
            <path class="cls-13" d="M51.34,878.35h17.29c.51,0,.92.41.92.92v12.75c0,.51-.41.92-.92.92h-17.29c-.51,0-.92-.41-.92-.92v-12.75c0-.51.41-.92.92-.92Z"/>
            <rect class="cls-13" x="83.88" y="878.35" width="19.13" height="14.59" rx=".92" ry=".92"/>
            <path class="cls-13" d="M118.27,878.35h17.29c.51,0,.92.41.92.92v12.75c0,.51-.41.92-.92.92h-17.29c-.51,0-.92-.41-.92-.92v-12.74c0-.51.41-.92.92-.92Z"/>
            <rect class="cls-13" x="150.82" y="878.35" width="19.13" height="14.59" rx=".92" ry=".92"/>
            <path class="cls-13" d="M185.2,878.35h17.29c.51,0,.92.41.92.92v12.75c0,.51-.41.92-.92.92h-17.29c-.51,0-.92-.41-.92-.92v-12.75c0-.51.41-.92.92-.92Z"/>
            <path class="cls-13" d="M218.67,878.35h17.29c.51,0,.92.41.92.92v12.75c0,.51-.41.92-.92.92h-17.29c-.51,0-.92-.41-.92-.92v-12.74c0-.51.41-.92.92-.92Z"/>
            <rect class="cls-13" x="251.22" y="878.35" width="19.13" height="14.59" rx=".92" ry=".92"/>
            <path class="cls-13" d="M285.61,878.35h17.29c.51,0,.92.41.92.92v12.75c0,.51-.41.92-.92.92h-17.29c-.51,0-.92-.41-.92-.92v-12.75c0-.51.41-.92.92-.92Z"/>
            <path class="cls-13" d="M319.07,878.35h17.28c.51,0,.92.41.92.92v12.75c0,.51-.41.92-.92.92h-17.29c-.51,0-.92-.41-.92-.92v-12.75c0-.51.41-.92.92-.92Z"/>
            <path class="cls-13" d="M352.54,878.35h17.29c.51,0,.92.41.92.92v12.75c0,.51-.41.92-.92.92h-17.29c-.51,0-.92-.41-.92-.92v-12.75c0-.51.41-.92.92-.92Z"/>
            <path class="cls-13" d="M386.01,878.35h17.29c.51,0,.92.41.92.92v12.75c0,.51-.41.92-.92.92h-17.29c-.51,0-.92-.41-.92-.92v-12.75c0-.51.41-.92.92-.92Z"/>
            <path class="cls-13" d="M419.47,878.35h17.29c.51,0,.92.41.92.92v12.75c0,.51-.41.92-.92.92h-17.29c-.51,0-.92-.41-.92-.92v-12.75c0-.51.41-.92.92-.92Z"/>
            <path class="cls-13" d="M51.34,904.13h17.29c.51,0,.92.41.92.92v12.75c0,.51-.41.92-.92.92h-17.29c-.51,0-.92-.41-.92-.92v-12.75c0-.51.41-.92.92-.92Z"/>
            <rect class="cls-13" x="83.88" y="904.13" width="19.13" height="14.59" rx=".92" ry=".92"/>
            <path class="cls-13" d="M118.27,904.13h17.29c.51,0,.92.41.92.92v12.75c0,.51-.41.92-.92.92h-17.29c-.51,0-.92-.41-.92-.92v-12.75c0-.51.41-.92.92-.92Z"/>
            <rect class="cls-13" x="150.82" y="904.13" width="19.13" height="14.59" rx=".92" ry=".92"/>
            <path class="cls-13" d="M185.2,904.13h17.29c.51,0,.92.41.92.92v12.75c0,.51-.41.92-.92.92h-17.29c-.51,0-.92-.41-.92-.92v-12.75c0-.51.41-.92.92-.92Z"/>
            <path class="cls-13" d="M218.67,904.13h17.29c.51,0,.92.41.92.92v12.75c0,.51-.41.92-.92.92h-17.29c-.51,0-.92-.41-.92-.92v-12.75c0-.51.41-.92.92-.92Z"/>
            <rect class="cls-13" x="251.22" y="904.13" width="19.13" height="14.59" rx=".92" ry=".92"/>
            <path class="cls-13" d="M285.61,904.13h17.28c.51,0,.92.41.92.92v12.75c0,.51-.41.92-.92.92h-17.29c-.51,0-.92-.41-.92-.92v-12.75c0-.51.41-.92.92-.92Z"/>
            <path class="cls-13" d="M319.07,904.13h17.29c.51,0,.92.41.92.92v12.75c0,.51-.41.92-.92.92h-17.28c-.51,0-.92-.41-.92-.92v-12.75c0-.51.41-.92.92-.92Z"/>
            <path class="cls-13" d="M352.54,904.13h17.29c.51,0,.92.41.92.92v12.75c0,.51-.41.92-.92.92h-17.29c-.51,0-.92-.41-.92-.92v-12.75c0-.51.41-.92.92-.92Z"/>
            <path class="cls-13" d="M386.01,904.13h17.29c.51,0,.92.41.92.92v12.75c0,.51-.41.92-.92.92h-17.29c-.51,0-.92-.41-.92-.92v-12.75c0-.51.41-.92.92-.92Z"/>
            <path class="cls-13" d="M419.47,904.13h17.29c.51,0,.92.41.92.92v12.75c0,.51-.41.92-.92.92h-17.29c-.51,0-.92-.41-.92-.92v-12.75c0-.51.41-.92.92-.92Z"/>
            <path class="cls-13" d="M51.33,929.9h17.29c.51,0,.92.41.92.92v12.75c0,.51-.41.92-.92.92h-17.29c-.51,0-.92-.41-.92-.92v-12.75c0-.51.41-.92.92-.92Z"/>
            <path class="cls-13" d="M84.8,929.9h17.29c.51,0,.92.41.92.92v12.75c0,.51-.41.92-.92.92h-17.29c-.51,0-.92-.41-.92-.92v-12.75c0-.51.41-.92.92-.92Z"/>
            <path class="cls-13" d="M118.27,929.9h17.29c.51,0,.92.41.92.92v12.75c0,.51-.41.92-.92.92h-17.29c-.51,0-.92-.41-.92-.92v-12.75c0-.51.41-.92.92-.92Z"/>
            <path class="cls-13" d="M151.73,929.9h17.29c.51,0,.92.41.92.92v12.75c0,.51-.41.92-.92.92h-17.29c-.51,0-.92-.41-.92-.92v-12.75c0-.51.41-.92.92-.92Z"/>
            <path class="cls-13" d="M185.2,929.9h17.29c.51,0,.92.41.92.92v12.75c0,.51-.41.92-.92.92h-17.29c-.51,0-.92-.41-.92-.92v-12.75c0-.51.41-.92.92-.92Z"/>
            <path class="cls-13" d="M218.67,929.9h17.29c.51,0,.92.41.92.92v12.75c0,.51-.41.92-.92.92h-17.29c-.51,0-.92-.41-.92-.92v-12.75c0-.51.41-.92.92-.92Z"/>
            <path class="cls-13" d="M252.14,929.9h17.29c.51,0,.92.41.92.92v12.75c0,.51-.41.92-.92.92h-17.29c-.51,0-.92-.41-.92-.92v-12.75c0-.51.41-.92.92-.92Z"/>
            <path class="cls-13" d="M285.61,929.9h17.29c.51,0,.92.41.92.92v12.75c0,.51-.41.92-.92.92h-17.29c-.51,0-.92-.41-.92-.92v-12.75c0-.51.41-.92.92-.92Z"/>
            <path class="cls-13" d="M319.07,929.9h17.29c.51,0,.92.41.92.92v12.75c0,.51-.41.92-.92.92h-17.29c-.51,0-.92-.41-.92-.92v-12.75c0-.51.41-.92.92-.92Z"/>
            <path class="cls-13" d="M352.54,929.9h17.29c.51,0,.92.41.92.92v12.75c0,.51-.41.92-.92.92h-17.29c-.51,0-.92-.41-.92-.92v-12.75c0-.51.41-.92.92-.92Z"/>
            <path class="cls-13" d="M386,929.9h17.29c.51,0,.92.41.92.92v12.75c0,.51-.41.92-.92.92h-17.29c-.51,0-.92-.41-.92-.92v-12.75c0-.51.41-.92.92-.92Z"/>
            <path class="cls-13" d="M419.47,929.9h17.29c.51,0,.92.41.92.92v12.75c0,.51-.41.92-.92.92h-17.29c-.51,0-.92-.41-.92-.92v-12.75c0-.51.41-.92.92-.92Z"/>
            <path class="cls-13" d="M51.34,955.68h17.29c.51,0,.92.41.92.92v12.75c0,.51-.41.92-.92.92h-17.29c-.51,0-.92-.41-.92-.92v-12.75c0-.51.41-.92.92-.92Z"/>
            <rect class="cls-13" x="83.88" y="955.68" width="19.13" height="14.59" rx=".92" ry=".92"/>
            <path class="cls-13" d="M118.27,955.68h17.29c.51,0,.92.41.92.92v12.75c0,.51-.41.92-.92.92h-17.29c-.51,0-.92-.41-.92-.92v-12.75c0-.51.41-.92.92-.92Z"/>
            <rect class="cls-13" x="150.82" y="955.68" width="19.13" height="14.59" rx=".92" ry=".92"/>
            <path class="cls-13" d="M185.2,955.68h17.29c.51,0,.92.41.92.92v12.75c0,.51-.41.92-.92.92h-17.29c-.51,0-.92-.41-.92-.92v-12.75c0-.51.41-.92.92-.92Z"/>
            <path class="cls-13" d="M218.67,955.68h17.29c.51,0,.92.41.92.92v12.75c0,.51-.41.92-.92.92h-17.29c-.51,0-.92-.41-.92-.92v-12.75c0-.51.41-.92.92-.92Z"/>
            <rect class="cls-13" x="251.22" y="955.68" width="19.13" height="14.59" rx=".92" ry=".92"/>
            <path class="cls-13" d="M285.61,955.68h17.29c.51,0,.92.41.92.92v12.75c0,.51-.41.92-.92.92h-17.29c-.51,0-.92-.41-.92-.92v-12.75c0-.51.41-.92.92-.92Z"/>
            <path class="cls-13" d="M319.07,955.68h17.28c.51,0,.92.41.92.92v12.75c0,.51-.41.92-.92.92h-17.29c-.51,0-.92-.41-.92-.92v-12.75c0-.51.41-.92.92-.92Z"/>
            <path class="cls-13" d="M352.54,955.68h17.29c.51,0,.92.41.92.92v12.75c0,.51-.41.92-.92.92h-17.29c-.51,0-.92-.41-.92-.92v-12.75c0-.51.41-.92.92-.92Z"/>
            <path class="cls-13" d="M386.01,955.68h17.29c.51,0,.92.41.92.92v12.75c0,.51-.41.92-.92.92h-17.29c-.51,0-.92-.41-.92-.92v-12.75c0-.51.41-.92.92-.92Z"/>
            <path class="cls-13" d="M419.47,955.68h17.29c.51,0,.92.41.92.92v12.75c0,.51-.41.92-.92.92h-17.29c-.51,0-.92-.41-.92-.92v-12.75c0-.51.41-.92.92-.92Z"/>
            <rect class="cls-13" x="50.42" y="981.46" width="19.12" height="14.58" rx=".92" ry=".92"/>
            <path class="cls-13" d="M84.8,981.46h17.29c.51,0,.92.41.92.92v12.75c0,.51-.41.92-.92.92h-17.29c-.51,0-.92-.41-.92-.92v-12.75c0-.51.41-.92.92-.92Z"/>
            <path class="cls-13" d="M118.27,981.46h17.29c.51,0,.92.41.92.92v12.75c0,.51-.41.92-.92.92h-17.28c-.51,0-.92-.41-.92-.92v-12.75c0-.51.41-.92.92-.92Z"/>
            <path class="cls-13" d="M151.74,981.46h17.29c.51,0,.92.41.92.92v12.75c0,.51-.41.92-.92.92h-17.29c-.51,0-.92-.41-.92-.92v-12.75c0-.51.41-.92.92-.92Z"/>
            <path class="cls-13" d="M185.2,981.46h17.29c.51,0,.92.41.92.92v12.75c0,.51-.41.92-.92.92h-17.29c-.51,0-.92-.41-.92-.92v-12.75c0-.51.41-.92.92-.92Z"/>
            <path class="cls-13" d="M218.67,981.46h17.29c.51,0,.92.41.92.92v12.75c0,.51-.41.92-.92.92h-17.29c-.51,0-.92-.41-.92-.92v-12.75c0-.51.41-.92.92-.92Z"/>
            <path class="cls-13" d="M252.14,981.46h17.29c.51,0,.92.41.92.92v12.75c0,.51-.41.92-.92.92h-17.29c-.51,0-.92-.41-.92-.92v-12.75c0-.51.41-.92.92-.92Z"/>
            <path class="cls-13" d="M285.61,981.46h17.29c.51,0,.92.41.92.92v12.75c0,.51-.41.92-.92.92h-17.29c-.51,0-.92-.41-.92-.92v-12.75c0-.51.41-.92.92-.92Z"/>
            <path class="cls-13" d="M319.07,981.46h17.29c.51,0,.92.41.92.92v12.75c0,.51-.41.92-.92.92h-17.29c-.51,0-.92-.41-.92-.92v-12.75c0-.51.41-.92.92-.92Z"/>
            <path class="cls-13" d="M352.54,981.46h17.29c.51,0,.92.41.92.92v12.75c0,.51-.41.92-.92.92h-17.29c-.51,0-.92-.41-.92-.92v-12.75c0-.51.41-.92.92-.92Z"/>
            <path class="cls-13" d="M386.01,981.46h17.29c.51,0,.92.41.92.92v12.75c0,.51-.41.92-.92.92h-17.29c-.51,0-.92-.41-.92-.92v-12.75c0-.51.41-.92.92-.92Z"/>
            <path class="cls-13" d="M419.47,981.46h17.29c.51,0,.92.41.92.92v12.75c0,.51-.41.92-.92.92h-17.29c-.51,0-.92-.41-.92-.92v-12.75c0-.51.41-.92.92-.92Z"/>
            <path class="cls-13" d="M51.34,1007.23h17.29c.51,0,.92.41.92.92v12.75c0,.51-.41.92-.92.92h-17.29c-.51,0-.92-.41-.92-.92v-12.75c0-.51.41-.92.92-.92Z"/>
            <path class="cls-13" d="M84.8,1007.23h17.29c.51,0,.92.41.92.92v12.75c0,.51-.41.92-.92.92h-17.29c-.51,0-.92-.41-.92-.92v-12.75c0-.51.41-.92.92-.92Z"/>
            <path class="cls-13" d="M118.27,1007.23h17.29c.51,0,.92.41.92.92v12.75c0,.51-.41.92-.92.92h-17.29c-.51,0-.92-.41-.92-.92v-12.75c0-.51.41-.92.92-.92Z"/>
            <path class="cls-13" d="M151.74,1007.23h17.29c.51,0,.92.41.92.92v12.75c0,.51-.41.92-.92.92h-17.29c-.51,0-.92-.41-.92-.92v-12.75c0-.51.41-.92.92-.92Z"/>
            <path class="cls-13" d="M185.2,1007.23h17.29c.51,0,.92.41.92.92v12.75c0,.51-.41.92-.92.92h-17.29c-.51,0-.92-.41-.92-.92v-12.75c0-.51.41-.92.92-.92Z"/>
            <path class="cls-13" d="M218.67,1007.23h17.29c.51,0,.92.41.92.92v12.75c0,.51-.41.92-.92.92h-17.29c-.51,0-.92-.41-.92-.92v-12.75c0-.51.41-.92.92-.92Z"/>
            <path class="cls-13" d="M252.14,1007.23h17.29c.51,0,.92.41.92.92v12.75c0,.51-.41.92-.92.92h-17.29c-.51,0-.92-.41-.92-.92v-12.75c0-.51.41-.92.92-.92Z"/>
            <path class="cls-13" d="M285.61,1007.23h17.29c.51,0,.92.41.92.92v12.75c0,.51-.41.92-.92.92h-17.29c-.51,0-.92-.41-.92-.92v-12.75c0-.51.41-.92.92-.92Z"/>
            <path class="cls-13" d="M319.07,1007.23h17.29c.51,0,.92.41.92.92v12.75c0,.51-.41.92-.92.92h-17.28c-.51,0-.92-.41-.92-.92v-12.75c0-.51.41-.92.92-.92Z"/>
            <path class="cls-13" d="M352.54,1007.23h17.29c.51,0,.92.41.92.92v12.75c0,.51-.41.92-.92.92h-17.29c-.51,0-.92-.41-.92-.92v-12.75c0-.51.41-.92.92-.92Z"/>
            <path class="cls-13" d="M386.01,1007.23h17.29c.51,0,.92.41.92.92v12.75c0,.51-.41.92-.92.92h-17.29c-.51,0-.92-.41-.92-.92v-12.75c0-.51.41-.92.92-.92Z"/>
            <path class="cls-13" d="M419.47,1007.23h17.29c.51,0,.92.41.92.92v12.75c0,.51-.41.92-.92.92h-17.29c-.51,0-.92-.41-.92-.92v-12.75c0-.51.41-.92.92-.92Z"/>
            <path class="cls-13" d="M51.34,1033.01h17.29c.51,0,.92.41.92.92v12.75c0,.51-.41.92-.92.92h-17.29c-.51,0-.92-.41-.92-.92v-12.75c0-.51.41-.92.92-.92Z"/>
            <path class="cls-13" d="M84.81,1033.01h17.28c.51,0,.92.41.92.92v12.75c0,.51-.41.92-.92.92h-17.29c-.51,0-.92-.41-.92-.92v-12.75c0-.51.41-.92.92-.92Z"/>
            <path class="cls-13" d="M118.27,1033.01h17.28c.51,0,.92.41.92.92v12.75c0,.51-.41.92-.92.92h-17.29c-.51,0-.92-.41-.92-.92v-12.74c0-.51.41-.92.92-.92Z"/>
            <path class="cls-13" d="M151.74,1033.01h17.28c.51,0,.92.41.92.92v12.75c0,.51-.41.92-.92.92h-17.29c-.51,0-.92-.41-.92-.92v-12.75c0-.51.41-.92.92-.92Z"/>
            <path class="cls-13" d="M185.21,1033.01h17.28c.51,0,.92.41.92.92v12.75c0,.51-.41.92-.92.92h-17.29c-.51,0-.92-.41-.92-.92v-12.75c0-.51.41-.92.92-.92Z"/>
            <path class="cls-13" d="M218.67,1033.01h17.28c.51,0,.92.41.92.92v12.75c0,.51-.41.92-.92.92h-17.29c-.51,0-.92-.41-.92-.92v-12.74c0-.51.41-.92.92-.92Z"/>
            <path class="cls-13" d="M252.14,1033.01h17.28c.51,0,.92.41.92.92v12.75c0,.51-.41.92-.92.92h-17.29c-.51,0-.92-.41-.92-.92v-12.75c0-.51.41-.92.92-.92Z"/>
            <path class="cls-13" d="M285.61,1033.01h17.29c.51,0,.92.41.92.92v12.75c0,.51-.41.92-.92.92h-17.28c-.51,0-.92-.41-.92-.92v-12.75c0-.51.41-.92.92-.92Z"/>
            <path class="cls-13" d="M319.08,1033.01h17.28c.51,0,.92.41.92.92v12.75c0,.51-.41.92-.92.92h-17.29c-.51,0-.92-.41-.92-.92v-12.75c0-.51.41-.92.92-.92Z"/>
            <path class="cls-13" d="M352.54,1033.01h17.28c.51,0,.92.41.92.92v12.75c0,.51-.41.92-.92.92h-17.29c-.51,0-.92-.41-.92-.92v-12.75c0-.51.41-.92.92-.92Z"/>
            <path class="cls-13" d="M386.01,1033.01h17.28c.51,0,.92.41.92.92v12.75c0,.51-.41.92-.92.92h-17.29c-.51,0-.92-.41-.92-.92v-12.74c0-.51.41-.92.92-.92Z"/>
            <path class="cls-13" d="M419.48,1033.01h17.28c.51,0,.92.41.92.92v12.75c0,.51-.41.92-.92.92h-17.29c-.51,0-.92-.41-.92-.92v-12.75c0-.51.41-.92.92-.92Z"/>
            <path class="cls-13" d="M51.34,1058.79h17.29c.51,0,.92.41.92.92v12.75c0,.51-.41.92-.92.92h-17.29c-.51,0-.92-.41-.92-.92v-12.75c0-.51.41-.92.92-.92Z"/>
            <path class="cls-13" d="M84.8,1058.79h17.29c.51,0,.92.41.92.92v12.75c0,.51-.41.92-.92.92h-17.29c-.51,0-.92-.41-.92-.92v-12.75c0-.51.41-.92.92-.92Z"/>
            <path class="cls-13" d="M118.27,1058.79h17.29c.51,0,.92.41.92.92v12.75c0,.51-.41.92-.92.92h-17.29c-.51,0-.92-.41-.92-.92v-12.75c0-.51.41-.92.92-.92Z"/>
            <path class="cls-13" d="M151.74,1058.79h17.29c.51,0,.92.41.92.92v12.75c0,.51-.41.92-.92.92h-17.29c-.51,0-.92-.41-.92-.92v-12.75c0-.51.41-.92.92-.92Z"/>
            <path class="cls-13" d="M185.2,1058.79h17.29c.51,0,.92.41.92.92v12.75c0,.51-.41.92-.92.92h-17.29c-.51,0-.92-.41-.92-.92v-12.75c0-.51.41-.92.92-.92Z"/>
            <path class="cls-13" d="M218.67,1058.79h17.29c.51,0,.92.41.92.92v12.75c0,.51-.41.92-.92.92h-17.29c-.51,0-.92-.41-.92-.92v-12.75c0-.51.41-.92.92-.92Z"/>
            <path class="cls-13" d="M252.14,1058.79h17.29c.51,0,.92.41.92.92v12.75c0,.51-.41.92-.92.92h-17.29c-.51,0-.92-.41-.92-.92v-12.75c0-.51.41-.92.92-.92Z"/>
            <path class="cls-13" d="M285.61,1058.79h17.28c.51,0,.92.41.92.92v12.75c0,.51-.41.92-.92.92h-17.29c-.51,0-.92-.41-.92-.92v-12.75c0-.51.41-.92.92-.92Z"/>
            <path class="cls-13" d="M319.07,1058.79h17.28c.51,0,.92.41.92.92v12.75c0,.51-.41.92-.92.92h-17.29c-.51,0-.92-.41-.92-.92v-12.75c0-.51.41-.92.92-.92Z"/>
            <path class="cls-13" d="M352.54,1058.79h17.29c.51,0,.92.41.92.92v12.75c0,.51-.41.92-.92.92h-17.29c-.51,0-.92-.41-.92-.92v-12.75c0-.51.41-.92.92-.92Z"/>
            <path class="cls-13" d="M386.01,1058.79h17.29c.51,0,.92.41.92.92v12.75c0,.51-.41.92-.92.92h-17.29c-.51,0-.92-.41-.92-.92v-12.75c0-.51.41-.92.92-.92Z"/>
            <rect class="cls-13" x="418.55" y="1058.79" width="19.13" height="14.59" rx=".92" ry=".92"/>
            <path class="cls-13" d="M51.34,1084.57h17.29c.51,0,.92.41.92.92v12.75c0,.51-.41.92-.92.92h-17.29c-.51,0-.92-.41-.92-.92v-12.75c0-.51.41-.92.92-.92Z"/>
            <path class="cls-13" d="M84.8,1084.57h17.29c.51,0,.92.41.92.92v12.75c0,.51-.41.92-.92.92h-17.29c-.51,0-.92-.41-.92-.92v-12.75c0-.51.41-.92.92-.92Z"/>
            <path class="cls-13" d="M118.27,1084.57h17.29c.51,0,.92.41.92.92v12.75c0,.51-.41.92-.92.92h-17.28c-.51,0-.92-.41-.92-.92v-12.75c0-.51.41-.92.92-.92Z"/>
            <path class="cls-13" d="M151.74,1084.57h17.29c.51,0,.92.41.92.92v12.75c0,.51-.41.92-.92.92h-17.29c-.51,0-.92-.41-.92-.92v-12.75c0-.51.41-.92.92-.92Z"/>
            <path class="cls-13" d="M185.2,1084.57h17.29c.51,0,.92.41.92.92v12.75c0,.51-.41.92-.92.92h-17.29c-.51,0-.92-.41-.92-.92v-12.75c0-.51.41-.92.92-.92Z"/>
            <path class="cls-13" d="M218.67,1084.57h17.29c.51,0,.92.41.92.92v12.75c0,.51-.41.92-.92.92h-17.29c-.51,0-.92-.41-.92-.92v-12.75c0-.51.41-.92.92-.92Z"/>
            <path class="cls-13" d="M252.14,1084.57h17.29c.51,0,.92.41.92.92v12.75c0,.51-.41.92-.92.92h-17.29c-.51,0-.92-.41-.92-.92v-12.75c0-.51.41-.92.92-.92Z"/>
            <path class="cls-13" d="M285.61,1084.57h17.28c.51,0,.92.41.92.92v12.75c0,.51-.41.92-.92.92h-17.29c-.51,0-.92-.41-.92-.92v-12.75c0-.51.41-.92.92-.92Z"/>
            <path class="cls-13" d="M319.07,1084.57h17.29c.51,0,.92.41.92.92v12.75c0,.51-.41.92-.92.92h-17.28c-.51,0-.92-.41-.92-.92v-12.75c0-.51.41-.92.92-.92Z"/>
            <path class="cls-13" d="M352.54,1084.57h17.29c.51,0,.92.41.92.92v12.75c0,.51-.41.92-.92.92h-17.29c-.51,0-.92-.41-.92-.92v-12.75c0-.51.41-.92.92-.92Z"/>
            <path class="cls-13" d="M386.01,1084.57h17.29c.51,0,.92.41.92.92v12.75c0,.51-.41.92-.92.92h-17.28c-.51,0-.92-.41-.92-.92v-12.75c0-.51.41-.92.92-.92Z"/>
            <path class="cls-13" d="M419.47,1084.57h17.29c.51,0,.92.41.92.92v12.75c0,.51-.41.92-.92.92h-17.29c-.51,0-.92-.41-.92-.92v-12.75c0-.51.41-.92.92-.92Z"/>
          </g>
          <path class="cls-10" d="M343.29,975.86c0,58.77-47.64,106.42-106.41,106.42s-106.42-47.64-106.42-106.42,47.65-106.41,106.42-106.41,106.41,47.64,106.41,106.41Z"/>
          <path class="cls-13" d="M327.12,975.86c0,49.84-40.4,90.24-90.24,90.24s-90.24-40.4-90.24-90.24,40.4-90.24,90.24-90.24,90.24,40.4,90.24,90.24Z"/>
          <path class="cls-4" d="M323.23,975.86c0,47.69-38.66,86.35-86.35,86.35s-86.35-38.66-86.35-86.35,38.66-86.35,86.35-86.35,86.35,38.66,86.35,86.35Z"/>
          <path class="cls-10" d="M269.09,975.86c0,17.79-14.42,32.21-32.21,32.21s-32.22-14.42-32.22-32.21,14.42-32.21,32.22-32.21,32.21,14.42,32.21,32.21Z"/>
          <rect class="cls-13" x="34.98" y="793.91" width="418.14" height="46.35"/>
          <path class="cls-4" d="M83.83,817.09c0,8.43-6.84,15.27-15.27,15.27s-15.27-6.83-15.27-15.27,6.83-15.27,15.27-15.27,15.27,6.84,15.27,15.27Z"/>
          <path class="cls-4" d="M132.98,817.09c0,8.43-6.84,15.27-15.27,15.27s-15.27-6.83-15.27-15.27,6.84-15.27,15.27-15.27,15.27,6.84,15.27,15.27Z"/>
          <path class="cls-4" d="M182.12,817.09c0,8.43-6.84,15.27-15.27,15.27s-15.27-6.83-15.27-15.27,6.83-15.27,15.27-15.27,15.27,6.84,15.27,15.27Z"/>
          <path class="cls-4" d="M384.31,817.09c0,6.92-5.61,12.52-12.52,12.52s-12.52-5.61-12.52-12.52,5.61-12.52,12.52-12.52,12.52,5.61,12.52,12.52Z"/>
          <path class="cls-4" d="M339.83,817.09c0,6.92-5.61,12.52-12.52,12.52s-12.52-5.61-12.52-12.52,5.61-12.52,12.52-12.52,12.52,5.61,12.52,12.52Z"/>
          <rect class="cls-4" x="402.78" y="800.8" width="27.26" height="32.58"/>
          <rect class="cls-13" x="404.89" y="803.32" width="23.03" height="27.54"/>
          <rect class="cls-4" x="404.89" y="812.65" width="23.03" height="8.87"/>
          <path class="cls-10" d="M476.5,763.78h-23.18v31.9h34.77v-20.31c0-6.38-5.22-11.59-11.59-11.59Z"/>
          <path class="cls-13" d="M467.79,786.94c0,3.34-2.71,6.05-6.06,6.05s-6.05-2.71-6.05-6.05,2.71-6.06,6.05-6.06,6.06,2.71,6.06,6.06Z"/>
          <path class="cls-10" d="M11.59,763.78h23.18v31.9H0v-20.31c0-6.38,5.22-11.59,11.59-11.59Z"/>
          <path class="cls-13" d="M20.31,786.94c0,3.34,2.71,6.05,6.05,6.05s6.06-2.71,6.06-6.05-2.71-6.06-6.06-6.06-6.05,2.71-6.05,6.06Z"/>
          <path class="cls-10" d="M11.59,1141.5h23.18v-31.9H0v20.31c0,6.38,5.22,11.59,11.59,11.59Z"/>
          <path class="cls-13" d="M20.31,1118.34c0-3.35,2.71-6.06,6.05-6.06s6.06,2.71,6.06,6.06-2.71,6.06-6.06,6.06-6.05-2.71-6.05-6.06Z"/>
          <path class="cls-10" d="M476.5,1141.5h-23.18v-31.9h34.77v20.31c0,6.38-5.22,11.59-11.59,11.59Z"/>
          <path class="cls-13" d="M467.79,1118.34c0-3.35-2.71-6.06-6.06-6.06s-6.05,2.71-6.05,6.06,2.71,6.06,6.05,6.06,6.06-2.71,6.06-6.06Z"/>
        </g>
        <g class="cls-15">
          <path class="cls-1" d="M358.62,98.19c0,.33-.89.57-1.99.57h0c-1.11,0-1.99-.23-1.99-.57v-41.74c0-.3.88-.57,1.99-.57h0c1.09,0,1.99.27,1.99.57v41.74Z"/>
          <g>
            <path class="cls-9" d="M356.63,99.13c-63.91,0-115.74,6.05-115.74,13.48h231.48c0-7.43-51.83-13.48-115.74-13.48Z"/>
            <polygon class="cls-12" points="365.6 95.6 363.35 94.33 349.92 94.33 347.67 95.6 338.69 100.73 356.63 100.73 374.56 100.73 365.6 95.6"/>
          </g>
          <path class="cls-1" d="M361.1,72.44c0,.35-.38.63-.89.63h-7.14c-.52,0-.92-.28-.92-.63v-14.75c0-.37.4-.65.92-.65h7.14c.51,0,.89.28.89.65v14.75Z"/>
          <path class="cls-1" d="M863.05,46.56c0,.33-.97.62-2.2.62h0c-1.2,0-2.17-.28-2.17-.62V.64c0-.35.98-.64,2.17-.64h0c1.24,0,2.2.28,2.2.64v45.93Z"/>
          <g>
            <rect class="cls-4" x="643.75" y="191.55" width="77.71" height="11.44"/>
            <g>
              <rect class="cls-4" x="677.06" y="203.55" width="11.08" height="87.58"/>
              <path class="cls-4" d="M689.85,211.92c0,.6-.67,1.07-1.49,1.07h-11.51c-.82,0-1.5-.47-1.5-1.07v-24.63c0-.6.68-1.1,1.5-1.1h11.51c.82,0,1.49.5,1.49,1.1v24.63Z"/>
            </g>
          </g>
          <g>
            <path class="cls-13" d="M658.13,257.1c0,.65-.53,1.19-1.17,1.19h-123.53c-.66,0-1.17-.53-1.17-1.19v-103.74c0-.67.51-1.2,1.17-1.2h123.53c.64,0,1.17.53,1.17,1.2v103.74Z"/>
            <g>
              <g>
                <path class="cls-4" d="M660.72,154.04c0,.43-.52.82-1.15.82h-128.76c-.64,0-1.14-.39-1.14-.82v-5.48c0-.47.5-.83,1.14-.83h128.76c.63,0,1.15.37,1.15.83v5.48Z"/>
                <g>
                  <g>
                    <rect class="cls-4" x="554.39" y="152.39" width="3.58" height="26.92"/>
                    <path class="cls-4" d="M558.88,184.69c0,.79-.56,1.42-1.25,1.42h-2.86c-.7,0-1.26-.63-1.26-1.42v-12.92c0-.8.56-1.44,1.26-1.44h2.86c.69,0,1.25.63,1.25,1.44v12.92Z"/>
                  </g>
                  <g>
                    <rect class="cls-4" x="632.41" y="152.39" width="3.58" height="26.92"/>
                    <path class="cls-4" d="M636.88,184.69c0,.79-.58,1.42-1.27,1.42h-2.84c-.7,0-1.28-.63-1.28-1.42v-12.92c0-.8.58-1.44,1.28-1.44h2.84c.69,0,1.27.63,1.27,1.44v12.92Z"/>
                  </g>
                </g>
              </g>
              <g>
                <path class="cls-4" d="M660.72,256.43c0-.45-.52-.83-1.15-.83h-128.76c-.64,0-1.14.38-1.14.83v5.45c0,.48.5.85,1.14.85h128.76c.63,0,1.15-.37,1.15-.85v-5.45Z"/>
                <g>
                  <g>
                    <rect class="cls-4" x="554.39" y="231.13" width="3.58" height="26.93"/>
                    <path class="cls-4" d="M558.88,225.77c0-.8-.56-1.45-1.25-1.45h-2.86c-.7,0-1.26.65-1.26,1.45v12.92c0,.78.56,1.44,1.26,1.44h2.86c.69,0,1.25-.65,1.25-1.44v-12.92Z"/>
                  </g>
                  <g>
                    <rect class="cls-4" x="632.41" y="231.13" width="3.58" height="26.93"/>
                    <path class="cls-4" d="M636.88,225.77c0-.8-.58-1.45-1.27-1.45h-2.84c-.7,0-1.28.65-1.28,1.45v12.92c0,.78.58,1.44,1.28,1.44h2.84c.69,0,1.27-.65,1.27-1.44v-12.92Z"/>
                  </g>
                </g>
              </g>
            </g>
          </g>
          <g>
            <path class="cls-13" d="M827.67,255.43c0,.65-.49,1.14-1.13,1.14h-119.58c-.62,0-1.12-.48-1.12-1.14v-100.41c0-.62.5-1.14,1.12-1.14h119.58c.63,0,1.13.52,1.13,1.14v100.41Z"/>
            <g>
              <g>
                <path class="cls-4" d="M830.19,155.65c0,.45-.51.82-1.11.82h-124.65c-.59,0-1.11-.37-1.11-.82v-5.26c0-.45.52-.82,1.11-.82h124.65c.6,0,1.11.37,1.11.82v5.26Z"/>
                <g>
                  <g>
                    <rect class="cls-4" x="727.27" y="154.08" width="3.48" height="26.06"/>
                    <path class="cls-4" d="M731.61,185.35c0,.75-.54,1.37-1.22,1.37h-2.76c-.68,0-1.23-.62-1.23-1.37v-12.51c0-.75.54-1.4,1.23-1.4h2.76c.68,0,1.22.65,1.22,1.4v12.51Z"/>
                  </g>
                  <g>
                    <rect class="cls-4" x="802.77" y="154.08" width="3.47" height="26.06"/>
                    <path class="cls-4" d="M807.12,185.35c0,.75-.57,1.37-1.24,1.37h-2.76c-.69,0-1.23-.62-1.23-1.37v-12.51c0-.75.54-1.4,1.23-1.4h2.76c.67,0,1.24.65,1.24,1.4v12.51Z"/>
                  </g>
                </g>
              </g>
              <g>
                <path class="cls-4" d="M830.19,254.78c0-.43-.51-.8-1.11-.8h-124.65c-.59,0-1.11.37-1.11.8v5.3c0,.43.52.82,1.11.82h124.65c.6,0,1.11-.38,1.11-.82v-5.3Z"/>
                <g>
                  <g>
                    <rect class="cls-4" x="727.27" y="230.31" width="3.48" height="26.05"/>
                    <path class="cls-4" d="M731.61,225.1c0-.78-.54-1.4-1.22-1.4h-2.76c-.68,0-1.23.62-1.23,1.4v12.51c0,.75.54,1.39,1.23,1.39h2.76c.68,0,1.22-.64,1.22-1.39v-12.51Z"/>
                  </g>
                  <g>
                    <rect class="cls-4" x="802.77" y="230.31" width="3.47" height="26.05"/>
                    <path class="cls-4" d="M807.12,225.1c0-.78-.57-1.4-1.24-1.4h-2.76c-.69,0-1.23.62-1.23,1.4v12.51c0,.75.54,1.39,1.23,1.39h2.76c.67,0,1.24-.64,1.24-1.39v-12.51Z"/>
                  </g>
                </g>
              </g>
            </g>
          </g>
          <path class="cls-4" d="M828.08,429.94c0,80.5-65.26,145.72-145.73,145.72s-145.73-65.23-145.73-145.72,65.25-145.74,145.73-145.74,145.73,65.26,145.73,145.74Z"/>
          <path class="cls-9" d="M820.69,429.94c0,76.42-61.94,138.36-138.34,138.36s-138.36-61.93-138.36-138.36,61.94-138.37,138.36-138.37,138.34,61.97,138.34,138.37Z"/>
          <g>
            <g>
              <path class="cls-4" d="M745.75,306.52c-.48,1.12-1.57,1.74-2.42,1.37l-16.91-7.07c-.86-.37-1.2-1.57-.73-2.67l1.99-4.76c.48-1.12,1.55-1.75,2.42-1.39l16.89,7.08c.89.35,1.21,1.55.73,2.69l-1.97,4.74Z"/>
              <g>
                <path class="cls-4" d="M742.87,296.23c-.89,2.14-3.38,3.16-5.55,2.27-2.15-.92-3.17-3.39-2.26-5.56.88-2.16,3.37-3.17,5.53-2.27,2.16.9,3.16,3.39,2.27,5.56Z"/>
                <path class="cls-4" d="M741.71,295.71c-.65,1.54-2.4,2.24-3.91,1.6-1.51-.63-2.21-2.36-1.59-3.86.64-1.54,2.38-2.22,3.88-1.6,1.52.64,2.24,2.37,1.62,3.86Z"/>
              </g>
            </g>
            <g>
              <path class="cls-4" d="M814.45,387.5c-1.14.47-2.33.13-2.7-.75l-6.94-16.94c-.36-.89.26-1.97,1.39-2.42l4.75-1.95c1.13-.45,2.32-.13,2.7.75l6.94,16.94c.36.89-.27,1.97-1.4,2.42l-4.75,1.95Z"/>
              <g>
                <path class="cls-4" d="M819.71,378.18c-2.17.89-4.64-.15-5.54-2.31-.89-2.19.16-4.64,2.31-5.55,2.17-.89,4.64.17,5.53,2.32.89,2.16-.14,4.65-2.31,5.53Z"/>
                <path class="cls-4" d="M819.21,377.01c-1.5.62-3.25-.1-3.88-1.64-.61-1.49.1-3.24,1.63-3.88,1.5-.6,3.25.1,3.88,1.62.62,1.54-.13,3.26-1.63,3.89Z"/>
              </g>
            </g>
            <g>
              <path class="cls-4" d="M805.78,493.34c-1.14-.47-1.76-1.55-1.4-2.42l7.07-16.92c.35-.87,1.57-1.19,2.71-.72l4.74,2.01c1.13.47,1.74,1.55,1.37,2.42l-7.07,16.89c-.38.87-1.58,1.19-2.69.73l-4.74-1.99Z"/>
              <g>
                <path class="cls-4" d="M816.08,490.47c-2.17-.92-3.19-3.39-2.29-5.56.92-2.14,3.38-3.16,5.55-2.26,2.16.9,3.17,3.38,2.27,5.53-.91,2.17-3.38,3.19-5.53,2.29Z"/>
                <path class="cls-4" d="M816.55,489.28c-1.5-.63-2.21-2.36-1.6-3.88.65-1.5,2.39-2.22,3.9-1.59,1.52.62,2.22,2.36,1.59,3.89-.63,1.49-2.38,2.22-3.89,1.57Z"/>
              </g>
            </g>
            <g>
              <path class="cls-4" d="M724.8,562.03c-.48-1.12-.14-2.3.73-2.69l16.98-6.93c.85-.38,1.93.25,2.4,1.39l1.95,4.75c.47,1.14.15,2.36-.73,2.69l-16.95,6.97c-.87.37-1.95-.27-2.41-1.4l-1.95-4.76Z"/>
              <g>
                <path class="cls-4" d="M734.11,567.29c-.89-2.17.16-4.65,2.31-5.53,2.16-.89,4.62.15,5.53,2.31.88,2.17-.15,4.65-2.31,5.55-2.18.89-4.64-.17-5.53-2.32Z"/>
                <path class="cls-4" d="M735.29,566.81c-.63-1.52.08-3.24,1.61-3.88,1.54-.62,3.25.12,3.86,1.6.64,1.52-.09,3.26-1.61,3.89-1.51.62-3.25-.12-3.86-1.62Z"/>
              </g>
            </g>
            <g>
              <path class="cls-4" d="M618.96,553.36c.46-1.14,1.55-1.74,2.41-1.35l16.9,7.05c.88.35,1.2,1.55.73,2.71l-1.96,4.73c-.49,1.12-1.58,1.74-2.45,1.37l-16.89-7.07c-.88-.37-1.2-1.57-.73-2.69l1.99-4.74Z"/>
              <g>
                <path class="cls-4" d="M621.84,563.66c.89-2.15,3.39-3.19,5.54-2.27,2.16.9,3.17,3.37,2.27,5.55-.89,2.14-3.39,3.16-5.54,2.26-2.17-.9-3.17-3.37-2.27-5.53Z"/>
                <path class="cls-4" d="M623,564.15c.63-1.5,2.38-2.24,3.88-1.6,1.52.65,2.23,2.39,1.62,3.89-.65,1.52-2.4,2.22-3.91,1.59-1.51-.62-2.22-2.36-1.6-3.88Z"/>
              </g>
            </g>
            <g>
              <path class="cls-4" d="M550.25,472.38c1.14-.45,2.33-.13,2.7.75l6.95,16.96c.35.85-.27,1.94-1.4,2.41l-4.75,1.94c-1.14.48-2.33.15-2.69-.74l-6.95-16.94c-.36-.87.25-1.94,1.39-2.42l4.75-1.95Z"/>
              <g>
                <path class="cls-4" d="M545.01,481.7c2.16-.89,4.64.15,5.52,2.32.89,2.15-.16,4.63-2.31,5.53-2.16.87-4.64-.17-5.54-2.32-.86-2.16.15-4.63,2.32-5.53Z"/>
                <path class="cls-4" d="M545.49,482.87c1.49-.62,3.25.12,3.87,1.62.62,1.54-.1,3.26-1.62,3.88-1.52.64-3.23-.1-3.87-1.62-.63-1.52.11-3.24,1.62-3.88Z"/>
              </g>
            </g>
            <g>
              <path class="cls-4" d="M558.93,366.55c1.14.45,1.75,1.55,1.39,2.42l-7.08,16.89c-.36.87-1.56,1.2-2.68.72l-4.74-1.97c-1.14-.49-1.76-1.57-1.4-2.44l7.08-16.89c.37-.87,1.56-1.2,2.69-.72l4.75,1.99Z"/>
              <g>
                <path class="cls-4" d="M548.62,369.41c2.16.9,3.18,3.39,2.27,5.53-.89,2.17-3.37,3.23-5.52,2.31-2.16-.92-3.18-3.39-2.28-5.55.9-2.17,3.38-3.19,5.53-2.29Z"/>
                <path class="cls-4" d="M548.15,370.59c1.52.63,2.22,2.36,1.58,3.88-.61,1.5-2.37,2.21-3.87,1.59-1.52-.62-2.22-2.37-1.6-3.89.63-1.49,2.36-2.2,3.88-1.57Z"/>
              </g>
            </g>
            <g>
              <path class="cls-4" d="M639.9,297.85c.48,1.09.15,2.32-.73,2.67l-16.95,6.95c-.88.37-1.95-.27-2.41-1.39l-1.96-4.76c-.48-1.12-.14-2.34.75-2.69l16.93-6.95c.89-.35,1.95.27,2.42,1.4l1.94,4.76Z"/>
              <g>
                <path class="cls-4" d="M630.59,292.6c.9,2.16-.14,4.63-2.32,5.51-2.16.89-4.62-.17-5.53-2.31-.87-2.19.16-4.64,2.33-5.53,2.16-.9,4.63.15,5.52,2.32Z"/>
                <path class="cls-4" d="M629.41,293.05c.62,1.55-.09,3.26-1.62,3.89-1.52.62-3.24-.1-3.88-1.64-.62-1.5.11-3.24,1.63-3.86,1.51-.62,3.26.1,3.87,1.6Z"/>
              </g>
            </g>
          </g>
          <path class="cls-4" d="M770.18,469.2c0,26.5-21.45,47.97-47.95,47.97s-47.98-21.47-47.98-47.97,21.48-47.97,47.98-47.97,47.95,21.45,47.95,47.97Z"/>
          <g>
            <g>
              <polygon class="cls-4" points="949.89 341.09 913.6 305.18 918.12 300.62 954.4 336.54 949.89 341.09"/>
              <polygon class="cls-4" points="954.27 341.09 990.55 305.18 986.05 300.62 949.77 336.54 954.27 341.09"/>
            </g>
            <rect class="cls-4" x="946.85" y="334.02" width="10.46" height="167.44"/>
            <path class="cls-4" d="M958.91,339.01c0,.5-.61.94-1.37.94h-10.91c-.77,0-1.4-.43-1.4-.94v-20.94c0-.48.64-.9,1.4-.9h10.91c.76,0,1.37.42,1.37.9v20.94Z"/>
            <g>
              <g>
                <polygon class="cls-4" points="949.52 501.46 928.31 486.43 932.81 483.17 954.03 498.2 949.52 501.46"/>
                <g>
                  <polygon class="cls-4" points="910.96 505.87 905 502.45 945.68 466.29 951.64 469.72 910.96 505.87"/>
                  <path class="cls-4" d="M907.17,512.14c-2.14,1.9-5.47,2.51-7.48,1.37l-2.72-1.57c-1.98-1.14-1.87-3.61.28-5.5l10.26-9.12c2.13-1.9,5.47-2.51,7.46-1.39l2.74,1.6c1.99,1.14,1.85,3.61-.3,5.51l-10.24,9.09Z"/>
                </g>
              </g>
              <g>
                <polygon class="cls-4" points="954.64 501.46 975.86 486.43 971.35 483.17 950.13 498.2 954.64 501.46"/>
                <g>
                  <polygon class="cls-4" points="993.21 505.87 999.18 502.45 958.49 466.29 952.51 469.72 993.21 505.87"/>
                  <path class="cls-4" d="M996.99,512.14c2.15,1.9,5.47,2.51,7.46,1.37l2.76-1.57c1.98-1.14,1.86-3.61-.3-5.5l-10.25-9.12c-2.14-1.9-5.48-2.51-7.48-1.39l-2.72,1.6c-1.99,1.14-1.86,3.61.29,5.51l10.24,9.09Z"/>
                </g>
              </g>
            </g>
            <path class="cls-4" d="M958.91,465.52c0,.42-.61.77-1.37.77h-10.91c-.77,0-1.4-.35-1.4-.77v-17.51c0-.43.64-.77,1.4-.77h10.91c.76,0,1.37.33,1.37.77v17.51Z"/>
          </g>
          <path class="cls-13" d="M1014.02,302.78c0,.37-.52.67-1.15.67h-121.59c-.64,0-1.14-.3-1.14-.67v-58.24c0-.37.49-.65,1.14-.65h121.59c.63,0,1.15.28,1.15.65v58.24Z"/>
          <g>
            <g>
              <path class="cls-4" d="M1016.58,245.49c0,.38-.52.72-1.14.72h-126.71c-.64,0-1.15-.33-1.15-.72v-4.78c0-.38.52-.7,1.15-.7h126.71c.63,0,1.14.32,1.14.7v4.78Z"/>
              <g>
                <g>
                  <rect class="cls-4" x="912.07" y="242.9" width="3.54" height="12.98"/>
                  <path class="cls-4" d="M916.49,265.9c0,.68-.57,1.25-1.26,1.25h-2.79c-.69,0-1.25-.57-1.25-1.25v-11.24c0-.69.56-1.24,1.25-1.24h2.79c.69,0,1.26.55,1.26,1.24v11.24Z"/>
                </g>
                <g>
                  <rect class="cls-4" x="988.56" y="242.9" width="3.52" height="12.98"/>
                  <path class="cls-4" d="M992.97,265.9c0,.68-.54,1.25-1.24,1.25h-2.82c-.68,0-1.24-.57-1.24-1.25v-11.24c0-.69.55-1.24,1.24-1.24h2.82c.69,0,1.24.55,1.24,1.24v11.24Z"/>
                </g>
              </g>
            </g>
            <g>
              <path class="cls-4" d="M887.57,300.3c0-.42.52-.75,1.15-.75h126.71c.63,0,1.14.33,1.14.75v4.76c0,.4-.52.73-1.14.73h-126.71c-.64,0-1.15-.33-1.15-.73v-4.76Z"/>
              <g>
                <g>
                  <rect class="cls-4" x="988.56" y="289.89" width="3.52" height="13"/>
                  <path class="cls-4" d="M987.68,279.85c0-.67.55-1.22,1.24-1.22h2.82c.69,0,1.24.55,1.24,1.22v11.26c0,.69-.54,1.25-1.24,1.25h-2.82c-.68,0-1.24-.57-1.24-1.25v-11.26Z"/>
                </g>
                <g>
                  <rect class="cls-4" x="912.07" y="289.89" width="3.54" height="13"/>
                  <path class="cls-4" d="M911.19,279.85c0-.67.56-1.22,1.25-1.22h2.79c.69,0,1.26.55,1.26,1.22v11.26c0,.69-.57,1.25-1.26,1.25h-2.79c-.69,0-1.25-.57-1.25-1.25v-11.26Z"/>
                </g>
              </g>
            </g>
          </g>
          <g>
            <g>
              <polygon class="cls-4" points="450.07 392.61 413.79 356.66 418.29 352.13 454.57 388.05 450.07 392.61"/>
              <polygon class="cls-4" points="454.46 392.61 490.72 356.66 486.21 352.13 449.94 388.05 454.46 392.61"/>
            </g>
            <rect class="cls-4" x="447.03" y="383.22" width="10.47" height="118.22"/>
            <path class="cls-4" d="M459.11,390.52c0,.5-.62.92-1.39.92h-10.88c-.79,0-1.42-.42-1.42-.92v-20.92c0-.52.63-.92,1.42-.92h10.88c.78,0,1.39.4,1.39.92v20.92Z"/>
            <g>
              <g>
                <polygon class="cls-4" points="449.7 501.45 428.5 486.43 432.97 483.17 454.21 498.2 449.7 501.45"/>
                <g>
                  <polygon class="cls-4" points="411.12 505.87 405.16 502.45 445.86 466.29 451.83 469.72 411.12 505.87"/>
                  <path class="cls-4" d="M407.35,512.14c-2.14,1.9-5.49,2.51-7.47,1.37l-2.75-1.57c-1.99-1.15-1.85-3.63.29-5.5l10.26-9.12c2.15-1.92,5.48-2.52,7.44-1.39l2.76,1.6c2,1.12,1.86,3.59-.28,5.5l-10.26,9.11Z"/>
                </g>
              </g>
              <g>
                <polygon class="cls-4" points="454.83 501.45 476.02 486.43 471.53 483.17 450.31 498.2 454.83 501.45"/>
                <g>
                  <polygon class="cls-4" points="493.39 505.87 499.35 502.45 458.66 466.29 452.71 469.72 493.39 505.87"/>
                  <path class="cls-4" d="M497.17,512.14c2.13,1.9,5.47,2.51,7.46,1.37l2.75-1.57c1.98-1.15,1.85-3.63-.28-5.5l-10.25-9.12c-2.17-1.92-5.49-2.52-7.47-1.39l-2.75,1.6c-1.98,1.12-1.85,3.59.28,5.5l10.27,9.11Z"/>
                </g>
              </g>
            </g>
            <path class="cls-4" d="M459.11,465.54c0,.4-.62.75-1.39.75h-10.88c-.79,0-1.42-.35-1.42-.75v-17.54c0-.42.63-.77,1.42-.77h10.88c.78,0,1.39.35,1.39.77v17.54Z"/>
          </g>
          <path class="cls-13" d="M512.64,353.48c0,.82-.49,1.52-1.1,1.52h-118.56c-.6,0-1.11-.7-1.11-1.52v-133.46c0-.84.51-1.5,1.11-1.5h118.56c.61,0,1.1.67,1.1,1.5v133.46Z"/>
          <g>
            <g>
              <path class="cls-4" d="M515.13,222.41c0,.45-.48.8-1.09.8h-123.54c-.62,0-1.12-.35-1.12-.8v-5.23c0-.47.5-.82,1.12-.82h123.54c.62,0,1.09.35,1.09.82v5.23Z"/>
              <g>
                <g>
                  <rect class="cls-4" x="413.11" y="220.84" width="3.45" height="25.81"/>
                  <path class="cls-4" d="M417.41,251.83c0,.77-.53,1.39-1.22,1.39h-2.72c-.66,0-1.21-.62-1.21-1.39v-12.41c0-.73.55-1.35,1.21-1.35h2.72c.69,0,1.22.62,1.22,1.35v12.41Z"/>
                </g>
                <g>
                  <rect class="cls-4" x="487.95" y="220.84" width="3.44" height="25.81"/>
                  <path class="cls-4" d="M492.27,251.83c0,.77-.55,1.39-1.22,1.39h-2.74c-.67,0-1.22-.62-1.22-1.39v-12.41c0-.73.55-1.35,1.22-1.35h2.74c.67,0,1.22.62,1.22,1.35v12.41Z"/>
                </g>
              </g>
            </g>
            <g>
              <path class="cls-4" d="M515.13,351.08c0-.43-.48-.8-1.09-.8h-123.54c-.62,0-1.12.37-1.12.8v5.25c0,.45.5.8,1.12.8h123.54c.62,0,1.09-.35,1.09-.8v-5.25Z"/>
              <g>
                <g>
                  <rect class="cls-4" x="413.11" y="326.82" width="3.45" height="25.83"/>
                  <path class="cls-4" d="M417.41,321.66c0-.75-.53-1.37-1.22-1.37h-2.72c-.66,0-1.21.62-1.21,1.37v12.41c0,.73.55,1.37,1.21,1.37h2.72c.69,0,1.22-.63,1.22-1.37v-12.41Z"/>
                </g>
                <g>
                  <rect class="cls-4" x="487.95" y="326.82" width="3.44" height="25.83"/>
                  <path class="cls-4" d="M492.27,321.66c0-.75-.55-1.37-1.22-1.37h-2.74c-.67,0-1.22.62-1.22,1.37v12.41c0,.73.55,1.37,1.22,1.37h2.74c.67,0,1.22-.63,1.22-1.37v-12.41Z"/>
                </g>
              </g>
            </g>
          </g>
          <rect class="cls-4" x="353.19" y="57.04" width="6.87" height="501.65"/>
          <g>
            <g>
              <polygon class="cls-1" points="353.66 558.69 323.75 537.47 330.11 532.91 360.04 554.09 353.66 558.69"/>
              <g>
                <polygon class="cls-1" points="305.03 563.65 298.49 560.29 353.41 507.29 359.94 510.64 305.03 563.65"/>
                <path class="cls-1" d="M299.43,572.24c-2.9,2.79-6.97,4.16-9.16,3.04l-3.02-1.54c-2.17-1.09-1.59-4.26,1.3-7.03l13.83-13.37c2.89-2.79,6.99-4.14,9.16-3.06l3.01,1.55c2.16,1.1,1.59,4.26-1.29,7.07l-13.83,13.33Z"/>
              </g>
            </g>
            <g>
              <polygon class="cls-1" points="359.59 558.69 389.5 537.47 383.14 532.91 353.21 554.09 359.59 558.69"/>
              <g>
                <polygon class="cls-1" points="408.22 563.65 414.75 560.29 359.85 507.29 353.31 510.64 408.22 563.65"/>
                <path class="cls-1" d="M413.83,572.24c2.89,2.79,6.99,4.16,9.15,3.04l3.02-1.54c2.16-1.09,1.6-4.26-1.3-7.03l-13.84-13.37c-2.89-2.79-6.98-4.14-9.14-3.06l-3.02,1.55c-2.17,1.1-1.6,4.26,1.3,7.07l13.84,13.33Z"/>
              </g>
            </g>
          </g>
          <path class="cls-1" d="M363.97,508c0,.6-.68,1.07-1.51,1.07h-11.66c-.84,0-1.5-.47-1.5-1.07v-24.74c0-.58.66-1.07,1.5-1.07h11.66c.83,0,1.51.49,1.51,1.07v24.74Z"/>
          <rect class="cls-4" x="857.07" y="1.25" width="7.56" height="552.29"/>
          <g>
            <g>
              <polygon class="cls-1" points="857.6 553.54 824.65 530.2 831.64 525.14 864.58 548.49 857.6 553.54"/>
              <g>
                <polygon class="cls-1" points="804.05 559 796.86 555.31 857.31 496.98 864.51 500.66 804.05 559"/>
                <path class="cls-1" d="M797.89,568.48c-3.18,3.08-7.69,4.56-10.09,3.34l-3.32-1.67c-2.39-1.24-1.75-4.71,1.44-7.79l15.22-14.69c3.17-3.07,7.69-4.59,10.07-3.36l3.33,1.69c2.39,1.24,1.75,4.69-1.44,7.77l-15.22,14.7Z"/>
              </g>
            </g>
            <g>
              <polygon class="cls-1" points="864.1 553.54 897.05 530.2 890.07 525.14 857.11 548.49 864.1 553.54"/>
              <g>
                <polygon class="cls-1" points="917.65 559 924.85 555.31 864.41 496.98 857.2 500.66 917.65 559"/>
                <path class="cls-1" d="M923.83,568.48c3.17,3.08,7.71,4.56,10.07,3.34l3.33-1.67c2.38-1.24,1.75-4.71-1.45-7.79l-15.21-14.69c-3.18-3.07-7.7-4.59-10.08-3.36l-3.32,1.69c-2.4,1.24-1.75,4.69,1.43,7.77l15.23,14.7Z"/>
              </g>
            </g>
          </g>
          <path class="cls-1" d="M868.93,497.74c0,.67-.75,1.19-1.65,1.19h-12.86c-.91,0-1.65-.52-1.65-1.19v-27.2c0-.69.74-1.22,1.65-1.22h12.86c.89,0,1.65.53,1.65,1.22v27.2Z"/>
          <g>
            <path class="cls-9" d="M860.84,47.58c-70.37,0-127.4,6.65-127.4,14.85h254.84c0-8.2-57.05-14.85-127.44-14.85Z"/>
            <polygon class="cls-12" points="870.72 43.71 868.23 42.3 853.47 42.3 850.98 43.71 841.11 49.35 860.84 49.35 880.6 49.35 870.72 43.71"/>
          </g>
          <path class="cls-4" d="M865.79,18.23c0,.4-.44.72-1,.72h-7.85c-.56,0-1.01-.32-1.01-.72V1.97c0-.37.45-.72,1.01-.72h7.85c.56,0,1,.35,1,.72v16.26Z"/>
        </g>
        <path class="cls-2" d="M669.99,402.25c-28.8-38.93-98.15-43.51-116.48-43.84-18.33.33-87.68,4.91-116.48,43.84-28.8,38.93-8.5,90.3,6.21,127.6,14.73,37.29,44.82,80.15,67.39,109.6,22.59,29.45,42.87,33.32,42.87,33.32,0,0,20.28-3.88,42.85-33.32,22.58-29.45,52.69-72.31,67.4-109.6,14.72-37.3,35-88.67,6.22-127.6Z"/>
      </g>
    </g>
  </g>
</svg>