<svg width="72" height="72" viewBox="0 0 72 72" fill="none" xmlns="http://www.w3.org/2000/svg">
<g filter="url(#filter0_dd_90_33)">
<rect x="13.7773" y="9.77779" width="44.4445" height="44.4445" rx="16" fill="#00BB2D"/>
<path d="M47.9973 35.7307C47.8999 35.6839 44.2547 33.889 43.607 33.6559C43.3426 33.5609 43.0593 33.4682 42.758 33.4682C42.2658 33.4682 41.8523 33.7135 41.5302 34.1953C41.1661 34.7365 40.0638 36.025 39.7232 36.4099C39.6788 36.4607 39.618 36.5214 39.5817 36.5214C39.5491 36.5214 38.9849 36.2891 38.8142 36.2149C34.9039 34.5164 31.9359 30.4318 31.5289 29.743C31.4708 29.644 31.4684 29.599 31.4679 29.599C31.4822 29.5466 31.6137 29.4148 31.6815 29.3468C31.8801 29.1503 32.0952 28.8914 32.3033 28.6409C32.4018 28.5222 32.5005 28.4034 32.5974 28.2914C32.8994 27.9401 33.0338 27.6674 33.1896 27.3515L33.2713 27.1873C33.6518 26.4313 33.3268 25.7933 33.2218 25.5873C33.1356 25.4149 31.5965 21.7003 31.4328 21.3101C31.0393 20.3683 30.5193 19.9299 29.7968 19.9299C29.7297 19.9299 29.7968 19.9299 29.5156 19.9417C29.1732 19.9562 27.3088 20.2016 26.4844 20.7213C25.6102 21.2724 24.1313 23.0292 24.1313 26.1188C24.1313 28.8995 25.896 31.525 26.6536 32.5236C26.6724 32.5487 26.707 32.5998 26.7572 32.6732C29.6586 36.9106 33.2757 40.0508 36.9424 41.5156C40.4724 42.9257 42.144 43.0887 43.0943 43.0887H43.0945C43.4939 43.0887 43.8135 43.0573 44.0955 43.0296L44.2744 43.0125C45.4939 42.9044 48.1737 41.5158 48.7833 39.8218C49.2635 38.4875 49.3901 37.0297 49.0707 36.5007C48.8518 36.1409 48.4747 35.9599 47.9973 35.7307Z" fill="#FBFBFB"/>
<path d="M36.4438 7C22.9022 7 11.8854 17.9341 11.8854 31.3739C11.8854 35.7208 13.0487 39.9758 15.2524 43.6999L11.0344 56.1423C10.9558 56.3742 11.0142 56.6307 11.1858 56.8054C11.3097 56.9319 11.4777 57 11.6493 57C11.7151 57 11.7813 56.9901 11.8459 56.9695L24.8199 52.8468C28.3703 54.7437 32.3829 55.745 36.444 55.745C49.9842 55.7452 61 44.8122 61 31.3739C61 17.9341 49.9842 7 36.4438 7ZM36.4438 50.6679C32.6225 50.6679 28.9214 49.5645 25.7399 47.4768C25.6329 47.4065 25.5087 47.3705 25.3837 47.3705C25.3177 47.3705 25.2514 47.3806 25.187 47.401L18.6878 49.4669L20.7858 43.2771C20.8537 43.0768 20.8198 42.8559 20.6948 42.6851C18.272 39.3747 16.9914 35.4635 16.9914 31.3739C16.9914 20.7338 25.7177 12.0773 36.4437 12.0773C47.1683 12.0773 55.8937 20.7338 55.8937 31.3739C55.8938 42.0127 47.1687 50.6679 36.4438 50.6679Z" fill="#FBFBFB"/>
</g>
<defs>
<filter id="filter0_dd_90_33" x="0" y="0" width="72" height="72" filterUnits="userSpaceOnUse" color-interpolation-filters="sRGB">
<feFlood flood-opacity="0" result="BackgroundImageFix"/>
<feColorMatrix in="SourceAlpha" type="matrix" values="0 0 0 0 0 0 0 0 0 0 0 0 0 0 0 0 0 0 127 0" result="hardAlpha"/>
<feOffset dy="1"/>
<feGaussianBlur stdDeviation="1.5"/>
<feColorMatrix type="matrix" values="0 0 0 0 0 0 0 0 0 0 0 0 0 0 0 0 0 0 0.3 0"/>
<feBlend mode="normal" in2="BackgroundImageFix" result="effect1_dropShadow_90_33"/>
<feColorMatrix in="SourceAlpha" type="matrix" values="0 0 0 0 0 0 0 0 0 0 0 0 0 0 0 0 0 0 127 0" result="hardAlpha"/>
<feMorphology radius="3" operator="dilate" in="SourceAlpha" result="effect2_dropShadow_90_33"/>
<feOffset dy="4"/>
<feGaussianBlur stdDeviation="4"/>
<feColorMatrix type="matrix" values="0 0 0 0 0 0 0 0 0 0 0 0 0 0 0 0 0 0 0.15 0"/>
<feBlend mode="normal" in2="effect1_dropShadow_90_33" result="effect2_dropShadow_90_33"/>
<feBlend mode="normal" in="SourceGraphic" in2="effect2_dropShadow_90_33" result="shape"/>
</filter>
</defs>
</svg>
